%TF.GenerationSoftware,KiCad,Pcbnew,(5.1.10-1-10_14)*%
%TF.CreationDate,2021-06-24T14:46:10+02:00*%
%TF.ProjectId,RespiratorIF,52657370-6972-4617-946f-7249462e6b69,0.7*%
%TF.SameCoordinates,Original*%
%TF.FileFunction,Legend,Top*%
%TF.FilePolarity,Positive*%
%FSLAX46Y46*%
G04 Gerber Fmt 4.6, Leading zero omitted, Abs format (unit mm)*
G04 Created by KiCad (PCBNEW (5.1.10-1-10_14)) date 2021-06-24 14:46:10*
%MOMM*%
%LPD*%
G01*
G04 APERTURE LIST*
%ADD10C,0.150000*%
%ADD11C,0.120000*%
G04 APERTURE END LIST*
D10*
X166132980Y-77839295D02*
X165656790Y-78172628D01*
X166132980Y-78410723D02*
X165132980Y-78410723D01*
X165132980Y-78029771D01*
X165180600Y-77934533D01*
X165228219Y-77886914D01*
X165323457Y-77839295D01*
X165466314Y-77839295D01*
X165561552Y-77886914D01*
X165609171Y-77934533D01*
X165656790Y-78029771D01*
X165656790Y-78410723D01*
X166085361Y-77029771D02*
X166132980Y-77125009D01*
X166132980Y-77315485D01*
X166085361Y-77410723D01*
X165990123Y-77458342D01*
X165609171Y-77458342D01*
X165513933Y-77410723D01*
X165466314Y-77315485D01*
X165466314Y-77125009D01*
X165513933Y-77029771D01*
X165609171Y-76982152D01*
X165704409Y-76982152D01*
X165799647Y-77458342D01*
X166085361Y-76601200D02*
X166132980Y-76505961D01*
X166132980Y-76315485D01*
X166085361Y-76220247D01*
X165990123Y-76172628D01*
X165942504Y-76172628D01*
X165847266Y-76220247D01*
X165799647Y-76315485D01*
X165799647Y-76458342D01*
X165752028Y-76553580D01*
X165656790Y-76601200D01*
X165609171Y-76601200D01*
X165513933Y-76553580D01*
X165466314Y-76458342D01*
X165466314Y-76315485D01*
X165513933Y-76220247D01*
X166085361Y-75363104D02*
X166132980Y-75458342D01*
X166132980Y-75648819D01*
X166085361Y-75744057D01*
X165990123Y-75791676D01*
X165609171Y-75791676D01*
X165513933Y-75744057D01*
X165466314Y-75648819D01*
X165466314Y-75458342D01*
X165513933Y-75363104D01*
X165609171Y-75315485D01*
X165704409Y-75315485D01*
X165799647Y-75791676D01*
X165466314Y-75029771D02*
X165466314Y-74648819D01*
X165132980Y-74886914D02*
X165990123Y-74886914D01*
X166085361Y-74839295D01*
X166132980Y-74744057D01*
X166132980Y-74648819D01*
X165558371Y-92807847D02*
X165605990Y-92664990D01*
X165653609Y-92617371D01*
X165748847Y-92569752D01*
X165891704Y-92569752D01*
X165986942Y-92617371D01*
X166034561Y-92664990D01*
X166082180Y-92760228D01*
X166082180Y-93141180D01*
X165082180Y-93141180D01*
X165082180Y-92807847D01*
X165129800Y-92712609D01*
X165177419Y-92664990D01*
X165272657Y-92617371D01*
X165367895Y-92617371D01*
X165463133Y-92664990D01*
X165510752Y-92712609D01*
X165558371Y-92807847D01*
X165558371Y-93141180D01*
X166082180Y-91998323D02*
X166034561Y-92093561D01*
X165986942Y-92141180D01*
X165891704Y-92188800D01*
X165605990Y-92188800D01*
X165510752Y-92141180D01*
X165463133Y-92093561D01*
X165415514Y-91998323D01*
X165415514Y-91855466D01*
X165463133Y-91760228D01*
X165510752Y-91712609D01*
X165605990Y-91664990D01*
X165891704Y-91664990D01*
X165986942Y-91712609D01*
X166034561Y-91760228D01*
X166082180Y-91855466D01*
X166082180Y-91998323D01*
X166082180Y-91093561D02*
X166034561Y-91188800D01*
X165986942Y-91236419D01*
X165891704Y-91284038D01*
X165605990Y-91284038D01*
X165510752Y-91236419D01*
X165463133Y-91188800D01*
X165415514Y-91093561D01*
X165415514Y-90950704D01*
X165463133Y-90855466D01*
X165510752Y-90807847D01*
X165605990Y-90760228D01*
X165891704Y-90760228D01*
X165986942Y-90807847D01*
X166034561Y-90855466D01*
X166082180Y-90950704D01*
X166082180Y-91093561D01*
X165415514Y-90474514D02*
X165415514Y-90093561D01*
X165082180Y-90331657D02*
X165939323Y-90331657D01*
X166034561Y-90284038D01*
X166082180Y-90188800D01*
X166082180Y-90093561D01*
X124862847Y-82032028D02*
X125624752Y-82032028D01*
X125243800Y-82412980D02*
X125243800Y-81651076D01*
X152066247Y-89321828D02*
X152828152Y-89321828D01*
X152447200Y-89702780D02*
X152447200Y-88940876D01*
X150593047Y-118430228D02*
X151354952Y-118430228D01*
X150974000Y-118811180D02*
X150974000Y-118049276D01*
X163445447Y-109895828D02*
X164207352Y-109895828D01*
X163826400Y-110276780D02*
X163826400Y-109514876D01*
X133067047Y-118404828D02*
X133828952Y-118404828D01*
X133448000Y-118785780D02*
X133448000Y-118023876D01*
X152066247Y-80584228D02*
X152828152Y-80584228D01*
X152447200Y-80965180D02*
X152447200Y-80203276D01*
X154845180Y-108533195D02*
X154845180Y-109104623D01*
X154845180Y-108818909D02*
X153845180Y-108818909D01*
X153988038Y-108914147D01*
X154083276Y-109009385D01*
X154130895Y-109104623D01*
X153892800Y-106818909D02*
X153845180Y-106914147D01*
X153845180Y-107057004D01*
X153892800Y-107199861D01*
X153988038Y-107295100D01*
X154083276Y-107342719D01*
X154273752Y-107390338D01*
X154416609Y-107390338D01*
X154607085Y-107342719D01*
X154702323Y-107295100D01*
X154797561Y-107199861D01*
X154845180Y-107057004D01*
X154845180Y-106961766D01*
X154797561Y-106818909D01*
X154749942Y-106771290D01*
X154416609Y-106771290D01*
X154416609Y-106961766D01*
X154845180Y-106342719D02*
X153845180Y-106342719D01*
X154845180Y-105771290D01*
X153845180Y-105771290D01*
X154845180Y-105295100D02*
X153845180Y-105295100D01*
X153845180Y-105057004D01*
X153892800Y-104914147D01*
X153988038Y-104818909D01*
X154083276Y-104771290D01*
X154273752Y-104723671D01*
X154416609Y-104723671D01*
X154607085Y-104771290D01*
X154702323Y-104818909D01*
X154797561Y-104914147D01*
X154845180Y-105057004D01*
X154845180Y-105295100D01*
X155590419Y-109104623D02*
X155542800Y-109057004D01*
X155495180Y-108961766D01*
X155495180Y-108723671D01*
X155542800Y-108628433D01*
X155590419Y-108580814D01*
X155685657Y-108533195D01*
X155780895Y-108533195D01*
X155923752Y-108580814D01*
X156495180Y-109152242D01*
X156495180Y-108533195D01*
X155495180Y-107437957D02*
X155495180Y-106818909D01*
X155876133Y-107152242D01*
X155876133Y-107009385D01*
X155923752Y-106914147D01*
X155971371Y-106866528D01*
X156066609Y-106818909D01*
X156304704Y-106818909D01*
X156399942Y-106866528D01*
X156447561Y-106914147D01*
X156495180Y-107009385D01*
X156495180Y-107295100D01*
X156447561Y-107390338D01*
X156399942Y-107437957D01*
X156399942Y-106390338D02*
X156447561Y-106342719D01*
X156495180Y-106390338D01*
X156447561Y-106437957D01*
X156399942Y-106390338D01*
X156495180Y-106390338D01*
X155495180Y-106009385D02*
X155495180Y-105390338D01*
X155876133Y-105723671D01*
X155876133Y-105580814D01*
X155923752Y-105485576D01*
X155971371Y-105437957D01*
X156066609Y-105390338D01*
X156304704Y-105390338D01*
X156399942Y-105437957D01*
X156447561Y-105485576D01*
X156495180Y-105580814D01*
X156495180Y-105866528D01*
X156447561Y-105961766D01*
X156399942Y-106009385D01*
X155495180Y-105104623D02*
X156495180Y-104771290D01*
X155495180Y-104437957D01*
X157145180Y-109152242D02*
X157145180Y-108533195D01*
X157526133Y-108866528D01*
X157526133Y-108723671D01*
X157573752Y-108628433D01*
X157621371Y-108580814D01*
X157716609Y-108533195D01*
X157954704Y-108533195D01*
X158049942Y-108580814D01*
X158097561Y-108628433D01*
X158145180Y-108723671D01*
X158145180Y-109009385D01*
X158097561Y-109104623D01*
X158049942Y-109152242D01*
X158145180Y-106771290D02*
X157668990Y-107104623D01*
X158145180Y-107342719D02*
X157145180Y-107342719D01*
X157145180Y-106961766D01*
X157192800Y-106866528D01*
X157240419Y-106818909D01*
X157335657Y-106771290D01*
X157478514Y-106771290D01*
X157573752Y-106818909D01*
X157621371Y-106866528D01*
X157668990Y-106961766D01*
X157668990Y-107342719D01*
X157145180Y-106437957D02*
X158145180Y-105771290D01*
X157145180Y-105771290D02*
X158145180Y-106437957D01*
X159128514Y-108628433D02*
X159795180Y-108628433D01*
X158747561Y-108866528D02*
X159461847Y-109104623D01*
X159461847Y-108485576D01*
X158795180Y-107485576D02*
X158795180Y-106914147D01*
X159795180Y-107199861D02*
X158795180Y-107199861D01*
X158795180Y-106676052D02*
X159795180Y-106009385D01*
X158795180Y-106009385D02*
X159795180Y-106676052D01*
X160445180Y-108580814D02*
X160445180Y-109057004D01*
X160921371Y-109104623D01*
X160873752Y-109057004D01*
X160826133Y-108961766D01*
X160826133Y-108723671D01*
X160873752Y-108628433D01*
X160921371Y-108580814D01*
X161016609Y-108533195D01*
X161254704Y-108533195D01*
X161349942Y-108580814D01*
X161397561Y-108628433D01*
X161445180Y-108723671D01*
X161445180Y-108961766D01*
X161397561Y-109057004D01*
X161349942Y-109104623D01*
X161445180Y-107342719D02*
X160445180Y-107342719D01*
X160445180Y-107104623D01*
X160492800Y-106961766D01*
X160588038Y-106866528D01*
X160683276Y-106818909D01*
X160873752Y-106771290D01*
X161016609Y-106771290D01*
X161207085Y-106818909D01*
X161302323Y-106866528D01*
X161397561Y-106961766D01*
X161445180Y-107104623D01*
X161445180Y-107342719D01*
X160445180Y-106485576D02*
X160445180Y-105914147D01*
X161445180Y-106199861D02*
X160445180Y-106199861D01*
X161445180Y-105009385D02*
X160968990Y-105342719D01*
X161445180Y-105580814D02*
X160445180Y-105580814D01*
X160445180Y-105199861D01*
X160492800Y-105104623D01*
X160540419Y-105057004D01*
X160635657Y-105009385D01*
X160778514Y-105009385D01*
X160873752Y-105057004D01*
X160921371Y-105104623D01*
X160968990Y-105199861D01*
X160968990Y-105580814D01*
X162095180Y-108628433D02*
X162095180Y-108818909D01*
X162142800Y-108914147D01*
X162190419Y-108961766D01*
X162333276Y-109057004D01*
X162523752Y-109104623D01*
X162904704Y-109104623D01*
X162999942Y-109057004D01*
X163047561Y-109009385D01*
X163095180Y-108914147D01*
X163095180Y-108723671D01*
X163047561Y-108628433D01*
X162999942Y-108580814D01*
X162904704Y-108533195D01*
X162666609Y-108533195D01*
X162571371Y-108580814D01*
X162523752Y-108628433D01*
X162476133Y-108723671D01*
X162476133Y-108914147D01*
X162523752Y-109009385D01*
X162571371Y-109057004D01*
X162666609Y-109104623D01*
X163095180Y-106771290D02*
X162618990Y-107104623D01*
X163095180Y-107342719D02*
X162095180Y-107342719D01*
X162095180Y-106961766D01*
X162142800Y-106866528D01*
X162190419Y-106818909D01*
X162285657Y-106771290D01*
X162428514Y-106771290D01*
X162523752Y-106818909D01*
X162571371Y-106866528D01*
X162618990Y-106961766D01*
X162618990Y-107342719D01*
X162095180Y-106485576D02*
X162095180Y-105914147D01*
X163095180Y-106199861D02*
X162095180Y-106199861D01*
X163047561Y-105628433D02*
X163095180Y-105485576D01*
X163095180Y-105247480D01*
X163047561Y-105152242D01*
X162999942Y-105104623D01*
X162904704Y-105057004D01*
X162809466Y-105057004D01*
X162714228Y-105104623D01*
X162666609Y-105152242D01*
X162618990Y-105247480D01*
X162571371Y-105437957D01*
X162523752Y-105533195D01*
X162476133Y-105580814D01*
X162380895Y-105628433D01*
X162285657Y-105628433D01*
X162190419Y-105580814D01*
X162142800Y-105533195D01*
X162095180Y-105437957D01*
X162095180Y-105199861D01*
X162142800Y-105057004D01*
D11*
X154453800Y-94889200D02*
X150897800Y-91333200D01*
X160372000Y-71495800D02*
X162861200Y-69006600D01*
X158898800Y-72969000D02*
X160372000Y-71495800D01*
D10*
X150616761Y-66164742D02*
X150664380Y-66021885D01*
X150664380Y-65783790D01*
X150616761Y-65688552D01*
X150569142Y-65640933D01*
X150473904Y-65593314D01*
X150378666Y-65593314D01*
X150283428Y-65640933D01*
X150235809Y-65688552D01*
X150188190Y-65783790D01*
X150140571Y-65974266D01*
X150092952Y-66069504D01*
X150045333Y-66117123D01*
X149950095Y-66164742D01*
X149854857Y-66164742D01*
X149759619Y-66117123D01*
X149712000Y-66069504D01*
X149664380Y-65974266D01*
X149664380Y-65736171D01*
X149712000Y-65593314D01*
X150616761Y-64783790D02*
X150664380Y-64879028D01*
X150664380Y-65069504D01*
X150616761Y-65164742D01*
X150521523Y-65212361D01*
X150140571Y-65212361D01*
X150045333Y-65164742D01*
X149997714Y-65069504D01*
X149997714Y-64879028D01*
X150045333Y-64783790D01*
X150140571Y-64736171D01*
X150235809Y-64736171D01*
X150331047Y-65212361D01*
X150664380Y-64307600D02*
X149997714Y-64307600D01*
X150188190Y-64307600D02*
X150092952Y-64259980D01*
X150045333Y-64212361D01*
X149997714Y-64117123D01*
X149997714Y-64021885D01*
X149997714Y-63783790D02*
X150664380Y-63545695D01*
X149997714Y-63307600D01*
X150664380Y-62783790D02*
X150616761Y-62879028D01*
X150569142Y-62926647D01*
X150473904Y-62974266D01*
X150188190Y-62974266D01*
X150092952Y-62926647D01*
X150045333Y-62879028D01*
X149997714Y-62783790D01*
X149997714Y-62640933D01*
X150045333Y-62545695D01*
X150092952Y-62498076D01*
X150188190Y-62450457D01*
X150473904Y-62450457D01*
X150569142Y-62498076D01*
X150616761Y-62545695D01*
X150664380Y-62640933D01*
X150664380Y-62783790D01*
X135376761Y-67199733D02*
X135424380Y-67056876D01*
X135424380Y-66818780D01*
X135376761Y-66723542D01*
X135329142Y-66675923D01*
X135233904Y-66628304D01*
X135138666Y-66628304D01*
X135043428Y-66675923D01*
X134995809Y-66723542D01*
X134948190Y-66818780D01*
X134900571Y-67009257D01*
X134852952Y-67104495D01*
X134805333Y-67152114D01*
X134710095Y-67199733D01*
X134614857Y-67199733D01*
X134519619Y-67152114D01*
X134472000Y-67104495D01*
X134424380Y-67009257D01*
X134424380Y-66771161D01*
X134472000Y-66628304D01*
X135376761Y-65818780D02*
X135424380Y-65914019D01*
X135424380Y-66104495D01*
X135376761Y-66199733D01*
X135281523Y-66247352D01*
X134900571Y-66247352D01*
X134805333Y-66199733D01*
X134757714Y-66104495D01*
X134757714Y-65914019D01*
X134805333Y-65818780D01*
X134900571Y-65771161D01*
X134995809Y-65771161D01*
X135091047Y-66247352D01*
X134757714Y-65342590D02*
X135424380Y-65342590D01*
X134852952Y-65342590D02*
X134805333Y-65294971D01*
X134757714Y-65199733D01*
X134757714Y-65056876D01*
X134805333Y-64961638D01*
X134900571Y-64914019D01*
X135424380Y-64914019D01*
X135376761Y-64485447D02*
X135424380Y-64390209D01*
X135424380Y-64199733D01*
X135376761Y-64104495D01*
X135281523Y-64056876D01*
X135233904Y-64056876D01*
X135138666Y-64104495D01*
X135091047Y-64199733D01*
X135091047Y-64342590D01*
X135043428Y-64437828D01*
X134948190Y-64485447D01*
X134900571Y-64485447D01*
X134805333Y-64437828D01*
X134757714Y-64342590D01*
X134757714Y-64199733D01*
X134805333Y-64104495D01*
X135424380Y-63485447D02*
X135376761Y-63580685D01*
X135329142Y-63628304D01*
X135233904Y-63675923D01*
X134948190Y-63675923D01*
X134852952Y-63628304D01*
X134805333Y-63580685D01*
X134757714Y-63485447D01*
X134757714Y-63342590D01*
X134805333Y-63247352D01*
X134852952Y-63199733D01*
X134948190Y-63152114D01*
X135233904Y-63152114D01*
X135329142Y-63199733D01*
X135376761Y-63247352D01*
X135424380Y-63342590D01*
X135424380Y-63485447D01*
X135424380Y-62723542D02*
X134757714Y-62723542D01*
X134948190Y-62723542D02*
X134852952Y-62675923D01*
X134805333Y-62628304D01*
X134757714Y-62533066D01*
X134757714Y-62437828D01*
D11*
X158467000Y-94686000D02*
X158467000Y-95219400D01*
X157324000Y-93543000D02*
X158467000Y-94686000D01*
X158467000Y-104185600D02*
X158467000Y-95219400D01*
X159711600Y-64027800D02*
X159711600Y-64104000D01*
X165833000Y-64027800D02*
X159711600Y-64027800D01*
X165833000Y-69006200D02*
X165833000Y-64027800D01*
X159711600Y-69006200D02*
X165833000Y-69006200D01*
X159711600Y-64053200D02*
X159711600Y-69006200D01*
X150897800Y-76169400D02*
X150897800Y-91333200D01*
X148713400Y-73985000D02*
X150897800Y-76169400D01*
X153590200Y-104185600D02*
X153590200Y-109418000D01*
X163420000Y-104185600D02*
X153590200Y-104185600D01*
X163420000Y-109418000D02*
X163420000Y-104185600D01*
X153590200Y-109418000D02*
X163420000Y-109418000D01*
X157324000Y-94889200D02*
X151609000Y-94889200D01*
X157324000Y-103224658D02*
X157324000Y-94889200D01*
X151614285Y-103224658D02*
X157324000Y-103224658D01*
X151609000Y-94889200D02*
X151614285Y-103224658D01*
D10*
X152646204Y-96283380D02*
X152074776Y-96283380D01*
X152360490Y-96283380D02*
X152360490Y-95283380D01*
X152265252Y-95426238D01*
X152170014Y-95521476D01*
X152074776Y-95569095D01*
X154360490Y-95331000D02*
X154265252Y-95283380D01*
X154122395Y-95283380D01*
X153979538Y-95331000D01*
X153884300Y-95426238D01*
X153836680Y-95521476D01*
X153789061Y-95711952D01*
X153789061Y-95854809D01*
X153836680Y-96045285D01*
X153884300Y-96140523D01*
X153979538Y-96235761D01*
X154122395Y-96283380D01*
X154217633Y-96283380D01*
X154360490Y-96235761D01*
X154408109Y-96188142D01*
X154408109Y-95854809D01*
X154217633Y-95854809D01*
X154836680Y-96283380D02*
X154836680Y-95283380D01*
X155408109Y-96283380D01*
X155408109Y-95283380D01*
X155884300Y-96283380D02*
X155884300Y-95283380D01*
X156122395Y-95283380D01*
X156265252Y-95331000D01*
X156360490Y-95426238D01*
X156408109Y-95521476D01*
X156455728Y-95711952D01*
X156455728Y-95854809D01*
X156408109Y-96045285D01*
X156360490Y-96140523D01*
X156265252Y-96235761D01*
X156122395Y-96283380D01*
X155884300Y-96283380D01*
X152074776Y-97028619D02*
X152122395Y-96981000D01*
X152217633Y-96933380D01*
X152455728Y-96933380D01*
X152550966Y-96981000D01*
X152598585Y-97028619D01*
X152646204Y-97123857D01*
X152646204Y-97219095D01*
X152598585Y-97361952D01*
X152027157Y-97933380D01*
X152646204Y-97933380D01*
X154312871Y-96933380D02*
X153836680Y-96933380D01*
X153789061Y-97409571D01*
X153836680Y-97361952D01*
X153931919Y-97314333D01*
X154170014Y-97314333D01*
X154265252Y-97361952D01*
X154312871Y-97409571D01*
X154360490Y-97504809D01*
X154360490Y-97742904D01*
X154312871Y-97838142D01*
X154265252Y-97885761D01*
X154170014Y-97933380D01*
X153931919Y-97933380D01*
X153836680Y-97885761D01*
X153789061Y-97838142D01*
X154646204Y-96933380D02*
X154979538Y-97933380D01*
X155312871Y-96933380D01*
X152027157Y-98583380D02*
X152646204Y-98583380D01*
X152312871Y-98964333D01*
X152455728Y-98964333D01*
X152550966Y-99011952D01*
X152598585Y-99059571D01*
X152646204Y-99154809D01*
X152646204Y-99392904D01*
X152598585Y-99488142D01*
X152550966Y-99535761D01*
X152455728Y-99583380D01*
X152170014Y-99583380D01*
X152074776Y-99535761D01*
X152027157Y-99488142D01*
X154408109Y-99488142D02*
X154360490Y-99535761D01*
X154217633Y-99583380D01*
X154122395Y-99583380D01*
X153979538Y-99535761D01*
X153884300Y-99440523D01*
X153836680Y-99345285D01*
X153789061Y-99154809D01*
X153789061Y-99011952D01*
X153836680Y-98821476D01*
X153884300Y-98726238D01*
X153979538Y-98631000D01*
X154122395Y-98583380D01*
X154217633Y-98583380D01*
X154360490Y-98631000D01*
X154408109Y-98678619D01*
X155312871Y-99583380D02*
X154836680Y-99583380D01*
X154836680Y-98583380D01*
X155646204Y-99583380D02*
X155646204Y-98583380D01*
X156217633Y-99583380D02*
X155789061Y-99011952D01*
X156217633Y-98583380D02*
X155646204Y-99154809D01*
X152550966Y-100566714D02*
X152550966Y-101233380D01*
X152312871Y-100185761D02*
X152074776Y-100900047D01*
X152693823Y-100900047D01*
X153836680Y-101233380D02*
X153836680Y-100233380D01*
X154074776Y-100233380D01*
X154217633Y-100281000D01*
X154312871Y-100376238D01*
X154360490Y-100471476D01*
X154408109Y-100661952D01*
X154408109Y-100804809D01*
X154360490Y-100995285D01*
X154312871Y-101090523D01*
X154217633Y-101185761D01*
X154074776Y-101233380D01*
X153836680Y-101233380D01*
X154789061Y-100947666D02*
X155265252Y-100947666D01*
X154693823Y-101233380D02*
X155027157Y-100233380D01*
X155360490Y-101233380D01*
X152598585Y-101883380D02*
X152122395Y-101883380D01*
X152074776Y-102359571D01*
X152122395Y-102311952D01*
X152217633Y-102264333D01*
X152455728Y-102264333D01*
X152550966Y-102311952D01*
X152598585Y-102359571D01*
X152646204Y-102454809D01*
X152646204Y-102692904D01*
X152598585Y-102788142D01*
X152550966Y-102835761D01*
X152455728Y-102883380D01*
X152217633Y-102883380D01*
X152122395Y-102835761D01*
X152074776Y-102788142D01*
X153836680Y-102883380D02*
X153836680Y-101883380D01*
X153836680Y-102359571D02*
X154408109Y-102359571D01*
X154408109Y-102883380D02*
X154408109Y-101883380D01*
X155265252Y-102835761D02*
X155170014Y-102883380D01*
X154979538Y-102883380D01*
X154884300Y-102835761D01*
X154836680Y-102740523D01*
X154836680Y-102359571D01*
X154884300Y-102264333D01*
X154979538Y-102216714D01*
X155170014Y-102216714D01*
X155265252Y-102264333D01*
X155312871Y-102359571D01*
X155312871Y-102454809D01*
X154836680Y-102550047D01*
X156170014Y-102883380D02*
X156170014Y-102359571D01*
X156122395Y-102264333D01*
X156027157Y-102216714D01*
X155836680Y-102216714D01*
X155741442Y-102264333D01*
X156170014Y-102835761D02*
X156074776Y-102883380D01*
X155836680Y-102883380D01*
X155741442Y-102835761D01*
X155693823Y-102740523D01*
X155693823Y-102645285D01*
X155741442Y-102550047D01*
X155836680Y-102502428D01*
X156074776Y-102502428D01*
X156170014Y-102454809D01*
X156503347Y-102216714D02*
X156884300Y-102216714D01*
X156646204Y-101883380D02*
X156646204Y-102740523D01*
X156693823Y-102835761D01*
X156789061Y-102883380D01*
X156884300Y-102883380D01*
X151056514Y-73395980D02*
X150485085Y-73395980D01*
X150770800Y-73395980D02*
X150770800Y-72395980D01*
X150675561Y-72538838D01*
X150580323Y-72634076D01*
X150485085Y-72681695D01*
X160672604Y-65344780D02*
X160101176Y-65344780D01*
X160386890Y-65344780D02*
X160386890Y-64344780D01*
X160291652Y-64487638D01*
X160196414Y-64582876D01*
X160101176Y-64630495D01*
X162386890Y-64392400D02*
X162291652Y-64344780D01*
X162148795Y-64344780D01*
X162005938Y-64392400D01*
X161910700Y-64487638D01*
X161863080Y-64582876D01*
X161815461Y-64773352D01*
X161815461Y-64916209D01*
X161863080Y-65106685D01*
X161910700Y-65201923D01*
X162005938Y-65297161D01*
X162148795Y-65344780D01*
X162244033Y-65344780D01*
X162386890Y-65297161D01*
X162434509Y-65249542D01*
X162434509Y-64916209D01*
X162244033Y-64916209D01*
X162863080Y-65344780D02*
X162863080Y-64344780D01*
X163434509Y-65344780D01*
X163434509Y-64344780D01*
X163910700Y-65344780D02*
X163910700Y-64344780D01*
X164148795Y-64344780D01*
X164291652Y-64392400D01*
X164386890Y-64487638D01*
X164434509Y-64582876D01*
X164482128Y-64773352D01*
X164482128Y-64916209D01*
X164434509Y-65106685D01*
X164386890Y-65201923D01*
X164291652Y-65297161D01*
X164148795Y-65344780D01*
X163910700Y-65344780D01*
X160101176Y-66090019D02*
X160148795Y-66042400D01*
X160244033Y-65994780D01*
X160482128Y-65994780D01*
X160577366Y-66042400D01*
X160624985Y-66090019D01*
X160672604Y-66185257D01*
X160672604Y-66280495D01*
X160624985Y-66423352D01*
X160053557Y-66994780D01*
X160672604Y-66994780D01*
X162339271Y-65994780D02*
X161863080Y-65994780D01*
X161815461Y-66470971D01*
X161863080Y-66423352D01*
X161958319Y-66375733D01*
X162196414Y-66375733D01*
X162291652Y-66423352D01*
X162339271Y-66470971D01*
X162386890Y-66566209D01*
X162386890Y-66804304D01*
X162339271Y-66899542D01*
X162291652Y-66947161D01*
X162196414Y-66994780D01*
X161958319Y-66994780D01*
X161863080Y-66947161D01*
X161815461Y-66899542D01*
X162672604Y-65994780D02*
X163005938Y-66994780D01*
X163339271Y-65994780D01*
X160053557Y-67644780D02*
X160672604Y-67644780D01*
X160339271Y-68025733D01*
X160482128Y-68025733D01*
X160577366Y-68073352D01*
X160624985Y-68120971D01*
X160672604Y-68216209D01*
X160672604Y-68454304D01*
X160624985Y-68549542D01*
X160577366Y-68597161D01*
X160482128Y-68644780D01*
X160196414Y-68644780D01*
X160101176Y-68597161D01*
X160053557Y-68549542D01*
X161815461Y-68597161D02*
X161958319Y-68644780D01*
X162196414Y-68644780D01*
X162291652Y-68597161D01*
X162339271Y-68549542D01*
X162386890Y-68454304D01*
X162386890Y-68359066D01*
X162339271Y-68263828D01*
X162291652Y-68216209D01*
X162196414Y-68168590D01*
X162005938Y-68120971D01*
X161910700Y-68073352D01*
X161863080Y-68025733D01*
X161815461Y-67930495D01*
X161815461Y-67835257D01*
X161863080Y-67740019D01*
X161910700Y-67692400D01*
X162005938Y-67644780D01*
X162244033Y-67644780D01*
X162386890Y-67692400D01*
X163196414Y-68597161D02*
X163101176Y-68644780D01*
X162910700Y-68644780D01*
X162815461Y-68597161D01*
X162767842Y-68501923D01*
X162767842Y-68120971D01*
X162815461Y-68025733D01*
X162910700Y-67978114D01*
X163101176Y-67978114D01*
X163196414Y-68025733D01*
X163244033Y-68120971D01*
X163244033Y-68216209D01*
X162767842Y-68311447D01*
X163672604Y-68644780D02*
X163672604Y-67978114D01*
X163672604Y-68168590D02*
X163720223Y-68073352D01*
X163767842Y-68025733D01*
X163863080Y-67978114D01*
X163958319Y-67978114D01*
X164196414Y-67978114D02*
X164434509Y-68644780D01*
X164672604Y-67978114D01*
X165196414Y-68644780D02*
X165101176Y-68597161D01*
X165053557Y-68549542D01*
X165005938Y-68454304D01*
X165005938Y-68168590D01*
X165053557Y-68073352D01*
X165101176Y-68025733D01*
X165196414Y-67978114D01*
X165339271Y-67978114D01*
X165434509Y-68025733D01*
X165482128Y-68073352D01*
X165529747Y-68168590D01*
X165529747Y-68454304D01*
X165482128Y-68549542D01*
X165434509Y-68597161D01*
X165339271Y-68644780D01*
X165196414Y-68644780D01*
X135791114Y-73370580D02*
X135219685Y-73370580D01*
X135505400Y-73370580D02*
X135505400Y-72370580D01*
X135410161Y-72513438D01*
X135314923Y-72608676D01*
X135219685Y-72656295D01*
X155337980Y-91860285D02*
X155337980Y-92431714D01*
X155337980Y-92146000D02*
X154337980Y-92146000D01*
X154480838Y-92241238D01*
X154576076Y-92336476D01*
X154623695Y-92431714D01*
X172752980Y-101532819D02*
X172752980Y-101342342D01*
X172800600Y-101247104D01*
X172895838Y-101151866D01*
X173086314Y-101104247D01*
X173419647Y-101104247D01*
X173610123Y-101151866D01*
X173705361Y-101247104D01*
X173752980Y-101342342D01*
X173752980Y-101532819D01*
X173705361Y-101628057D01*
X173610123Y-101723295D01*
X173419647Y-101770914D01*
X173086314Y-101770914D01*
X172895838Y-101723295D01*
X172800600Y-101628057D01*
X172752980Y-101532819D01*
X173086314Y-100675676D02*
X173752980Y-100675676D01*
X173181552Y-100675676D02*
X173133933Y-100628057D01*
X173086314Y-100532819D01*
X173086314Y-100389961D01*
X173133933Y-100294723D01*
X173229171Y-100247104D01*
X173752980Y-100247104D01*
X172702180Y-115393266D02*
X172702180Y-115202790D01*
X172749800Y-115107552D01*
X172845038Y-115012314D01*
X173035514Y-114964695D01*
X173368847Y-114964695D01*
X173559323Y-115012314D01*
X173654561Y-115107552D01*
X173702180Y-115202790D01*
X173702180Y-115393266D01*
X173654561Y-115488504D01*
X173559323Y-115583742D01*
X173368847Y-115631361D01*
X173035514Y-115631361D01*
X172845038Y-115583742D01*
X172749800Y-115488504D01*
X172702180Y-115393266D01*
X173035514Y-114678980D02*
X173035514Y-114298028D01*
X173702180Y-114536123D02*
X172845038Y-114536123D01*
X172749800Y-114488504D01*
X172702180Y-114393266D01*
X172702180Y-114298028D01*
X173035514Y-114107552D02*
X173035514Y-113726600D01*
X173702180Y-113964695D02*
X172845038Y-113964695D01*
X172749800Y-113917076D01*
X172702180Y-113821838D01*
X172702180Y-113726600D01*
X153852380Y-90616666D02*
X153376190Y-90950000D01*
X153852380Y-91188095D02*
X152852380Y-91188095D01*
X152852380Y-90807142D01*
X152900000Y-90711904D01*
X152947619Y-90664285D01*
X153042857Y-90616666D01*
X153185714Y-90616666D01*
X153280952Y-90664285D01*
X153328571Y-90711904D01*
X153376190Y-90807142D01*
X153376190Y-91188095D01*
X152852380Y-90283333D02*
X153852380Y-89616666D01*
X152852380Y-89616666D02*
X153852380Y-90283333D01*
X152852380Y-80211904D02*
X152852380Y-79640476D01*
X153852380Y-79926190D02*
X152852380Y-79926190D01*
X152852380Y-79402380D02*
X153852380Y-78735714D01*
X152852380Y-78735714D02*
X153852380Y-79402380D01*
X133826009Y-120579780D02*
X134445057Y-120579780D01*
X134111723Y-120960733D01*
X134254580Y-120960733D01*
X134349819Y-121008352D01*
X134397438Y-121055971D01*
X134445057Y-121151209D01*
X134445057Y-121389304D01*
X134397438Y-121484542D01*
X134349819Y-121532161D01*
X134254580Y-121579780D01*
X133968866Y-121579780D01*
X133873628Y-121532161D01*
X133826009Y-121484542D01*
X134873628Y-121484542D02*
X134921247Y-121532161D01*
X134873628Y-121579780D01*
X134826009Y-121532161D01*
X134873628Y-121484542D01*
X134873628Y-121579780D01*
X135254580Y-120579780D02*
X135873628Y-120579780D01*
X135540295Y-120960733D01*
X135683152Y-120960733D01*
X135778390Y-121008352D01*
X135826009Y-121055971D01*
X135873628Y-121151209D01*
X135873628Y-121389304D01*
X135826009Y-121484542D01*
X135778390Y-121532161D01*
X135683152Y-121579780D01*
X135397438Y-121579780D01*
X135302200Y-121532161D01*
X135254580Y-121484542D01*
X136159342Y-120579780D02*
X136492676Y-121579780D01*
X136826009Y-120579780D01*
X147908695Y-120579780D02*
X147908695Y-121389304D01*
X147956314Y-121484542D01*
X148003933Y-121532161D01*
X148099171Y-121579780D01*
X148289647Y-121579780D01*
X148384885Y-121532161D01*
X148432504Y-121484542D01*
X148480123Y-121389304D01*
X148480123Y-120579780D01*
X148908695Y-121532161D02*
X149051552Y-121579780D01*
X149289647Y-121579780D01*
X149384885Y-121532161D01*
X149432504Y-121484542D01*
X149480123Y-121389304D01*
X149480123Y-121294066D01*
X149432504Y-121198828D01*
X149384885Y-121151209D01*
X149289647Y-121103590D01*
X149099171Y-121055971D01*
X149003933Y-121008352D01*
X148956314Y-120960733D01*
X148908695Y-120865495D01*
X148908695Y-120770257D01*
X148956314Y-120675019D01*
X149003933Y-120627400D01*
X149099171Y-120579780D01*
X149337266Y-120579780D01*
X149480123Y-120627400D01*
X150242028Y-121055971D02*
X150384885Y-121103590D01*
X150432504Y-121151209D01*
X150480123Y-121246447D01*
X150480123Y-121389304D01*
X150432504Y-121484542D01*
X150384885Y-121532161D01*
X150289647Y-121579780D01*
X149908695Y-121579780D01*
X149908695Y-120579780D01*
X150242028Y-120579780D01*
X150337266Y-120627400D01*
X150384885Y-120675019D01*
X150432504Y-120770257D01*
X150432504Y-120865495D01*
X150384885Y-120960733D01*
X150337266Y-121008352D01*
X150242028Y-121055971D01*
X149908695Y-121055971D01*
D11*
%TO.C,U2*%
X149155000Y-107770000D02*
X149935000Y-107770000D01*
X149935000Y-107770000D02*
X149935000Y-106770000D01*
X149155000Y-89530000D02*
X149935000Y-89530000D01*
X149935000Y-89530000D02*
X149935000Y-90530000D01*
X124190000Y-107770000D02*
X124190000Y-89530000D01*
X124190000Y-89530000D02*
X130610000Y-89530000D01*
X124190000Y-107770000D02*
X130610000Y-107770000D01*
X130610000Y-107770000D02*
X130610000Y-108150000D01*
%TO.C,D4*%
X129654400Y-72712400D02*
X125354400Y-72712400D01*
X125354400Y-72712400D02*
X125354400Y-80012400D01*
X129654400Y-72712400D02*
X129654400Y-80012400D01*
%TO.C,R12*%
X165485000Y-84253064D02*
X165485000Y-83798936D01*
X164015000Y-84253064D02*
X164015000Y-83798936D01*
%TO.C,C1*%
X152471800Y-111518948D02*
X152471800Y-112041452D01*
X151001800Y-111518948D02*
X151001800Y-112041452D01*
%TO.C,C3*%
X133471800Y-112041452D02*
X133471800Y-111518948D01*
X132001800Y-112041452D02*
X132001800Y-111518948D01*
%TO.C,C5*%
X169351248Y-82835000D02*
X169873752Y-82835000D01*
X169351248Y-84305000D02*
X169873752Y-84305000D01*
%TO.C,C6*%
X169351248Y-99455000D02*
X169873752Y-99455000D01*
X169351248Y-97985000D02*
X169873752Y-97985000D01*
%TO.C,D2*%
X147292200Y-120334800D02*
X150152200Y-120334800D01*
X147292200Y-118414800D02*
X147292200Y-120334800D01*
X150152200Y-118414800D02*
X147292200Y-118414800D01*
%TO.C,D3*%
X137162200Y-118414800D02*
X134302200Y-118414800D01*
X137162200Y-120334800D02*
X137162200Y-118414800D01*
X134302200Y-120334800D02*
X137162200Y-120334800D01*
%TO.C,D1*%
X154527400Y-109985400D02*
X161827400Y-109985400D01*
X154527400Y-114285400D02*
X161827400Y-114285400D01*
X154527400Y-109985400D02*
X154527400Y-114285400D01*
%TO.C,D5*%
X152440000Y-81450000D02*
X152440000Y-84310000D01*
X152440000Y-84310000D02*
X154360000Y-84310000D01*
X154360000Y-84310000D02*
X154360000Y-81450000D01*
%TO.C,D6*%
X154360000Y-88450000D02*
X154360000Y-85590000D01*
X154360000Y-85590000D02*
X152440000Y-85590000D01*
X152440000Y-85590000D02*
X152440000Y-88450000D01*
%TO.C,J1*%
X155150000Y-117650000D02*
X155600000Y-117650000D01*
X155150000Y-119500000D02*
X155150000Y-117650000D01*
X162950000Y-122050000D02*
X162950000Y-121800000D01*
X155150000Y-122050000D02*
X155150000Y-121800000D01*
X162950000Y-119500000D02*
X162950000Y-117650000D01*
X162950000Y-117650000D02*
X162500000Y-117650000D01*
X157350000Y-117100000D02*
X157800000Y-117100000D01*
X157350000Y-117100000D02*
X157350000Y-117550000D01*
%TO.C,J2*%
X151193400Y-71524400D02*
X158933400Y-71524400D01*
X158933400Y-71524400D02*
X158933400Y-68864400D01*
X158933400Y-68864400D02*
X151193400Y-68864400D01*
X151193400Y-68864400D02*
X151193400Y-71524400D01*
X152143400Y-68864400D02*
X152143400Y-62864400D01*
X152143400Y-62864400D02*
X152903400Y-62864400D01*
X152903400Y-62864400D02*
X152903400Y-68864400D01*
X152203400Y-68864400D02*
X152203400Y-62864400D01*
X152323400Y-68864400D02*
X152323400Y-62864400D01*
X152443400Y-68864400D02*
X152443400Y-62864400D01*
X152563400Y-68864400D02*
X152563400Y-62864400D01*
X152683400Y-68864400D02*
X152683400Y-62864400D01*
X152803400Y-68864400D02*
X152803400Y-62864400D01*
X152143400Y-71854400D02*
X152143400Y-71524400D01*
X152903400Y-71854400D02*
X152903400Y-71524400D01*
X153793400Y-71524400D02*
X153793400Y-68864400D01*
X154683400Y-68864400D02*
X154683400Y-62864400D01*
X154683400Y-62864400D02*
X155443400Y-62864400D01*
X155443400Y-62864400D02*
X155443400Y-68864400D01*
X154683400Y-71921471D02*
X154683400Y-71524400D01*
X155443400Y-71921471D02*
X155443400Y-71524400D01*
X156333400Y-71524400D02*
X156333400Y-68864400D01*
X157223400Y-68864400D02*
X157223400Y-62864400D01*
X157223400Y-62864400D02*
X157983400Y-62864400D01*
X157983400Y-62864400D02*
X157983400Y-68864400D01*
X157223400Y-71921471D02*
X157223400Y-71524400D01*
X157983400Y-71921471D02*
X157983400Y-71524400D01*
X152523400Y-74234400D02*
X151253400Y-74234400D01*
X151253400Y-74234400D02*
X151253400Y-72964400D01*
%TO.C,J3*%
X135953400Y-71524400D02*
X148773400Y-71524400D01*
X148773400Y-71524400D02*
X148773400Y-68864400D01*
X148773400Y-68864400D02*
X135953400Y-68864400D01*
X135953400Y-68864400D02*
X135953400Y-71524400D01*
X136903400Y-68864400D02*
X136903400Y-62864400D01*
X136903400Y-62864400D02*
X137663400Y-62864400D01*
X137663400Y-62864400D02*
X137663400Y-68864400D01*
X136963400Y-68864400D02*
X136963400Y-62864400D01*
X137083400Y-68864400D02*
X137083400Y-62864400D01*
X137203400Y-68864400D02*
X137203400Y-62864400D01*
X137323400Y-68864400D02*
X137323400Y-62864400D01*
X137443400Y-68864400D02*
X137443400Y-62864400D01*
X137563400Y-68864400D02*
X137563400Y-62864400D01*
X136903400Y-71854400D02*
X136903400Y-71524400D01*
X137663400Y-71854400D02*
X137663400Y-71524400D01*
X138553400Y-71524400D02*
X138553400Y-68864400D01*
X139443400Y-68864400D02*
X139443400Y-62864400D01*
X139443400Y-62864400D02*
X140203400Y-62864400D01*
X140203400Y-62864400D02*
X140203400Y-68864400D01*
X139443400Y-71921471D02*
X139443400Y-71524400D01*
X140203400Y-71921471D02*
X140203400Y-71524400D01*
X141093400Y-71524400D02*
X141093400Y-68864400D01*
X141983400Y-68864400D02*
X141983400Y-62864400D01*
X141983400Y-62864400D02*
X142743400Y-62864400D01*
X142743400Y-62864400D02*
X142743400Y-68864400D01*
X141983400Y-71921471D02*
X141983400Y-71524400D01*
X142743400Y-71921471D02*
X142743400Y-71524400D01*
X143633400Y-71524400D02*
X143633400Y-68864400D01*
X144523400Y-68864400D02*
X144523400Y-62864400D01*
X144523400Y-62864400D02*
X145283400Y-62864400D01*
X145283400Y-62864400D02*
X145283400Y-68864400D01*
X144523400Y-71921471D02*
X144523400Y-71524400D01*
X145283400Y-71921471D02*
X145283400Y-71524400D01*
X146173400Y-71524400D02*
X146173400Y-68864400D01*
X147063400Y-68864400D02*
X147063400Y-62864400D01*
X147063400Y-62864400D02*
X147823400Y-62864400D01*
X147823400Y-62864400D02*
X147823400Y-68864400D01*
X147063400Y-71921471D02*
X147063400Y-71524400D01*
X147823400Y-71921471D02*
X147823400Y-71524400D01*
X137283400Y-74234400D02*
X136013400Y-74234400D01*
X136013400Y-74234400D02*
X136013400Y-72964400D01*
%TO.C,Q1*%
X133980000Y-80590000D02*
X133050000Y-80590000D01*
X130820000Y-80590000D02*
X131750000Y-80590000D01*
X130820000Y-80590000D02*
X130820000Y-83750000D01*
X133980000Y-80590000D02*
X133980000Y-82050000D01*
%TO.C,Q2*%
X138980000Y-80590000D02*
X138980000Y-82050000D01*
X135820000Y-80590000D02*
X135820000Y-83750000D01*
X135820000Y-80590000D02*
X136750000Y-80590000D01*
X138980000Y-80590000D02*
X138050000Y-80590000D01*
%TO.C,Q3*%
X143980000Y-77340000D02*
X143050000Y-77340000D01*
X140820000Y-77340000D02*
X141750000Y-77340000D01*
X140820000Y-77340000D02*
X140820000Y-80500000D01*
X143980000Y-77340000D02*
X143980000Y-78800000D01*
%TO.C,Q4*%
X163800400Y-80742400D02*
X162340400Y-80742400D01*
X163800400Y-77582400D02*
X160640400Y-77582400D01*
X163800400Y-77582400D02*
X163800400Y-78512400D01*
X163800400Y-80742400D02*
X163800400Y-79812400D01*
%TO.C,Q5*%
X163800400Y-95601400D02*
X163800400Y-94671400D01*
X163800400Y-92441400D02*
X163800400Y-93371400D01*
X163800400Y-92441400D02*
X160640400Y-92441400D01*
X163800400Y-95601400D02*
X162340400Y-95601400D01*
%TO.C,R1*%
X149372264Y-116680800D02*
X148918136Y-116680800D01*
X149372264Y-115210800D02*
X148918136Y-115210800D01*
%TO.C,R2*%
X132172936Y-87085000D02*
X132627064Y-87085000D01*
X132172936Y-85615000D02*
X132627064Y-85615000D01*
%TO.C,R3*%
X137172936Y-85615000D02*
X137627064Y-85615000D01*
X137172936Y-87085000D02*
X137627064Y-87085000D01*
%TO.C,R4*%
X135125936Y-116782400D02*
X135580064Y-116782400D01*
X135125936Y-115312400D02*
X135580064Y-115312400D01*
%TO.C,R6*%
X132627064Y-77085000D02*
X132172936Y-77085000D01*
X132627064Y-75615000D02*
X132172936Y-75615000D01*
%TO.C,R7*%
X137172936Y-77085000D02*
X137627064Y-77085000D01*
X137172936Y-75615000D02*
X137627064Y-75615000D01*
%TO.C,R8*%
X142172936Y-87085000D02*
X142627064Y-87085000D01*
X142172936Y-85615000D02*
X142627064Y-85615000D01*
%TO.C,R9*%
X162235000Y-74253064D02*
X162235000Y-73798936D01*
X160765000Y-74253064D02*
X160765000Y-73798936D01*
%TO.C,R10*%
X162235000Y-89253064D02*
X162235000Y-88798936D01*
X160765000Y-89253064D02*
X160765000Y-88798936D01*
%TO.C,R11*%
X142627064Y-83835000D02*
X142172936Y-83835000D01*
X142627064Y-82365000D02*
X142172936Y-82365000D01*
%TO.C,R13*%
X162235000Y-98798936D02*
X162235000Y-99253064D01*
X160765000Y-98798936D02*
X160765000Y-99253064D01*
%TO.C,R14*%
X147627064Y-79115000D02*
X147172936Y-79115000D01*
X147627064Y-80585000D02*
X147172936Y-80585000D01*
%TO.C,R15*%
X147627064Y-83835000D02*
X147172936Y-83835000D01*
X147627064Y-82365000D02*
X147172936Y-82365000D01*
%TO.C,R16*%
X147172936Y-75865000D02*
X147627064Y-75865000D01*
X147172936Y-77335000D02*
X147627064Y-77335000D01*
%TO.C,R17*%
X147172936Y-85615000D02*
X147627064Y-85615000D01*
X147172936Y-87085000D02*
X147627064Y-87085000D01*
%TO.C,SW2*%
X166437400Y-73937000D02*
X166437400Y-80397000D01*
X170967400Y-73937000D02*
X168367400Y-73937000D01*
X172897400Y-73937000D02*
X172897400Y-80397000D01*
X170967400Y-80397000D02*
X168367400Y-80397000D01*
X172867400Y-73937000D02*
X172897400Y-73937000D01*
X166437400Y-73937000D02*
X166467400Y-73937000D01*
X166437400Y-80397000D02*
X166467400Y-80397000D01*
X172897400Y-80397000D02*
X172867400Y-80397000D01*
%TO.C,SW3*%
X172883600Y-95397680D02*
X172853600Y-95397680D01*
X166423600Y-95397680D02*
X166453600Y-95397680D01*
X166423600Y-88937680D02*
X166453600Y-88937680D01*
X172853600Y-88937680D02*
X172883600Y-88937680D01*
X170953600Y-95397680D02*
X168353600Y-95397680D01*
X172883600Y-88937680D02*
X172883600Y-95397680D01*
X170953600Y-88937680D02*
X168353600Y-88937680D01*
X166423600Y-88937680D02*
X166423600Y-95397680D01*
%TO.C,U1*%
X145646800Y-112395200D02*
X144386800Y-112395200D01*
X138826800Y-112395200D02*
X140086800Y-112395200D01*
X145646800Y-116155200D02*
X145646800Y-112395200D01*
X138826800Y-118405200D02*
X138826800Y-112395200D01*
%TO.C,J4*%
X158630000Y-93236000D02*
X157300000Y-93236000D01*
X158630000Y-91906000D02*
X158630000Y-93236000D01*
X158630000Y-90636000D02*
X155970000Y-90636000D01*
X155970000Y-90636000D02*
X155970000Y-77876000D01*
X158630000Y-90636000D02*
X158630000Y-77876000D01*
X158630000Y-77876000D02*
X155970000Y-77876000D01*
D10*
%TO.C,SW1*%
X168298800Y-112022800D02*
X168298800Y-103422800D01*
X172898800Y-112022800D02*
X172898800Y-109822800D01*
X172898800Y-105722800D02*
X172898800Y-103422800D01*
D11*
%TO.C,R5*%
X164386800Y-104911264D02*
X164386800Y-104457136D01*
X165856800Y-104911264D02*
X165856800Y-104457136D01*
%TO.C,C2*%
X149146800Y-111068948D02*
X149146800Y-112491452D01*
X147326800Y-111068948D02*
X147326800Y-112491452D01*
%TO.C,C4*%
X137146800Y-112491452D02*
X137146800Y-111068948D01*
X135326800Y-112491452D02*
X135326800Y-111068948D01*
%TO.C,U2*%
D10*
X150908980Y-107766904D02*
X151718504Y-107766904D01*
X151813742Y-107719285D01*
X151861361Y-107671666D01*
X151908980Y-107576428D01*
X151908980Y-107385952D01*
X151861361Y-107290714D01*
X151813742Y-107243095D01*
X151718504Y-107195476D01*
X150908980Y-107195476D01*
X151004219Y-106766904D02*
X150956600Y-106719285D01*
X150908980Y-106624047D01*
X150908980Y-106385952D01*
X150956600Y-106290714D01*
X151004219Y-106243095D01*
X151099457Y-106195476D01*
X151194695Y-106195476D01*
X151337552Y-106243095D01*
X151908980Y-106814523D01*
X151908980Y-106195476D01*
%TO.C,D4*%
X126816304Y-72314780D02*
X126816304Y-71314780D01*
X127054400Y-71314780D01*
X127197257Y-71362400D01*
X127292495Y-71457638D01*
X127340114Y-71552876D01*
X127387733Y-71743352D01*
X127387733Y-71886209D01*
X127340114Y-72076685D01*
X127292495Y-72171923D01*
X127197257Y-72267161D01*
X127054400Y-72314780D01*
X126816304Y-72314780D01*
X128244876Y-71648114D02*
X128244876Y-72314780D01*
X128006780Y-71267161D02*
X127768685Y-71981447D01*
X128387733Y-71981447D01*
%TO.C,R12*%
X163645180Y-84669857D02*
X163168990Y-85003190D01*
X163645180Y-85241285D02*
X162645180Y-85241285D01*
X162645180Y-84860333D01*
X162692800Y-84765095D01*
X162740419Y-84717476D01*
X162835657Y-84669857D01*
X162978514Y-84669857D01*
X163073752Y-84717476D01*
X163121371Y-84765095D01*
X163168990Y-84860333D01*
X163168990Y-85241285D01*
X163645180Y-83717476D02*
X163645180Y-84288904D01*
X163645180Y-84003190D02*
X162645180Y-84003190D01*
X162788038Y-84098428D01*
X162883276Y-84193666D01*
X162930895Y-84288904D01*
X162740419Y-83336523D02*
X162692800Y-83288904D01*
X162645180Y-83193666D01*
X162645180Y-82955571D01*
X162692800Y-82860333D01*
X162740419Y-82812714D01*
X162835657Y-82765095D01*
X162930895Y-82765095D01*
X163073752Y-82812714D01*
X163645180Y-83384142D01*
X163645180Y-82765095D01*
%TO.C,C1*%
X153773942Y-111946866D02*
X153821561Y-111994485D01*
X153869180Y-112137342D01*
X153869180Y-112232580D01*
X153821561Y-112375438D01*
X153726323Y-112470676D01*
X153631085Y-112518295D01*
X153440609Y-112565914D01*
X153297752Y-112565914D01*
X153107276Y-112518295D01*
X153012038Y-112470676D01*
X152916800Y-112375438D01*
X152869180Y-112232580D01*
X152869180Y-112137342D01*
X152916800Y-111994485D01*
X152964419Y-111946866D01*
X153869180Y-110994485D02*
X153869180Y-111565914D01*
X153869180Y-111280200D02*
X152869180Y-111280200D01*
X153012038Y-111375438D01*
X153107276Y-111470676D01*
X153154895Y-111565914D01*
%TO.C,C3*%
X131413942Y-111946866D02*
X131461561Y-111994485D01*
X131509180Y-112137342D01*
X131509180Y-112232580D01*
X131461561Y-112375438D01*
X131366323Y-112470676D01*
X131271085Y-112518295D01*
X131080609Y-112565914D01*
X130937752Y-112565914D01*
X130747276Y-112518295D01*
X130652038Y-112470676D01*
X130556800Y-112375438D01*
X130509180Y-112232580D01*
X130509180Y-112137342D01*
X130556800Y-111994485D01*
X130604419Y-111946866D01*
X130509180Y-111613533D02*
X130509180Y-110994485D01*
X130890133Y-111327819D01*
X130890133Y-111184961D01*
X130937752Y-111089723D01*
X130985371Y-111042104D01*
X131080609Y-110994485D01*
X131318704Y-110994485D01*
X131413942Y-111042104D01*
X131461561Y-111089723D01*
X131509180Y-111184961D01*
X131509180Y-111470676D01*
X131461561Y-111565914D01*
X131413942Y-111613533D01*
%TO.C,C5*%
X169433333Y-85627142D02*
X169385714Y-85674761D01*
X169242857Y-85722380D01*
X169147619Y-85722380D01*
X169004761Y-85674761D01*
X168909523Y-85579523D01*
X168861904Y-85484285D01*
X168814285Y-85293809D01*
X168814285Y-85150952D01*
X168861904Y-84960476D01*
X168909523Y-84865238D01*
X169004761Y-84770000D01*
X169147619Y-84722380D01*
X169242857Y-84722380D01*
X169385714Y-84770000D01*
X169433333Y-84817619D01*
X170338095Y-84722380D02*
X169861904Y-84722380D01*
X169814285Y-85198571D01*
X169861904Y-85150952D01*
X169957142Y-85103333D01*
X170195238Y-85103333D01*
X170290476Y-85150952D01*
X170338095Y-85198571D01*
X170385714Y-85293809D01*
X170385714Y-85531904D01*
X170338095Y-85627142D01*
X170290476Y-85674761D01*
X170195238Y-85722380D01*
X169957142Y-85722380D01*
X169861904Y-85674761D01*
X169814285Y-85627142D01*
%TO.C,C6*%
X169452333Y-100779342D02*
X169404714Y-100826961D01*
X169261857Y-100874580D01*
X169166619Y-100874580D01*
X169023761Y-100826961D01*
X168928523Y-100731723D01*
X168880904Y-100636485D01*
X168833285Y-100446009D01*
X168833285Y-100303152D01*
X168880904Y-100112676D01*
X168928523Y-100017438D01*
X169023761Y-99922200D01*
X169166619Y-99874580D01*
X169261857Y-99874580D01*
X169404714Y-99922200D01*
X169452333Y-99969819D01*
X170309476Y-99874580D02*
X170119000Y-99874580D01*
X170023761Y-99922200D01*
X169976142Y-99969819D01*
X169880904Y-100112676D01*
X169833285Y-100303152D01*
X169833285Y-100684104D01*
X169880904Y-100779342D01*
X169928523Y-100826961D01*
X170023761Y-100874580D01*
X170214238Y-100874580D01*
X170309476Y-100826961D01*
X170357095Y-100779342D01*
X170404714Y-100684104D01*
X170404714Y-100446009D01*
X170357095Y-100350771D01*
X170309476Y-100303152D01*
X170214238Y-100255533D01*
X170023761Y-100255533D01*
X169928523Y-100303152D01*
X169880904Y-100350771D01*
X169833285Y-100446009D01*
%TO.C,D2*%
X148414104Y-118177180D02*
X148414104Y-117177180D01*
X148652200Y-117177180D01*
X148795057Y-117224800D01*
X148890295Y-117320038D01*
X148937914Y-117415276D01*
X148985533Y-117605752D01*
X148985533Y-117748609D01*
X148937914Y-117939085D01*
X148890295Y-118034323D01*
X148795057Y-118129561D01*
X148652200Y-118177180D01*
X148414104Y-118177180D01*
X149366485Y-117272419D02*
X149414104Y-117224800D01*
X149509342Y-117177180D01*
X149747438Y-117177180D01*
X149842676Y-117224800D01*
X149890295Y-117272419D01*
X149937914Y-117367657D01*
X149937914Y-117462895D01*
X149890295Y-117605752D01*
X149318866Y-118177180D01*
X149937914Y-118177180D01*
%TO.C,D3*%
X134564104Y-118226980D02*
X134564104Y-117226980D01*
X134802200Y-117226980D01*
X134945057Y-117274600D01*
X135040295Y-117369838D01*
X135087914Y-117465076D01*
X135135533Y-117655552D01*
X135135533Y-117798409D01*
X135087914Y-117988885D01*
X135040295Y-118084123D01*
X134945057Y-118179361D01*
X134802200Y-118226980D01*
X134564104Y-118226980D01*
X135468866Y-117226980D02*
X136087914Y-117226980D01*
X135754580Y-117607933D01*
X135897438Y-117607933D01*
X135992676Y-117655552D01*
X136040295Y-117703171D01*
X136087914Y-117798409D01*
X136087914Y-118036504D01*
X136040295Y-118131742D01*
X135992676Y-118179361D01*
X135897438Y-118226980D01*
X135611723Y-118226980D01*
X135516485Y-118179361D01*
X135468866Y-118131742D01*
%TO.C,D1*%
X165040780Y-112873895D02*
X164040780Y-112873895D01*
X164040780Y-112635800D01*
X164088400Y-112492942D01*
X164183638Y-112397704D01*
X164278876Y-112350085D01*
X164469352Y-112302466D01*
X164612209Y-112302466D01*
X164802685Y-112350085D01*
X164897923Y-112397704D01*
X164993161Y-112492942D01*
X165040780Y-112635800D01*
X165040780Y-112873895D01*
X165040780Y-111350085D02*
X165040780Y-111921514D01*
X165040780Y-111635800D02*
X164040780Y-111635800D01*
X164183638Y-111731038D01*
X164278876Y-111826276D01*
X164326495Y-111921514D01*
%TO.C,D5*%
X152202380Y-83188095D02*
X151202380Y-83188095D01*
X151202380Y-82950000D01*
X151250000Y-82807142D01*
X151345238Y-82711904D01*
X151440476Y-82664285D01*
X151630952Y-82616666D01*
X151773809Y-82616666D01*
X151964285Y-82664285D01*
X152059523Y-82711904D01*
X152154761Y-82807142D01*
X152202380Y-82950000D01*
X152202380Y-83188095D01*
X151202380Y-81711904D02*
X151202380Y-82188095D01*
X151678571Y-82235714D01*
X151630952Y-82188095D01*
X151583333Y-82092857D01*
X151583333Y-81854761D01*
X151630952Y-81759523D01*
X151678571Y-81711904D01*
X151773809Y-81664285D01*
X152011904Y-81664285D01*
X152107142Y-81711904D01*
X152154761Y-81759523D01*
X152202380Y-81854761D01*
X152202380Y-82092857D01*
X152154761Y-82188095D01*
X152107142Y-82235714D01*
%TO.C,D6*%
X152202380Y-88188095D02*
X151202380Y-88188095D01*
X151202380Y-87950000D01*
X151250000Y-87807142D01*
X151345238Y-87711904D01*
X151440476Y-87664285D01*
X151630952Y-87616666D01*
X151773809Y-87616666D01*
X151964285Y-87664285D01*
X152059523Y-87711904D01*
X152154761Y-87807142D01*
X152202380Y-87950000D01*
X152202380Y-88188095D01*
X151202380Y-86759523D02*
X151202380Y-86950000D01*
X151250000Y-87045238D01*
X151297619Y-87092857D01*
X151440476Y-87188095D01*
X151630952Y-87235714D01*
X152011904Y-87235714D01*
X152107142Y-87188095D01*
X152154761Y-87140476D01*
X152202380Y-87045238D01*
X152202380Y-86854761D01*
X152154761Y-86759523D01*
X152107142Y-86711904D01*
X152011904Y-86664285D01*
X151773809Y-86664285D01*
X151678571Y-86711904D01*
X151630952Y-86759523D01*
X151583333Y-86854761D01*
X151583333Y-87045238D01*
X151630952Y-87140476D01*
X151678571Y-87188095D01*
X151773809Y-87235714D01*
%TO.C,H1*%
X127084895Y-118500780D02*
X127084895Y-117500780D01*
X127084895Y-117976971D02*
X127656323Y-117976971D01*
X127656323Y-118500780D02*
X127656323Y-117500780D01*
X128656323Y-118500780D02*
X128084895Y-118500780D01*
X128370609Y-118500780D02*
X128370609Y-117500780D01*
X128275371Y-117643638D01*
X128180133Y-117738876D01*
X128084895Y-117786495D01*
%TO.C,H2*%
X169288095Y-118475380D02*
X169288095Y-117475380D01*
X169288095Y-117951571D02*
X169859523Y-117951571D01*
X169859523Y-118475380D02*
X169859523Y-117475380D01*
X170288095Y-117570619D02*
X170335714Y-117523000D01*
X170430952Y-117475380D01*
X170669047Y-117475380D01*
X170764285Y-117523000D01*
X170811904Y-117570619D01*
X170859523Y-117665857D01*
X170859523Y-117761095D01*
X170811904Y-117903952D01*
X170240476Y-118475380D01*
X170859523Y-118475380D01*
%TO.C,H3*%
X169212695Y-66655180D02*
X169212695Y-65655180D01*
X169212695Y-66131371D02*
X169784123Y-66131371D01*
X169784123Y-66655180D02*
X169784123Y-65655180D01*
X170165076Y-65655180D02*
X170784123Y-65655180D01*
X170450790Y-66036133D01*
X170593647Y-66036133D01*
X170688885Y-66083752D01*
X170736504Y-66131371D01*
X170784123Y-66226609D01*
X170784123Y-66464704D01*
X170736504Y-66559942D01*
X170688885Y-66607561D01*
X170593647Y-66655180D01*
X170307933Y-66655180D01*
X170212695Y-66607561D01*
X170165076Y-66559942D01*
%TO.C,H4*%
X127288095Y-66500780D02*
X127288095Y-65500780D01*
X127288095Y-65976971D02*
X127859523Y-65976971D01*
X127859523Y-66500780D02*
X127859523Y-65500780D01*
X128764285Y-65834114D02*
X128764285Y-66500780D01*
X128526190Y-65453161D02*
X128288095Y-66167447D01*
X128907142Y-66167447D01*
%TO.C,J1*%
X158716666Y-115752380D02*
X158716666Y-116466666D01*
X158669047Y-116609523D01*
X158573809Y-116704761D01*
X158430952Y-116752380D01*
X158335714Y-116752380D01*
X159716666Y-116752380D02*
X159145238Y-116752380D01*
X159430952Y-116752380D02*
X159430952Y-115752380D01*
X159335714Y-115895238D01*
X159240476Y-115990476D01*
X159145238Y-116038095D01*
%TO.C,J2*%
X149689780Y-70508333D02*
X150404066Y-70508333D01*
X150546923Y-70555952D01*
X150642161Y-70651190D01*
X150689780Y-70794047D01*
X150689780Y-70889285D01*
X149785019Y-70079761D02*
X149737400Y-70032142D01*
X149689780Y-69936904D01*
X149689780Y-69698809D01*
X149737400Y-69603571D01*
X149785019Y-69555952D01*
X149880257Y-69508333D01*
X149975495Y-69508333D01*
X150118352Y-69555952D01*
X150689780Y-70127380D01*
X150689780Y-69508333D01*
%TO.C,J3*%
X134449780Y-70482933D02*
X135164066Y-70482933D01*
X135306923Y-70530552D01*
X135402161Y-70625790D01*
X135449780Y-70768647D01*
X135449780Y-70863885D01*
X134449780Y-70101980D02*
X134449780Y-69482933D01*
X134830733Y-69816266D01*
X134830733Y-69673409D01*
X134878352Y-69578171D01*
X134925971Y-69530552D01*
X135021209Y-69482933D01*
X135259304Y-69482933D01*
X135354542Y-69530552D01*
X135402161Y-69578171D01*
X135449780Y-69673409D01*
X135449780Y-69959123D01*
X135402161Y-70054361D01*
X135354542Y-70101980D01*
%TO.C,Q1*%
X132304761Y-85297619D02*
X132209523Y-85250000D01*
X132114285Y-85154761D01*
X131971428Y-85011904D01*
X131876190Y-84964285D01*
X131780952Y-84964285D01*
X131828571Y-85202380D02*
X131733333Y-85154761D01*
X131638095Y-85059523D01*
X131590476Y-84869047D01*
X131590476Y-84535714D01*
X131638095Y-84345238D01*
X131733333Y-84250000D01*
X131828571Y-84202380D01*
X132019047Y-84202380D01*
X132114285Y-84250000D01*
X132209523Y-84345238D01*
X132257142Y-84535714D01*
X132257142Y-84869047D01*
X132209523Y-85059523D01*
X132114285Y-85154761D01*
X132019047Y-85202380D01*
X131828571Y-85202380D01*
X133209523Y-85202380D02*
X132638095Y-85202380D01*
X132923809Y-85202380D02*
X132923809Y-84202380D01*
X132828571Y-84345238D01*
X132733333Y-84440476D01*
X132638095Y-84488095D01*
%TO.C,Q2*%
X137304761Y-85297619D02*
X137209523Y-85250000D01*
X137114285Y-85154761D01*
X136971428Y-85011904D01*
X136876190Y-84964285D01*
X136780952Y-84964285D01*
X136828571Y-85202380D02*
X136733333Y-85154761D01*
X136638095Y-85059523D01*
X136590476Y-84869047D01*
X136590476Y-84535714D01*
X136638095Y-84345238D01*
X136733333Y-84250000D01*
X136828571Y-84202380D01*
X137019047Y-84202380D01*
X137114285Y-84250000D01*
X137209523Y-84345238D01*
X137257142Y-84535714D01*
X137257142Y-84869047D01*
X137209523Y-85059523D01*
X137114285Y-85154761D01*
X137019047Y-85202380D01*
X136828571Y-85202380D01*
X137638095Y-84297619D02*
X137685714Y-84250000D01*
X137780952Y-84202380D01*
X138019047Y-84202380D01*
X138114285Y-84250000D01*
X138161904Y-84297619D01*
X138209523Y-84392857D01*
X138209523Y-84488095D01*
X138161904Y-84630952D01*
X137590476Y-85202380D01*
X138209523Y-85202380D01*
%TO.C,Q3*%
X142304761Y-82097619D02*
X142209523Y-82050000D01*
X142114285Y-81954761D01*
X141971428Y-81811904D01*
X141876190Y-81764285D01*
X141780952Y-81764285D01*
X141828571Y-82002380D02*
X141733333Y-81954761D01*
X141638095Y-81859523D01*
X141590476Y-81669047D01*
X141590476Y-81335714D01*
X141638095Y-81145238D01*
X141733333Y-81050000D01*
X141828571Y-81002380D01*
X142019047Y-81002380D01*
X142114285Y-81050000D01*
X142209523Y-81145238D01*
X142257142Y-81335714D01*
X142257142Y-81669047D01*
X142209523Y-81859523D01*
X142114285Y-81954761D01*
X142019047Y-82002380D01*
X141828571Y-82002380D01*
X142590476Y-81002380D02*
X143209523Y-81002380D01*
X142876190Y-81383333D01*
X143019047Y-81383333D01*
X143114285Y-81430952D01*
X143161904Y-81478571D01*
X143209523Y-81573809D01*
X143209523Y-81811904D01*
X143161904Y-81907142D01*
X143114285Y-81954761D01*
X143019047Y-82002380D01*
X142733333Y-82002380D01*
X142638095Y-81954761D01*
X142590476Y-81907142D01*
%TO.C,Q4*%
X162945161Y-77210019D02*
X162849923Y-77162400D01*
X162754685Y-77067161D01*
X162611828Y-76924304D01*
X162516590Y-76876685D01*
X162421352Y-76876685D01*
X162468971Y-77114780D02*
X162373733Y-77067161D01*
X162278495Y-76971923D01*
X162230876Y-76781447D01*
X162230876Y-76448114D01*
X162278495Y-76257638D01*
X162373733Y-76162400D01*
X162468971Y-76114780D01*
X162659447Y-76114780D01*
X162754685Y-76162400D01*
X162849923Y-76257638D01*
X162897542Y-76448114D01*
X162897542Y-76781447D01*
X162849923Y-76971923D01*
X162754685Y-77067161D01*
X162659447Y-77114780D01*
X162468971Y-77114780D01*
X163754685Y-76448114D02*
X163754685Y-77114780D01*
X163516590Y-76067161D02*
X163278495Y-76781447D01*
X163897542Y-76781447D01*
%TO.C,Q5*%
X162945161Y-92069019D02*
X162849923Y-92021400D01*
X162754685Y-91926161D01*
X162611828Y-91783304D01*
X162516590Y-91735685D01*
X162421352Y-91735685D01*
X162468971Y-91973780D02*
X162373733Y-91926161D01*
X162278495Y-91830923D01*
X162230876Y-91640447D01*
X162230876Y-91307114D01*
X162278495Y-91116638D01*
X162373733Y-91021400D01*
X162468971Y-90973780D01*
X162659447Y-90973780D01*
X162754685Y-91021400D01*
X162849923Y-91116638D01*
X162897542Y-91307114D01*
X162897542Y-91640447D01*
X162849923Y-91830923D01*
X162754685Y-91926161D01*
X162659447Y-91973780D01*
X162468971Y-91973780D01*
X163802304Y-90973780D02*
X163326114Y-90973780D01*
X163278495Y-91449971D01*
X163326114Y-91402352D01*
X163421352Y-91354733D01*
X163659447Y-91354733D01*
X163754685Y-91402352D01*
X163802304Y-91449971D01*
X163849923Y-91545209D01*
X163849923Y-91783304D01*
X163802304Y-91878542D01*
X163754685Y-91926161D01*
X163659447Y-91973780D01*
X163421352Y-91973780D01*
X163326114Y-91926161D01*
X163278495Y-91878542D01*
%TO.C,R1*%
X148978533Y-114798180D02*
X148645200Y-114321990D01*
X148407104Y-114798180D02*
X148407104Y-113798180D01*
X148788057Y-113798180D01*
X148883295Y-113845800D01*
X148930914Y-113893419D01*
X148978533Y-113988657D01*
X148978533Y-114131514D01*
X148930914Y-114226752D01*
X148883295Y-114274371D01*
X148788057Y-114321990D01*
X148407104Y-114321990D01*
X149930914Y-114798180D02*
X149359485Y-114798180D01*
X149645200Y-114798180D02*
X149645200Y-113798180D01*
X149549961Y-113941038D01*
X149454723Y-114036276D01*
X149359485Y-114083895D01*
%TO.C,R2*%
X132233333Y-88452380D02*
X131900000Y-87976190D01*
X131661904Y-88452380D02*
X131661904Y-87452380D01*
X132042857Y-87452380D01*
X132138095Y-87500000D01*
X132185714Y-87547619D01*
X132233333Y-87642857D01*
X132233333Y-87785714D01*
X132185714Y-87880952D01*
X132138095Y-87928571D01*
X132042857Y-87976190D01*
X131661904Y-87976190D01*
X132614285Y-87547619D02*
X132661904Y-87500000D01*
X132757142Y-87452380D01*
X132995238Y-87452380D01*
X133090476Y-87500000D01*
X133138095Y-87547619D01*
X133185714Y-87642857D01*
X133185714Y-87738095D01*
X133138095Y-87880952D01*
X132566666Y-88452380D01*
X133185714Y-88452380D01*
%TO.C,R3*%
X137233333Y-88452380D02*
X136900000Y-87976190D01*
X136661904Y-88452380D02*
X136661904Y-87452380D01*
X137042857Y-87452380D01*
X137138095Y-87500000D01*
X137185714Y-87547619D01*
X137233333Y-87642857D01*
X137233333Y-87785714D01*
X137185714Y-87880952D01*
X137138095Y-87928571D01*
X137042857Y-87976190D01*
X136661904Y-87976190D01*
X137566666Y-87452380D02*
X138185714Y-87452380D01*
X137852380Y-87833333D01*
X137995238Y-87833333D01*
X138090476Y-87880952D01*
X138138095Y-87928571D01*
X138185714Y-88023809D01*
X138185714Y-88261904D01*
X138138095Y-88357142D01*
X138090476Y-88404761D01*
X137995238Y-88452380D01*
X137709523Y-88452380D01*
X137614285Y-88404761D01*
X137566666Y-88357142D01*
%TO.C,R4*%
X135186333Y-114924980D02*
X134853000Y-114448790D01*
X134614904Y-114924980D02*
X134614904Y-113924980D01*
X134995857Y-113924980D01*
X135091095Y-113972600D01*
X135138714Y-114020219D01*
X135186333Y-114115457D01*
X135186333Y-114258314D01*
X135138714Y-114353552D01*
X135091095Y-114401171D01*
X134995857Y-114448790D01*
X134614904Y-114448790D01*
X136043476Y-114258314D02*
X136043476Y-114924980D01*
X135805380Y-113877361D02*
X135567285Y-114591647D01*
X136186333Y-114591647D01*
%TO.C,R6*%
X132233333Y-78452380D02*
X131900000Y-77976190D01*
X131661904Y-78452380D02*
X131661904Y-77452380D01*
X132042857Y-77452380D01*
X132138095Y-77500000D01*
X132185714Y-77547619D01*
X132233333Y-77642857D01*
X132233333Y-77785714D01*
X132185714Y-77880952D01*
X132138095Y-77928571D01*
X132042857Y-77976190D01*
X131661904Y-77976190D01*
X133090476Y-77452380D02*
X132900000Y-77452380D01*
X132804761Y-77500000D01*
X132757142Y-77547619D01*
X132661904Y-77690476D01*
X132614285Y-77880952D01*
X132614285Y-78261904D01*
X132661904Y-78357142D01*
X132709523Y-78404761D01*
X132804761Y-78452380D01*
X132995238Y-78452380D01*
X133090476Y-78404761D01*
X133138095Y-78357142D01*
X133185714Y-78261904D01*
X133185714Y-78023809D01*
X133138095Y-77928571D01*
X133090476Y-77880952D01*
X132995238Y-77833333D01*
X132804761Y-77833333D01*
X132709523Y-77880952D01*
X132661904Y-77928571D01*
X132614285Y-78023809D01*
%TO.C,R7*%
X137233333Y-78452380D02*
X136900000Y-77976190D01*
X136661904Y-78452380D02*
X136661904Y-77452380D01*
X137042857Y-77452380D01*
X137138095Y-77500000D01*
X137185714Y-77547619D01*
X137233333Y-77642857D01*
X137233333Y-77785714D01*
X137185714Y-77880952D01*
X137138095Y-77928571D01*
X137042857Y-77976190D01*
X136661904Y-77976190D01*
X137566666Y-77452380D02*
X138233333Y-77452380D01*
X137804761Y-78452380D01*
%TO.C,R8*%
X142233333Y-88452380D02*
X141900000Y-87976190D01*
X141661904Y-88452380D02*
X141661904Y-87452380D01*
X142042857Y-87452380D01*
X142138095Y-87500000D01*
X142185714Y-87547619D01*
X142233333Y-87642857D01*
X142233333Y-87785714D01*
X142185714Y-87880952D01*
X142138095Y-87928571D01*
X142042857Y-87976190D01*
X141661904Y-87976190D01*
X142804761Y-87880952D02*
X142709523Y-87833333D01*
X142661904Y-87785714D01*
X142614285Y-87690476D01*
X142614285Y-87642857D01*
X142661904Y-87547619D01*
X142709523Y-87500000D01*
X142804761Y-87452380D01*
X142995238Y-87452380D01*
X143090476Y-87500000D01*
X143138095Y-87547619D01*
X143185714Y-87642857D01*
X143185714Y-87690476D01*
X143138095Y-87785714D01*
X143090476Y-87833333D01*
X142995238Y-87880952D01*
X142804761Y-87880952D01*
X142709523Y-87928571D01*
X142661904Y-87976190D01*
X142614285Y-88071428D01*
X142614285Y-88261904D01*
X142661904Y-88357142D01*
X142709523Y-88404761D01*
X142804761Y-88452380D01*
X142995238Y-88452380D01*
X143090476Y-88404761D01*
X143138095Y-88357142D01*
X143185714Y-88261904D01*
X143185714Y-88071428D01*
X143138095Y-87976190D01*
X143090476Y-87928571D01*
X142995238Y-87880952D01*
%TO.C,R9*%
X160302380Y-74192666D02*
X159826190Y-74526000D01*
X160302380Y-74764095D02*
X159302380Y-74764095D01*
X159302380Y-74383142D01*
X159350000Y-74287904D01*
X159397619Y-74240285D01*
X159492857Y-74192666D01*
X159635714Y-74192666D01*
X159730952Y-74240285D01*
X159778571Y-74287904D01*
X159826190Y-74383142D01*
X159826190Y-74764095D01*
X160302380Y-73716476D02*
X160302380Y-73526000D01*
X160254761Y-73430761D01*
X160207142Y-73383142D01*
X160064285Y-73287904D01*
X159873809Y-73240285D01*
X159492857Y-73240285D01*
X159397619Y-73287904D01*
X159350000Y-73335523D01*
X159302380Y-73430761D01*
X159302380Y-73621238D01*
X159350000Y-73716476D01*
X159397619Y-73764095D01*
X159492857Y-73811714D01*
X159730952Y-73811714D01*
X159826190Y-73764095D01*
X159873809Y-73716476D01*
X159921428Y-73621238D01*
X159921428Y-73430761D01*
X159873809Y-73335523D01*
X159826190Y-73287904D01*
X159730952Y-73240285D01*
%TO.C,R10*%
X160302380Y-89668857D02*
X159826190Y-90002190D01*
X160302380Y-90240285D02*
X159302380Y-90240285D01*
X159302380Y-89859333D01*
X159350000Y-89764095D01*
X159397619Y-89716476D01*
X159492857Y-89668857D01*
X159635714Y-89668857D01*
X159730952Y-89716476D01*
X159778571Y-89764095D01*
X159826190Y-89859333D01*
X159826190Y-90240285D01*
X160302380Y-88716476D02*
X160302380Y-89287904D01*
X160302380Y-89002190D02*
X159302380Y-89002190D01*
X159445238Y-89097428D01*
X159540476Y-89192666D01*
X159588095Y-89287904D01*
X159302380Y-88097428D02*
X159302380Y-88002190D01*
X159350000Y-87906952D01*
X159397619Y-87859333D01*
X159492857Y-87811714D01*
X159683333Y-87764095D01*
X159921428Y-87764095D01*
X160111904Y-87811714D01*
X160207142Y-87859333D01*
X160254761Y-87906952D01*
X160302380Y-88002190D01*
X160302380Y-88097428D01*
X160254761Y-88192666D01*
X160207142Y-88240285D01*
X160111904Y-88287904D01*
X159921428Y-88335523D01*
X159683333Y-88335523D01*
X159492857Y-88287904D01*
X159397619Y-88240285D01*
X159350000Y-88192666D01*
X159302380Y-88097428D01*
%TO.C,R11*%
X141757142Y-85202380D02*
X141423809Y-84726190D01*
X141185714Y-85202380D02*
X141185714Y-84202380D01*
X141566666Y-84202380D01*
X141661904Y-84250000D01*
X141709523Y-84297619D01*
X141757142Y-84392857D01*
X141757142Y-84535714D01*
X141709523Y-84630952D01*
X141661904Y-84678571D01*
X141566666Y-84726190D01*
X141185714Y-84726190D01*
X142709523Y-85202380D02*
X142138095Y-85202380D01*
X142423809Y-85202380D02*
X142423809Y-84202380D01*
X142328571Y-84345238D01*
X142233333Y-84440476D01*
X142138095Y-84488095D01*
X143661904Y-85202380D02*
X143090476Y-85202380D01*
X143376190Y-85202380D02*
X143376190Y-84202380D01*
X143280952Y-84345238D01*
X143185714Y-84440476D01*
X143090476Y-84488095D01*
%TO.C,R13*%
X160393980Y-99668857D02*
X159917790Y-100002190D01*
X160393980Y-100240285D02*
X159393980Y-100240285D01*
X159393980Y-99859333D01*
X159441600Y-99764095D01*
X159489219Y-99716476D01*
X159584457Y-99668857D01*
X159727314Y-99668857D01*
X159822552Y-99716476D01*
X159870171Y-99764095D01*
X159917790Y-99859333D01*
X159917790Y-100240285D01*
X160393980Y-98716476D02*
X160393980Y-99287904D01*
X160393980Y-99002190D02*
X159393980Y-99002190D01*
X159536838Y-99097428D01*
X159632076Y-99192666D01*
X159679695Y-99287904D01*
X159393980Y-98383142D02*
X159393980Y-97764095D01*
X159774933Y-98097428D01*
X159774933Y-97954571D01*
X159822552Y-97859333D01*
X159870171Y-97811714D01*
X159965409Y-97764095D01*
X160203504Y-97764095D01*
X160298742Y-97811714D01*
X160346361Y-97859333D01*
X160393980Y-97954571D01*
X160393980Y-98240285D01*
X160346361Y-98335523D01*
X160298742Y-98383142D01*
%TO.C,R14*%
X146757142Y-81952380D02*
X146423809Y-81476190D01*
X146185714Y-81952380D02*
X146185714Y-80952380D01*
X146566666Y-80952380D01*
X146661904Y-81000000D01*
X146709523Y-81047619D01*
X146757142Y-81142857D01*
X146757142Y-81285714D01*
X146709523Y-81380952D01*
X146661904Y-81428571D01*
X146566666Y-81476190D01*
X146185714Y-81476190D01*
X147709523Y-81952380D02*
X147138095Y-81952380D01*
X147423809Y-81952380D02*
X147423809Y-80952380D01*
X147328571Y-81095238D01*
X147233333Y-81190476D01*
X147138095Y-81238095D01*
X148566666Y-81285714D02*
X148566666Y-81952380D01*
X148328571Y-80904761D02*
X148090476Y-81619047D01*
X148709523Y-81619047D01*
%TO.C,R15*%
X146757142Y-85202380D02*
X146423809Y-84726190D01*
X146185714Y-85202380D02*
X146185714Y-84202380D01*
X146566666Y-84202380D01*
X146661904Y-84250000D01*
X146709523Y-84297619D01*
X146757142Y-84392857D01*
X146757142Y-84535714D01*
X146709523Y-84630952D01*
X146661904Y-84678571D01*
X146566666Y-84726190D01*
X146185714Y-84726190D01*
X147709523Y-85202380D02*
X147138095Y-85202380D01*
X147423809Y-85202380D02*
X147423809Y-84202380D01*
X147328571Y-84345238D01*
X147233333Y-84440476D01*
X147138095Y-84488095D01*
X148614285Y-84202380D02*
X148138095Y-84202380D01*
X148090476Y-84678571D01*
X148138095Y-84630952D01*
X148233333Y-84583333D01*
X148471428Y-84583333D01*
X148566666Y-84630952D01*
X148614285Y-84678571D01*
X148661904Y-84773809D01*
X148661904Y-85011904D01*
X148614285Y-85107142D01*
X148566666Y-85154761D01*
X148471428Y-85202380D01*
X148233333Y-85202380D01*
X148138095Y-85154761D01*
X148090476Y-85107142D01*
%TO.C,R16*%
X146757142Y-78752380D02*
X146423809Y-78276190D01*
X146185714Y-78752380D02*
X146185714Y-77752380D01*
X146566666Y-77752380D01*
X146661904Y-77800000D01*
X146709523Y-77847619D01*
X146757142Y-77942857D01*
X146757142Y-78085714D01*
X146709523Y-78180952D01*
X146661904Y-78228571D01*
X146566666Y-78276190D01*
X146185714Y-78276190D01*
X147709523Y-78752380D02*
X147138095Y-78752380D01*
X147423809Y-78752380D02*
X147423809Y-77752380D01*
X147328571Y-77895238D01*
X147233333Y-77990476D01*
X147138095Y-78038095D01*
X148566666Y-77752380D02*
X148376190Y-77752380D01*
X148280952Y-77800000D01*
X148233333Y-77847619D01*
X148138095Y-77990476D01*
X148090476Y-78180952D01*
X148090476Y-78561904D01*
X148138095Y-78657142D01*
X148185714Y-78704761D01*
X148280952Y-78752380D01*
X148471428Y-78752380D01*
X148566666Y-78704761D01*
X148614285Y-78657142D01*
X148661904Y-78561904D01*
X148661904Y-78323809D01*
X148614285Y-78228571D01*
X148566666Y-78180952D01*
X148471428Y-78133333D01*
X148280952Y-78133333D01*
X148185714Y-78180952D01*
X148138095Y-78228571D01*
X148090476Y-78323809D01*
%TO.C,R17*%
X146757142Y-88502380D02*
X146423809Y-88026190D01*
X146185714Y-88502380D02*
X146185714Y-87502380D01*
X146566666Y-87502380D01*
X146661904Y-87550000D01*
X146709523Y-87597619D01*
X146757142Y-87692857D01*
X146757142Y-87835714D01*
X146709523Y-87930952D01*
X146661904Y-87978571D01*
X146566666Y-88026190D01*
X146185714Y-88026190D01*
X147709523Y-88502380D02*
X147138095Y-88502380D01*
X147423809Y-88502380D02*
X147423809Y-87502380D01*
X147328571Y-87645238D01*
X147233333Y-87740476D01*
X147138095Y-87788095D01*
X148042857Y-87502380D02*
X148709523Y-87502380D01*
X148280952Y-88502380D01*
%TO.C,SW2*%
X168366666Y-71924761D02*
X168509523Y-71972380D01*
X168747619Y-71972380D01*
X168842857Y-71924761D01*
X168890476Y-71877142D01*
X168938095Y-71781904D01*
X168938095Y-71686666D01*
X168890476Y-71591428D01*
X168842857Y-71543809D01*
X168747619Y-71496190D01*
X168557142Y-71448571D01*
X168461904Y-71400952D01*
X168414285Y-71353333D01*
X168366666Y-71258095D01*
X168366666Y-71162857D01*
X168414285Y-71067619D01*
X168461904Y-71020000D01*
X168557142Y-70972380D01*
X168795238Y-70972380D01*
X168938095Y-71020000D01*
X169271428Y-70972380D02*
X169509523Y-71972380D01*
X169700000Y-71258095D01*
X169890476Y-71972380D01*
X170128571Y-70972380D01*
X170461904Y-71067619D02*
X170509523Y-71020000D01*
X170604761Y-70972380D01*
X170842857Y-70972380D01*
X170938095Y-71020000D01*
X170985714Y-71067619D01*
X171033333Y-71162857D01*
X171033333Y-71258095D01*
X170985714Y-71400952D01*
X170414285Y-71972380D01*
X171033333Y-71972380D01*
%TO.C,SW3*%
X168316666Y-86924761D02*
X168459523Y-86972380D01*
X168697619Y-86972380D01*
X168792857Y-86924761D01*
X168840476Y-86877142D01*
X168888095Y-86781904D01*
X168888095Y-86686666D01*
X168840476Y-86591428D01*
X168792857Y-86543809D01*
X168697619Y-86496190D01*
X168507142Y-86448571D01*
X168411904Y-86400952D01*
X168364285Y-86353333D01*
X168316666Y-86258095D01*
X168316666Y-86162857D01*
X168364285Y-86067619D01*
X168411904Y-86020000D01*
X168507142Y-85972380D01*
X168745238Y-85972380D01*
X168888095Y-86020000D01*
X169221428Y-85972380D02*
X169459523Y-86972380D01*
X169650000Y-86258095D01*
X169840476Y-86972380D01*
X170078571Y-85972380D01*
X170364285Y-85972380D02*
X170983333Y-85972380D01*
X170650000Y-86353333D01*
X170792857Y-86353333D01*
X170888095Y-86400952D01*
X170935714Y-86448571D01*
X170983333Y-86543809D01*
X170983333Y-86781904D01*
X170935714Y-86877142D01*
X170888095Y-86924761D01*
X170792857Y-86972380D01*
X170507142Y-86972380D01*
X170411904Y-86924761D01*
X170364285Y-86877142D01*
%TO.C,U1*%
X141457095Y-118902980D02*
X141457095Y-119712504D01*
X141504714Y-119807742D01*
X141552333Y-119855361D01*
X141647571Y-119902980D01*
X141838047Y-119902980D01*
X141933285Y-119855361D01*
X141980904Y-119807742D01*
X142028523Y-119712504D01*
X142028523Y-118902980D01*
X143028523Y-119902980D02*
X142457095Y-119902980D01*
X142742809Y-119902980D02*
X142742809Y-118902980D01*
X142647571Y-119045838D01*
X142552333Y-119141076D01*
X142457095Y-119188695D01*
%TO.C,J4*%
X156889066Y-76256780D02*
X156889066Y-76971066D01*
X156841447Y-77113923D01*
X156746209Y-77209161D01*
X156603352Y-77256780D01*
X156508114Y-77256780D01*
X157793828Y-76590114D02*
X157793828Y-77256780D01*
X157555733Y-76209161D02*
X157317638Y-76923447D01*
X157936685Y-76923447D01*
%TO.C,SW1*%
X167403561Y-109656133D02*
X167451180Y-109513276D01*
X167451180Y-109275180D01*
X167403561Y-109179942D01*
X167355942Y-109132323D01*
X167260704Y-109084704D01*
X167165466Y-109084704D01*
X167070228Y-109132323D01*
X167022609Y-109179942D01*
X166974990Y-109275180D01*
X166927371Y-109465657D01*
X166879752Y-109560895D01*
X166832133Y-109608514D01*
X166736895Y-109656133D01*
X166641657Y-109656133D01*
X166546419Y-109608514D01*
X166498800Y-109560895D01*
X166451180Y-109465657D01*
X166451180Y-109227561D01*
X166498800Y-109084704D01*
X166451180Y-108751371D02*
X167451180Y-108513276D01*
X166736895Y-108322800D01*
X167451180Y-108132323D01*
X166451180Y-107894228D01*
X167451180Y-106989466D02*
X167451180Y-107560895D01*
X167451180Y-107275180D02*
X166451180Y-107275180D01*
X166594038Y-107370419D01*
X166689276Y-107465657D01*
X166736895Y-107560895D01*
%TO.C,R5*%
X163924180Y-104850866D02*
X163447990Y-105184200D01*
X163924180Y-105422295D02*
X162924180Y-105422295D01*
X162924180Y-105041342D01*
X162971800Y-104946104D01*
X163019419Y-104898485D01*
X163114657Y-104850866D01*
X163257514Y-104850866D01*
X163352752Y-104898485D01*
X163400371Y-104946104D01*
X163447990Y-105041342D01*
X163447990Y-105422295D01*
X162924180Y-103946104D02*
X162924180Y-104422295D01*
X163400371Y-104469914D01*
X163352752Y-104422295D01*
X163305133Y-104327057D01*
X163305133Y-104088961D01*
X163352752Y-103993723D01*
X163400371Y-103946104D01*
X163495609Y-103898485D01*
X163733704Y-103898485D01*
X163828942Y-103946104D01*
X163876561Y-103993723D01*
X163924180Y-104088961D01*
X163924180Y-104327057D01*
X163876561Y-104422295D01*
X163828942Y-104469914D01*
%TO.C,C2*%
X150443942Y-111946866D02*
X150491561Y-111994485D01*
X150539180Y-112137342D01*
X150539180Y-112232580D01*
X150491561Y-112375438D01*
X150396323Y-112470676D01*
X150301085Y-112518295D01*
X150110609Y-112565914D01*
X149967752Y-112565914D01*
X149777276Y-112518295D01*
X149682038Y-112470676D01*
X149586800Y-112375438D01*
X149539180Y-112232580D01*
X149539180Y-112137342D01*
X149586800Y-111994485D01*
X149634419Y-111946866D01*
X149634419Y-111565914D02*
X149586800Y-111518295D01*
X149539180Y-111423057D01*
X149539180Y-111184961D01*
X149586800Y-111089723D01*
X149634419Y-111042104D01*
X149729657Y-110994485D01*
X149824895Y-110994485D01*
X149967752Y-111042104D01*
X150539180Y-111613533D01*
X150539180Y-110994485D01*
%TO.C,C4*%
X134743942Y-111946866D02*
X134791561Y-111994485D01*
X134839180Y-112137342D01*
X134839180Y-112232580D01*
X134791561Y-112375438D01*
X134696323Y-112470676D01*
X134601085Y-112518295D01*
X134410609Y-112565914D01*
X134267752Y-112565914D01*
X134077276Y-112518295D01*
X133982038Y-112470676D01*
X133886800Y-112375438D01*
X133839180Y-112232580D01*
X133839180Y-112137342D01*
X133886800Y-111994485D01*
X133934419Y-111946866D01*
X134172514Y-111089723D02*
X134839180Y-111089723D01*
X133791561Y-111327819D02*
X134505847Y-111565914D01*
X134505847Y-110946866D01*
%TD*%
M02*
