M48
; DRILL file {KiCad (5.1.10-1-10_14)} date Thursday, June 24, 2021 at 02:46:12 PM
; FORMAT={-:-/ absolute / metric / decimal}
; #@! TF.CreationDate,2021-06-24T14:46:12+02:00
; #@! TF.GenerationSoftware,Kicad,Pcbnew,(5.1.10-1-10_14)
; #@! TF.FileFunction,Plated,1,2,PTH
FMAT,2
METRIC
T1C0.400
T2C0.500
T3C0.600
T4C0.850
T5C0.900
T6C1.000
T7C1.500
T8C3.200
%
G90
G05
T1
X136.445Y-92.502
X137.766Y-119.375
X138.15Y-88.568
X138.35Y-84.653
X139.937Y-119.26
X141.4Y-84.702
X143.23Y-104.9
X143.4Y-84.759
X144.014Y-77.846
X146.605Y-119.375
X160.022Y-100.026
X170.65Y-88.193
X170.659Y-96.134
X170.665Y-73.192
T2
X131.45Y-84.695
X131.8Y-104.747
X131.822Y-92.502
X134.486Y-110.743
X136.45Y-84.699
X137.283Y-97.658
X137.309Y-99.588
X137.334Y-101.646
X138.223Y-98.572
X138.223Y-100.604
X139.214Y-99.588
X139.239Y-97.658
X139.265Y-101.671
X140.382Y-98.572
X140.382Y-100.604
X141.322Y-97.683
X141.322Y-99.614
X141.322Y-101.671
X146.4Y-78.123
X146.4Y-87.877
X146.402Y-92.502
X147.394Y-104.365
X149.962Y-112.818
X164.75Y-89.343
X167.027Y-103.703
X170.65Y-81.131
T4
X156.55Y-117.95
X161.55Y-117.95
T5
X170.599Y-105.723
X170.599Y-107.723
X170.599Y-109.723
T6
X137.283Y-72.964
X139.823Y-72.964
X142.363Y-72.964
X144.903Y-72.964
X147.443Y-72.964
X152.523Y-72.964
X155.063Y-72.964
X157.3Y-79.206
X157.3Y-81.746
X157.3Y-84.286
X157.3Y-86.826
X157.3Y-89.366
X157.3Y-91.906
X157.603Y-72.964
T7
X170.599Y-103.623
X170.599Y-111.823
T8
X128.05Y-66.15
X128.05Y-118.15
X170.05Y-66.15
X170.05Y-118.15
T3
X155.55Y-121.0G85X155.55Y-120.3
G05
X162.55Y-120.3G85X162.55Y-121.0
G05
T0
M30
