%TF.GenerationSoftware,KiCad,Pcbnew,(5.1.10-1-10_14)*%
%TF.CreationDate,2021-06-24T14:46:10+02:00*%
%TF.ProjectId,RespiratorIF,52657370-6972-4617-946f-7249462e6b69,0.7*%
%TF.SameCoordinates,Original*%
%TF.FileFunction,Soldermask,Top*%
%TF.FilePolarity,Negative*%
%FSLAX46Y46*%
G04 Gerber Fmt 4.6, Leading zero omitted, Abs format (unit mm)*
G04 Created by KiCad (PCBNEW (5.1.10-1-10_14)) date 2021-06-24 14:46:10*
%MOMM*%
%LPD*%
G01*
G04 APERTURE LIST*
%ADD10R,5.000000X5.000000*%
%ADD11R,0.900000X2.000000*%
%ADD12R,2.000000X0.900000*%
%ADD13R,2.300000X3.500000*%
%ADD14R,3.500000X2.300000*%
%ADD15C,5.500000*%
%ADD16R,1.500000X1.900000*%
%ADD17C,1.450000*%
%ADD18R,0.400000X1.350000*%
%ADD19O,1.200000X1.900000*%
%ADD20R,1.200000X1.900000*%
%ADD21R,1.700000X1.700000*%
%ADD22O,1.700000X1.700000*%
%ADD23R,0.800000X1.900000*%
%ADD24R,1.900000X0.800000*%
%ADD25R,1.300000X1.550000*%
%ADD26R,3.800000X2.000000*%
%ADD27R,1.500000X2.000000*%
%ADD28R,2.500000X1.500000*%
%ADD29O,2.500000X1.500000*%
%ADD30O,3.500000X2.200000*%
G04 APERTURE END LIST*
D10*
%TO.C,U2*%
X139300000Y-99650000D03*
D11*
X131800000Y-107150000D03*
X133070000Y-107150000D03*
X134340000Y-107150000D03*
X135610000Y-107150000D03*
X136880000Y-107150000D03*
X138150000Y-107150000D03*
X139420000Y-107150000D03*
X140690000Y-107150000D03*
X141960000Y-107150000D03*
X143230000Y-107150000D03*
X144500000Y-107150000D03*
X145770000Y-107150000D03*
X147040000Y-107150000D03*
X148310000Y-107150000D03*
D12*
X149310000Y-104365000D03*
X149310000Y-103095000D03*
X149310000Y-101825000D03*
X149310000Y-100555000D03*
X149310000Y-99285000D03*
X149310000Y-98015000D03*
X149310000Y-96745000D03*
X149310000Y-95475000D03*
X149310000Y-94205000D03*
X149310000Y-92935000D03*
D11*
X148310000Y-90150000D03*
X147040000Y-90150000D03*
X145770000Y-90150000D03*
X144500000Y-90150000D03*
X143230000Y-90150000D03*
X141960000Y-90150000D03*
X140690000Y-90150000D03*
X139420000Y-90150000D03*
X138150000Y-90150000D03*
X136880000Y-90150000D03*
X135610000Y-90150000D03*
X134340000Y-90150000D03*
X133070000Y-90150000D03*
X131800000Y-90150000D03*
%TD*%
D13*
%TO.C,D4*%
X127504400Y-74612400D03*
X127504400Y-80012400D03*
%TD*%
%TO.C,R12*%
G36*
G01*
X165200001Y-83626000D02*
X164299999Y-83626000D01*
G75*
G02*
X164050000Y-83376001I0J249999D01*
G01*
X164050000Y-82675999D01*
G75*
G02*
X164299999Y-82426000I249999J0D01*
G01*
X165200001Y-82426000D01*
G75*
G02*
X165450000Y-82675999I0J-249999D01*
G01*
X165450000Y-83376001D01*
G75*
G02*
X165200001Y-83626000I-249999J0D01*
G01*
G37*
G36*
G01*
X165200001Y-85626000D02*
X164299999Y-85626000D01*
G75*
G02*
X164050000Y-85376001I0J249999D01*
G01*
X164050000Y-84675999D01*
G75*
G02*
X164299999Y-84426000I249999J0D01*
G01*
X165200001Y-84426000D01*
G75*
G02*
X165450000Y-84675999I0J-249999D01*
G01*
X165450000Y-85376001D01*
G75*
G02*
X165200001Y-85626000I-249999J0D01*
G01*
G37*
%TD*%
%TO.C,C1*%
G36*
G01*
X151261800Y-110155200D02*
X152211800Y-110155200D01*
G75*
G02*
X152461800Y-110405200I0J-250000D01*
G01*
X152461800Y-111080200D01*
G75*
G02*
X152211800Y-111330200I-250000J0D01*
G01*
X151261800Y-111330200D01*
G75*
G02*
X151011800Y-111080200I0J250000D01*
G01*
X151011800Y-110405200D01*
G75*
G02*
X151261800Y-110155200I250000J0D01*
G01*
G37*
G36*
G01*
X151261800Y-112230200D02*
X152211800Y-112230200D01*
G75*
G02*
X152461800Y-112480200I0J-250000D01*
G01*
X152461800Y-113155200D01*
G75*
G02*
X152211800Y-113405200I-250000J0D01*
G01*
X151261800Y-113405200D01*
G75*
G02*
X151011800Y-113155200I0J250000D01*
G01*
X151011800Y-112480200D01*
G75*
G02*
X151261800Y-112230200I250000J0D01*
G01*
G37*
%TD*%
%TO.C,C3*%
G36*
G01*
X133211800Y-111330200D02*
X132261800Y-111330200D01*
G75*
G02*
X132011800Y-111080200I0J250000D01*
G01*
X132011800Y-110405200D01*
G75*
G02*
X132261800Y-110155200I250000J0D01*
G01*
X133211800Y-110155200D01*
G75*
G02*
X133461800Y-110405200I0J-250000D01*
G01*
X133461800Y-111080200D01*
G75*
G02*
X133211800Y-111330200I-250000J0D01*
G01*
G37*
G36*
G01*
X133211800Y-113405200D02*
X132261800Y-113405200D01*
G75*
G02*
X132011800Y-113155200I0J250000D01*
G01*
X132011800Y-112480200D01*
G75*
G02*
X132261800Y-112230200I250000J0D01*
G01*
X133211800Y-112230200D01*
G75*
G02*
X133461800Y-112480200I0J-250000D01*
G01*
X133461800Y-113155200D01*
G75*
G02*
X133211800Y-113405200I-250000J0D01*
G01*
G37*
%TD*%
%TO.C,C5*%
G36*
G01*
X167987500Y-84045000D02*
X167987500Y-83095000D01*
G75*
G02*
X168237500Y-82845000I250000J0D01*
G01*
X168912500Y-82845000D01*
G75*
G02*
X169162500Y-83095000I0J-250000D01*
G01*
X169162500Y-84045000D01*
G75*
G02*
X168912500Y-84295000I-250000J0D01*
G01*
X168237500Y-84295000D01*
G75*
G02*
X167987500Y-84045000I0J250000D01*
G01*
G37*
G36*
G01*
X170062500Y-84045000D02*
X170062500Y-83095000D01*
G75*
G02*
X170312500Y-82845000I250000J0D01*
G01*
X170987500Y-82845000D01*
G75*
G02*
X171237500Y-83095000I0J-250000D01*
G01*
X171237500Y-84045000D01*
G75*
G02*
X170987500Y-84295000I-250000J0D01*
G01*
X170312500Y-84295000D01*
G75*
G02*
X170062500Y-84045000I0J250000D01*
G01*
G37*
%TD*%
%TO.C,C6*%
G36*
G01*
X170062500Y-99195000D02*
X170062500Y-98245000D01*
G75*
G02*
X170312500Y-97995000I250000J0D01*
G01*
X170987500Y-97995000D01*
G75*
G02*
X171237500Y-98245000I0J-250000D01*
G01*
X171237500Y-99195000D01*
G75*
G02*
X170987500Y-99445000I-250000J0D01*
G01*
X170312500Y-99445000D01*
G75*
G02*
X170062500Y-99195000I0J250000D01*
G01*
G37*
G36*
G01*
X167987500Y-99195000D02*
X167987500Y-98245000D01*
G75*
G02*
X168237500Y-97995000I250000J0D01*
G01*
X168912500Y-97995000D01*
G75*
G02*
X169162500Y-98245000I0J-250000D01*
G01*
X169162500Y-99195000D01*
G75*
G02*
X168912500Y-99445000I-250000J0D01*
G01*
X168237500Y-99445000D01*
G75*
G02*
X167987500Y-99195000I0J250000D01*
G01*
G37*
%TD*%
%TO.C,D2*%
G36*
G01*
X149602200Y-119824801D02*
X149602200Y-118924799D01*
G75*
G02*
X149852199Y-118674800I249999J0D01*
G01*
X150502201Y-118674800D01*
G75*
G02*
X150752200Y-118924799I0J-249999D01*
G01*
X150752200Y-119824801D01*
G75*
G02*
X150502201Y-120074800I-249999J0D01*
G01*
X149852199Y-120074800D01*
G75*
G02*
X149602200Y-119824801I0J249999D01*
G01*
G37*
G36*
G01*
X147552200Y-119824801D02*
X147552200Y-118924799D01*
G75*
G02*
X147802199Y-118674800I249999J0D01*
G01*
X148452201Y-118674800D01*
G75*
G02*
X148702200Y-118924799I0J-249999D01*
G01*
X148702200Y-119824801D01*
G75*
G02*
X148452201Y-120074800I-249999J0D01*
G01*
X147802199Y-120074800D01*
G75*
G02*
X147552200Y-119824801I0J249999D01*
G01*
G37*
%TD*%
%TO.C,D3*%
G36*
G01*
X134852200Y-118924799D02*
X134852200Y-119824801D01*
G75*
G02*
X134602201Y-120074800I-249999J0D01*
G01*
X133952199Y-120074800D01*
G75*
G02*
X133702200Y-119824801I0J249999D01*
G01*
X133702200Y-118924799D01*
G75*
G02*
X133952199Y-118674800I249999J0D01*
G01*
X134602201Y-118674800D01*
G75*
G02*
X134852200Y-118924799I0J-249999D01*
G01*
G37*
G36*
G01*
X136902200Y-118924799D02*
X136902200Y-119824801D01*
G75*
G02*
X136652201Y-120074800I-249999J0D01*
G01*
X136002199Y-120074800D01*
G75*
G02*
X135752200Y-119824801I0J249999D01*
G01*
X135752200Y-118924799D01*
G75*
G02*
X136002199Y-118674800I249999J0D01*
G01*
X136652201Y-118674800D01*
G75*
G02*
X136902200Y-118924799I0J-249999D01*
G01*
G37*
%TD*%
D14*
%TO.C,D1*%
X161827400Y-112135400D03*
X156427400Y-112135400D03*
%TD*%
%TO.C,D5*%
G36*
G01*
X153850001Y-84050000D02*
X152949999Y-84050000D01*
G75*
G02*
X152700000Y-83800001I0J249999D01*
G01*
X152700000Y-83149999D01*
G75*
G02*
X152949999Y-82900000I249999J0D01*
G01*
X153850001Y-82900000D01*
G75*
G02*
X154100000Y-83149999I0J-249999D01*
G01*
X154100000Y-83800001D01*
G75*
G02*
X153850001Y-84050000I-249999J0D01*
G01*
G37*
G36*
G01*
X153850001Y-82000000D02*
X152949999Y-82000000D01*
G75*
G02*
X152700000Y-81750001I0J249999D01*
G01*
X152700000Y-81099999D01*
G75*
G02*
X152949999Y-80850000I249999J0D01*
G01*
X153850001Y-80850000D01*
G75*
G02*
X154100000Y-81099999I0J-249999D01*
G01*
X154100000Y-81750001D01*
G75*
G02*
X153850001Y-82000000I-249999J0D01*
G01*
G37*
%TD*%
%TO.C,D6*%
G36*
G01*
X152949999Y-85850000D02*
X153850001Y-85850000D01*
G75*
G02*
X154100000Y-86099999I0J-249999D01*
G01*
X154100000Y-86750001D01*
G75*
G02*
X153850001Y-87000000I-249999J0D01*
G01*
X152949999Y-87000000D01*
G75*
G02*
X152700000Y-86750001I0J249999D01*
G01*
X152700000Y-86099999D01*
G75*
G02*
X152949999Y-85850000I249999J0D01*
G01*
G37*
G36*
G01*
X152949999Y-87900000D02*
X153850001Y-87900000D01*
G75*
G02*
X154100000Y-88149999I0J-249999D01*
G01*
X154100000Y-88800001D01*
G75*
G02*
X153850001Y-89050000I-249999J0D01*
G01*
X152949999Y-89050000D01*
G75*
G02*
X152700000Y-88800001I0J249999D01*
G01*
X152700000Y-88149999D01*
G75*
G02*
X152949999Y-87900000I249999J0D01*
G01*
G37*
%TD*%
D15*
%TO.C,H1*%
X128050000Y-118150000D03*
%TD*%
%TO.C,H2*%
X170050000Y-118150000D03*
%TD*%
%TO.C,H3*%
X170050000Y-66150000D03*
%TD*%
%TO.C,H4*%
X128050000Y-66150000D03*
%TD*%
D16*
%TO.C,J1*%
X160050000Y-120650000D03*
D17*
X156550000Y-117950000D03*
D18*
X158400000Y-117950000D03*
X157750000Y-117950000D03*
X160350000Y-117950000D03*
X159700000Y-117950000D03*
X159050000Y-117950000D03*
D17*
X161550000Y-117950000D03*
D16*
X158050000Y-120650000D03*
D19*
X155550000Y-120650000D03*
X162550000Y-120650000D03*
D20*
X161950000Y-120650000D03*
X156150000Y-120650000D03*
%TD*%
D21*
%TO.C,J2*%
X152523400Y-72964400D03*
D22*
X155063400Y-72964400D03*
X157603400Y-72964400D03*
%TD*%
D21*
%TO.C,J3*%
X137283400Y-72964400D03*
D22*
X139823400Y-72964400D03*
X142363400Y-72964400D03*
X144903400Y-72964400D03*
X147443400Y-72964400D03*
%TD*%
D23*
%TO.C,Q1*%
X131450000Y-82850000D03*
X133350000Y-82850000D03*
X132400000Y-79850000D03*
%TD*%
%TO.C,Q2*%
X137400000Y-79850000D03*
X138350000Y-82850000D03*
X136450000Y-82850000D03*
%TD*%
%TO.C,Q3*%
X141450000Y-79600000D03*
X143350000Y-79600000D03*
X142400000Y-76600000D03*
%TD*%
D24*
%TO.C,Q4*%
X164540400Y-79162400D03*
X161540400Y-80112400D03*
X161540400Y-78212400D03*
%TD*%
%TO.C,Q5*%
X161540400Y-93071400D03*
X161540400Y-94971400D03*
X164540400Y-94021400D03*
%TD*%
%TO.C,R1*%
G36*
G01*
X150745200Y-115495799D02*
X150745200Y-116395801D01*
G75*
G02*
X150495201Y-116645800I-249999J0D01*
G01*
X149795199Y-116645800D01*
G75*
G02*
X149545200Y-116395801I0J249999D01*
G01*
X149545200Y-115495799D01*
G75*
G02*
X149795199Y-115245800I249999J0D01*
G01*
X150495201Y-115245800D01*
G75*
G02*
X150745200Y-115495799I0J-249999D01*
G01*
G37*
G36*
G01*
X148745200Y-115495799D02*
X148745200Y-116395801D01*
G75*
G02*
X148495201Y-116645800I-249999J0D01*
G01*
X147795199Y-116645800D01*
G75*
G02*
X147545200Y-116395801I0J249999D01*
G01*
X147545200Y-115495799D01*
G75*
G02*
X147795199Y-115245800I249999J0D01*
G01*
X148495201Y-115245800D01*
G75*
G02*
X148745200Y-115495799I0J-249999D01*
G01*
G37*
%TD*%
%TO.C,R2*%
G36*
G01*
X132800000Y-86800001D02*
X132800000Y-85899999D01*
G75*
G02*
X133049999Y-85650000I249999J0D01*
G01*
X133750001Y-85650000D01*
G75*
G02*
X134000000Y-85899999I0J-249999D01*
G01*
X134000000Y-86800001D01*
G75*
G02*
X133750001Y-87050000I-249999J0D01*
G01*
X133049999Y-87050000D01*
G75*
G02*
X132800000Y-86800001I0J249999D01*
G01*
G37*
G36*
G01*
X130800000Y-86800001D02*
X130800000Y-85899999D01*
G75*
G02*
X131049999Y-85650000I249999J0D01*
G01*
X131750001Y-85650000D01*
G75*
G02*
X132000000Y-85899999I0J-249999D01*
G01*
X132000000Y-86800001D01*
G75*
G02*
X131750001Y-87050000I-249999J0D01*
G01*
X131049999Y-87050000D01*
G75*
G02*
X130800000Y-86800001I0J249999D01*
G01*
G37*
%TD*%
%TO.C,R3*%
G36*
G01*
X135800000Y-86800001D02*
X135800000Y-85899999D01*
G75*
G02*
X136049999Y-85650000I249999J0D01*
G01*
X136750001Y-85650000D01*
G75*
G02*
X137000000Y-85899999I0J-249999D01*
G01*
X137000000Y-86800001D01*
G75*
G02*
X136750001Y-87050000I-249999J0D01*
G01*
X136049999Y-87050000D01*
G75*
G02*
X135800000Y-86800001I0J249999D01*
G01*
G37*
G36*
G01*
X137800000Y-86800001D02*
X137800000Y-85899999D01*
G75*
G02*
X138049999Y-85650000I249999J0D01*
G01*
X138750001Y-85650000D01*
G75*
G02*
X139000000Y-85899999I0J-249999D01*
G01*
X139000000Y-86800001D01*
G75*
G02*
X138750001Y-87050000I-249999J0D01*
G01*
X138049999Y-87050000D01*
G75*
G02*
X137800000Y-86800001I0J249999D01*
G01*
G37*
%TD*%
%TO.C,R4*%
G36*
G01*
X135753000Y-116497401D02*
X135753000Y-115597399D01*
G75*
G02*
X136002999Y-115347400I249999J0D01*
G01*
X136703001Y-115347400D01*
G75*
G02*
X136953000Y-115597399I0J-249999D01*
G01*
X136953000Y-116497401D01*
G75*
G02*
X136703001Y-116747400I-249999J0D01*
G01*
X136002999Y-116747400D01*
G75*
G02*
X135753000Y-116497401I0J249999D01*
G01*
G37*
G36*
G01*
X133753000Y-116497401D02*
X133753000Y-115597399D01*
G75*
G02*
X134002999Y-115347400I249999J0D01*
G01*
X134703001Y-115347400D01*
G75*
G02*
X134953000Y-115597399I0J-249999D01*
G01*
X134953000Y-116497401D01*
G75*
G02*
X134703001Y-116747400I-249999J0D01*
G01*
X134002999Y-116747400D01*
G75*
G02*
X133753000Y-116497401I0J249999D01*
G01*
G37*
%TD*%
%TO.C,R6*%
G36*
G01*
X134000000Y-75899999D02*
X134000000Y-76800001D01*
G75*
G02*
X133750001Y-77050000I-249999J0D01*
G01*
X133049999Y-77050000D01*
G75*
G02*
X132800000Y-76800001I0J249999D01*
G01*
X132800000Y-75899999D01*
G75*
G02*
X133049999Y-75650000I249999J0D01*
G01*
X133750001Y-75650000D01*
G75*
G02*
X134000000Y-75899999I0J-249999D01*
G01*
G37*
G36*
G01*
X132000000Y-75899999D02*
X132000000Y-76800001D01*
G75*
G02*
X131750001Y-77050000I-249999J0D01*
G01*
X131049999Y-77050000D01*
G75*
G02*
X130800000Y-76800001I0J249999D01*
G01*
X130800000Y-75899999D01*
G75*
G02*
X131049999Y-75650000I249999J0D01*
G01*
X131750001Y-75650000D01*
G75*
G02*
X132000000Y-75899999I0J-249999D01*
G01*
G37*
%TD*%
%TO.C,R7*%
G36*
G01*
X137800000Y-76800001D02*
X137800000Y-75899999D01*
G75*
G02*
X138049999Y-75650000I249999J0D01*
G01*
X138750001Y-75650000D01*
G75*
G02*
X139000000Y-75899999I0J-249999D01*
G01*
X139000000Y-76800001D01*
G75*
G02*
X138750001Y-77050000I-249999J0D01*
G01*
X138049999Y-77050000D01*
G75*
G02*
X137800000Y-76800001I0J249999D01*
G01*
G37*
G36*
G01*
X135800000Y-76800001D02*
X135800000Y-75899999D01*
G75*
G02*
X136049999Y-75650000I249999J0D01*
G01*
X136750001Y-75650000D01*
G75*
G02*
X137000000Y-75899999I0J-249999D01*
G01*
X137000000Y-76800001D01*
G75*
G02*
X136750001Y-77050000I-249999J0D01*
G01*
X136049999Y-77050000D01*
G75*
G02*
X135800000Y-76800001I0J249999D01*
G01*
G37*
%TD*%
%TO.C,R8*%
G36*
G01*
X142800000Y-86800001D02*
X142800000Y-85899999D01*
G75*
G02*
X143049999Y-85650000I249999J0D01*
G01*
X143750001Y-85650000D01*
G75*
G02*
X144000000Y-85899999I0J-249999D01*
G01*
X144000000Y-86800001D01*
G75*
G02*
X143750001Y-87050000I-249999J0D01*
G01*
X143049999Y-87050000D01*
G75*
G02*
X142800000Y-86800001I0J249999D01*
G01*
G37*
G36*
G01*
X140800000Y-86800001D02*
X140800000Y-85899999D01*
G75*
G02*
X141049999Y-85650000I249999J0D01*
G01*
X141750001Y-85650000D01*
G75*
G02*
X142000000Y-85899999I0J-249999D01*
G01*
X142000000Y-86800001D01*
G75*
G02*
X141750001Y-87050000I-249999J0D01*
G01*
X141049999Y-87050000D01*
G75*
G02*
X140800000Y-86800001I0J249999D01*
G01*
G37*
%TD*%
%TO.C,R9*%
G36*
G01*
X161950001Y-73626000D02*
X161049999Y-73626000D01*
G75*
G02*
X160800000Y-73376001I0J249999D01*
G01*
X160800000Y-72675999D01*
G75*
G02*
X161049999Y-72426000I249999J0D01*
G01*
X161950001Y-72426000D01*
G75*
G02*
X162200000Y-72675999I0J-249999D01*
G01*
X162200000Y-73376001D01*
G75*
G02*
X161950001Y-73626000I-249999J0D01*
G01*
G37*
G36*
G01*
X161950001Y-75626000D02*
X161049999Y-75626000D01*
G75*
G02*
X160800000Y-75376001I0J249999D01*
G01*
X160800000Y-74675999D01*
G75*
G02*
X161049999Y-74426000I249999J0D01*
G01*
X161950001Y-74426000D01*
G75*
G02*
X162200000Y-74675999I0J-249999D01*
G01*
X162200000Y-75376001D01*
G75*
G02*
X161950001Y-75626000I-249999J0D01*
G01*
G37*
%TD*%
%TO.C,R10*%
G36*
G01*
X161950001Y-88626000D02*
X161049999Y-88626000D01*
G75*
G02*
X160800000Y-88376001I0J249999D01*
G01*
X160800000Y-87675999D01*
G75*
G02*
X161049999Y-87426000I249999J0D01*
G01*
X161950001Y-87426000D01*
G75*
G02*
X162200000Y-87675999I0J-249999D01*
G01*
X162200000Y-88376001D01*
G75*
G02*
X161950001Y-88626000I-249999J0D01*
G01*
G37*
G36*
G01*
X161950001Y-90626000D02*
X161049999Y-90626000D01*
G75*
G02*
X160800000Y-90376001I0J249999D01*
G01*
X160800000Y-89675999D01*
G75*
G02*
X161049999Y-89426000I249999J0D01*
G01*
X161950001Y-89426000D01*
G75*
G02*
X162200000Y-89675999I0J-249999D01*
G01*
X162200000Y-90376001D01*
G75*
G02*
X161950001Y-90626000I-249999J0D01*
G01*
G37*
%TD*%
%TO.C,R11*%
G36*
G01*
X144000000Y-82649999D02*
X144000000Y-83550001D01*
G75*
G02*
X143750001Y-83800000I-249999J0D01*
G01*
X143049999Y-83800000D01*
G75*
G02*
X142800000Y-83550001I0J249999D01*
G01*
X142800000Y-82649999D01*
G75*
G02*
X143049999Y-82400000I249999J0D01*
G01*
X143750001Y-82400000D01*
G75*
G02*
X144000000Y-82649999I0J-249999D01*
G01*
G37*
G36*
G01*
X142000000Y-82649999D02*
X142000000Y-83550001D01*
G75*
G02*
X141750001Y-83800000I-249999J0D01*
G01*
X141049999Y-83800000D01*
G75*
G02*
X140800000Y-83550001I0J249999D01*
G01*
X140800000Y-82649999D01*
G75*
G02*
X141049999Y-82400000I249999J0D01*
G01*
X141750001Y-82400000D01*
G75*
G02*
X142000000Y-82649999I0J-249999D01*
G01*
G37*
%TD*%
%TO.C,R13*%
G36*
G01*
X161049999Y-97426000D02*
X161950001Y-97426000D01*
G75*
G02*
X162200000Y-97675999I0J-249999D01*
G01*
X162200000Y-98376001D01*
G75*
G02*
X161950001Y-98626000I-249999J0D01*
G01*
X161049999Y-98626000D01*
G75*
G02*
X160800000Y-98376001I0J249999D01*
G01*
X160800000Y-97675999D01*
G75*
G02*
X161049999Y-97426000I249999J0D01*
G01*
G37*
G36*
G01*
X161049999Y-99426000D02*
X161950001Y-99426000D01*
G75*
G02*
X162200000Y-99675999I0J-249999D01*
G01*
X162200000Y-100376001D01*
G75*
G02*
X161950001Y-100626000I-249999J0D01*
G01*
X161049999Y-100626000D01*
G75*
G02*
X160800000Y-100376001I0J249999D01*
G01*
X160800000Y-99675999D01*
G75*
G02*
X161049999Y-99426000I249999J0D01*
G01*
G37*
%TD*%
%TO.C,R14*%
G36*
G01*
X147000000Y-79399999D02*
X147000000Y-80300001D01*
G75*
G02*
X146750001Y-80550000I-249999J0D01*
G01*
X146049999Y-80550000D01*
G75*
G02*
X145800000Y-80300001I0J249999D01*
G01*
X145800000Y-79399999D01*
G75*
G02*
X146049999Y-79150000I249999J0D01*
G01*
X146750001Y-79150000D01*
G75*
G02*
X147000000Y-79399999I0J-249999D01*
G01*
G37*
G36*
G01*
X149000000Y-79399999D02*
X149000000Y-80300001D01*
G75*
G02*
X148750001Y-80550000I-249999J0D01*
G01*
X148049999Y-80550000D01*
G75*
G02*
X147800000Y-80300001I0J249999D01*
G01*
X147800000Y-79399999D01*
G75*
G02*
X148049999Y-79150000I249999J0D01*
G01*
X148750001Y-79150000D01*
G75*
G02*
X149000000Y-79399999I0J-249999D01*
G01*
G37*
%TD*%
%TO.C,R15*%
G36*
G01*
X149000000Y-82649999D02*
X149000000Y-83550001D01*
G75*
G02*
X148750001Y-83800000I-249999J0D01*
G01*
X148049999Y-83800000D01*
G75*
G02*
X147800000Y-83550001I0J249999D01*
G01*
X147800000Y-82649999D01*
G75*
G02*
X148049999Y-82400000I249999J0D01*
G01*
X148750001Y-82400000D01*
G75*
G02*
X149000000Y-82649999I0J-249999D01*
G01*
G37*
G36*
G01*
X147000000Y-82649999D02*
X147000000Y-83550001D01*
G75*
G02*
X146750001Y-83800000I-249999J0D01*
G01*
X146049999Y-83800000D01*
G75*
G02*
X145800000Y-83550001I0J249999D01*
G01*
X145800000Y-82649999D01*
G75*
G02*
X146049999Y-82400000I249999J0D01*
G01*
X146750001Y-82400000D01*
G75*
G02*
X147000000Y-82649999I0J-249999D01*
G01*
G37*
%TD*%
%TO.C,R16*%
G36*
G01*
X145800000Y-77050001D02*
X145800000Y-76149999D01*
G75*
G02*
X146049999Y-75900000I249999J0D01*
G01*
X146750001Y-75900000D01*
G75*
G02*
X147000000Y-76149999I0J-249999D01*
G01*
X147000000Y-77050001D01*
G75*
G02*
X146750001Y-77300000I-249999J0D01*
G01*
X146049999Y-77300000D01*
G75*
G02*
X145800000Y-77050001I0J249999D01*
G01*
G37*
G36*
G01*
X147800000Y-77050001D02*
X147800000Y-76149999D01*
G75*
G02*
X148049999Y-75900000I249999J0D01*
G01*
X148750001Y-75900000D01*
G75*
G02*
X149000000Y-76149999I0J-249999D01*
G01*
X149000000Y-77050001D01*
G75*
G02*
X148750001Y-77300000I-249999J0D01*
G01*
X148049999Y-77300000D01*
G75*
G02*
X147800000Y-77050001I0J249999D01*
G01*
G37*
%TD*%
%TO.C,R17*%
G36*
G01*
X145800000Y-86800001D02*
X145800000Y-85899999D01*
G75*
G02*
X146049999Y-85650000I249999J0D01*
G01*
X146750001Y-85650000D01*
G75*
G02*
X147000000Y-85899999I0J-249999D01*
G01*
X147000000Y-86800001D01*
G75*
G02*
X146750001Y-87050000I-249999J0D01*
G01*
X146049999Y-87050000D01*
G75*
G02*
X145800000Y-86800001I0J249999D01*
G01*
G37*
G36*
G01*
X147800000Y-86800001D02*
X147800000Y-85899999D01*
G75*
G02*
X148049999Y-85650000I249999J0D01*
G01*
X148750001Y-85650000D01*
G75*
G02*
X149000000Y-85899999I0J-249999D01*
G01*
X149000000Y-86800001D01*
G75*
G02*
X148750001Y-87050000I-249999J0D01*
G01*
X148049999Y-87050000D01*
G75*
G02*
X147800000Y-86800001I0J249999D01*
G01*
G37*
%TD*%
D25*
%TO.C,SW2*%
X167417400Y-81142000D03*
X171917400Y-81142000D03*
X171917400Y-73192000D03*
X167417400Y-73192000D03*
%TD*%
%TO.C,SW3*%
X167403600Y-88192680D03*
X171903600Y-88192680D03*
X171903600Y-96142680D03*
X167403600Y-96142680D03*
%TD*%
D26*
%TO.C,U1*%
X142236800Y-111155200D03*
D27*
X142236800Y-117455200D03*
X144536800Y-117455200D03*
X139936800Y-117455200D03*
%TD*%
D21*
%TO.C,J4*%
X157300000Y-91906000D03*
D22*
X157300000Y-89366000D03*
X157300000Y-86826000D03*
X157300000Y-84286000D03*
X157300000Y-81746000D03*
X157300000Y-79206000D03*
%TD*%
D28*
%TO.C,SW1*%
X170598800Y-109722800D03*
D29*
X170598800Y-107722800D03*
X170598800Y-105722800D03*
D30*
X170598800Y-111822800D03*
X170598800Y-103622800D03*
%TD*%
%TO.C,R5*%
G36*
G01*
X165571801Y-106284200D02*
X164671799Y-106284200D01*
G75*
G02*
X164421800Y-106034201I0J249999D01*
G01*
X164421800Y-105334199D01*
G75*
G02*
X164671799Y-105084200I249999J0D01*
G01*
X165571801Y-105084200D01*
G75*
G02*
X165821800Y-105334199I0J-249999D01*
G01*
X165821800Y-106034201D01*
G75*
G02*
X165571801Y-106284200I-249999J0D01*
G01*
G37*
G36*
G01*
X165571801Y-104284200D02*
X164671799Y-104284200D01*
G75*
G02*
X164421800Y-104034201I0J249999D01*
G01*
X164421800Y-103334199D01*
G75*
G02*
X164671799Y-103084200I249999J0D01*
G01*
X165571801Y-103084200D01*
G75*
G02*
X165821800Y-103334199I0J-249999D01*
G01*
X165821800Y-104034201D01*
G75*
G02*
X165571801Y-104284200I-249999J0D01*
G01*
G37*
%TD*%
%TO.C,C2*%
G36*
G01*
X147586799Y-112680200D02*
X148886801Y-112680200D01*
G75*
G02*
X149136800Y-112930199I0J-249999D01*
G01*
X149136800Y-113755201D01*
G75*
G02*
X148886801Y-114005200I-249999J0D01*
G01*
X147586799Y-114005200D01*
G75*
G02*
X147336800Y-113755201I0J249999D01*
G01*
X147336800Y-112930199D01*
G75*
G02*
X147586799Y-112680200I249999J0D01*
G01*
G37*
G36*
G01*
X147586799Y-109555200D02*
X148886801Y-109555200D01*
G75*
G02*
X149136800Y-109805199I0J-249999D01*
G01*
X149136800Y-110630201D01*
G75*
G02*
X148886801Y-110880200I-249999J0D01*
G01*
X147586799Y-110880200D01*
G75*
G02*
X147336800Y-110630201I0J249999D01*
G01*
X147336800Y-109805199D01*
G75*
G02*
X147586799Y-109555200I249999J0D01*
G01*
G37*
%TD*%
%TO.C,C4*%
G36*
G01*
X136886801Y-114005200D02*
X135586799Y-114005200D01*
G75*
G02*
X135336800Y-113755201I0J249999D01*
G01*
X135336800Y-112930199D01*
G75*
G02*
X135586799Y-112680200I249999J0D01*
G01*
X136886801Y-112680200D01*
G75*
G02*
X137136800Y-112930199I0J-249999D01*
G01*
X137136800Y-113755201D01*
G75*
G02*
X136886801Y-114005200I-249999J0D01*
G01*
G37*
G36*
G01*
X136886801Y-110880200D02*
X135586799Y-110880200D01*
G75*
G02*
X135336800Y-110630201I0J249999D01*
G01*
X135336800Y-109805199D01*
G75*
G02*
X135586799Y-109555200I249999J0D01*
G01*
X136886801Y-109555200D01*
G75*
G02*
X137136800Y-109805199I0J-249999D01*
G01*
X137136800Y-110630201D01*
G75*
G02*
X136886801Y-110880200I-249999J0D01*
G01*
G37*
%TD*%
M02*
