%TF.GenerationSoftware,KiCad,Pcbnew,(5.1.10-1-10_14)*%
%TF.CreationDate,2021-06-24T14:46:10+02:00*%
%TF.ProjectId,RespiratorIF,52657370-6972-4617-946f-7249462e6b69,0.7*%
%TF.SameCoordinates,Original*%
%TF.FileFunction,Legend,Bot*%
%TF.FilePolarity,Positive*%
%FSLAX46Y46*%
G04 Gerber Fmt 4.6, Leading zero omitted, Abs format (unit mm)*
G04 Created by KiCad (PCBNEW (5.1.10-1-10_14)) date 2021-06-24 14:46:10*
%MOMM*%
%LPD*%
G01*
G04 APERTURE LIST*
%ADD10C,0.150000*%
%ADD11C,0.010000*%
G04 APERTURE END LIST*
D10*
X154508704Y-64887980D02*
X154842038Y-64411790D01*
X155080133Y-64887980D02*
X155080133Y-63887980D01*
X154699180Y-63887980D01*
X154603942Y-63935600D01*
X154556323Y-63983219D01*
X154508704Y-64078457D01*
X154508704Y-64221314D01*
X154556323Y-64316552D01*
X154603942Y-64364171D01*
X154699180Y-64411790D01*
X155080133Y-64411790D01*
X153699180Y-64840361D02*
X153794419Y-64887980D01*
X153984895Y-64887980D01*
X154080133Y-64840361D01*
X154127752Y-64745123D01*
X154127752Y-64364171D01*
X154080133Y-64268933D01*
X153984895Y-64221314D01*
X153794419Y-64221314D01*
X153699180Y-64268933D01*
X153651561Y-64364171D01*
X153651561Y-64459409D01*
X154127752Y-64554647D01*
X153270609Y-64840361D02*
X153175371Y-64887980D01*
X152984895Y-64887980D01*
X152889657Y-64840361D01*
X152842038Y-64745123D01*
X152842038Y-64697504D01*
X152889657Y-64602266D01*
X152984895Y-64554647D01*
X153127752Y-64554647D01*
X153222990Y-64507028D01*
X153270609Y-64411790D01*
X153270609Y-64364171D01*
X153222990Y-64268933D01*
X153127752Y-64221314D01*
X152984895Y-64221314D01*
X152889657Y-64268933D01*
X152413466Y-64221314D02*
X152413466Y-65221314D01*
X152413466Y-64268933D02*
X152318228Y-64221314D01*
X152127752Y-64221314D01*
X152032514Y-64268933D01*
X151984895Y-64316552D01*
X151937276Y-64411790D01*
X151937276Y-64697504D01*
X151984895Y-64792742D01*
X152032514Y-64840361D01*
X152127752Y-64887980D01*
X152318228Y-64887980D01*
X152413466Y-64840361D01*
X151508704Y-64887980D02*
X151508704Y-64221314D01*
X151508704Y-63887980D02*
X151556323Y-63935600D01*
X151508704Y-63983219D01*
X151461085Y-63935600D01*
X151508704Y-63887980D01*
X151508704Y-63983219D01*
X151032514Y-64887980D02*
X151032514Y-64221314D01*
X151032514Y-64411790D02*
X150984895Y-64316552D01*
X150937276Y-64268933D01*
X150842038Y-64221314D01*
X150746800Y-64221314D01*
X149984895Y-64887980D02*
X149984895Y-64364171D01*
X150032514Y-64268933D01*
X150127752Y-64221314D01*
X150318228Y-64221314D01*
X150413466Y-64268933D01*
X149984895Y-64840361D02*
X150080133Y-64887980D01*
X150318228Y-64887980D01*
X150413466Y-64840361D01*
X150461085Y-64745123D01*
X150461085Y-64649885D01*
X150413466Y-64554647D01*
X150318228Y-64507028D01*
X150080133Y-64507028D01*
X149984895Y-64459409D01*
X149651561Y-64221314D02*
X149270609Y-64221314D01*
X149508704Y-63887980D02*
X149508704Y-64745123D01*
X149461085Y-64840361D01*
X149365847Y-64887980D01*
X149270609Y-64887980D01*
X148794419Y-64887980D02*
X148889657Y-64840361D01*
X148937276Y-64792742D01*
X148984895Y-64697504D01*
X148984895Y-64411790D01*
X148937276Y-64316552D01*
X148889657Y-64268933D01*
X148794419Y-64221314D01*
X148651561Y-64221314D01*
X148556323Y-64268933D01*
X148508704Y-64316552D01*
X148461085Y-64411790D01*
X148461085Y-64697504D01*
X148508704Y-64792742D01*
X148556323Y-64840361D01*
X148651561Y-64887980D01*
X148794419Y-64887980D01*
X148032514Y-64887980D02*
X148032514Y-64221314D01*
X148032514Y-64411790D02*
X147984895Y-64316552D01*
X147937276Y-64268933D01*
X147842038Y-64221314D01*
X147746800Y-64221314D01*
X147413466Y-64887980D02*
X147413466Y-63887980D01*
X146603942Y-64364171D02*
X146937276Y-64364171D01*
X146937276Y-64887980D02*
X146937276Y-63887980D01*
X146461085Y-63887980D01*
X145127752Y-63887980D02*
X145032514Y-63887980D01*
X144937276Y-63935600D01*
X144889657Y-63983219D01*
X144842038Y-64078457D01*
X144794419Y-64268933D01*
X144794419Y-64507028D01*
X144842038Y-64697504D01*
X144889657Y-64792742D01*
X144937276Y-64840361D01*
X145032514Y-64887980D01*
X145127752Y-64887980D01*
X145222990Y-64840361D01*
X145270609Y-64792742D01*
X145318228Y-64697504D01*
X145365847Y-64507028D01*
X145365847Y-64268933D01*
X145318228Y-64078457D01*
X145270609Y-63983219D01*
X145222990Y-63935600D01*
X145127752Y-63887980D01*
X144365847Y-64792742D02*
X144318228Y-64840361D01*
X144365847Y-64887980D01*
X144413466Y-64840361D01*
X144365847Y-64792742D01*
X144365847Y-64887980D01*
X143984895Y-63887980D02*
X143318228Y-63887980D01*
X143746800Y-64887980D01*
X155794419Y-66537980D02*
X155794419Y-65537980D01*
X155461085Y-66252266D01*
X155127752Y-65537980D01*
X155127752Y-66537980D01*
X154651561Y-66537980D02*
X154651561Y-65871314D01*
X154651561Y-65537980D02*
X154699180Y-65585600D01*
X154651561Y-65633219D01*
X154603942Y-65585600D01*
X154651561Y-65537980D01*
X154651561Y-65633219D01*
X153746800Y-66490361D02*
X153842038Y-66537980D01*
X154032514Y-66537980D01*
X154127752Y-66490361D01*
X154175371Y-66442742D01*
X154222990Y-66347504D01*
X154222990Y-66061790D01*
X154175371Y-65966552D01*
X154127752Y-65918933D01*
X154032514Y-65871314D01*
X153842038Y-65871314D01*
X153746800Y-65918933D01*
X153318228Y-66537980D02*
X153318228Y-65537980D01*
X152889657Y-66537980D02*
X152889657Y-66014171D01*
X152937276Y-65918933D01*
X153032514Y-65871314D01*
X153175371Y-65871314D01*
X153270609Y-65918933D01*
X153318228Y-65966552D01*
X151984895Y-66537980D02*
X151984895Y-66014171D01*
X152032514Y-65918933D01*
X152127752Y-65871314D01*
X152318228Y-65871314D01*
X152413466Y-65918933D01*
X151984895Y-66490361D02*
X152080133Y-66537980D01*
X152318228Y-66537980D01*
X152413466Y-66490361D01*
X152461085Y-66395123D01*
X152461085Y-66299885D01*
X152413466Y-66204647D01*
X152318228Y-66157028D01*
X152080133Y-66157028D01*
X151984895Y-66109409D01*
X151127752Y-66490361D02*
X151222990Y-66537980D01*
X151413466Y-66537980D01*
X151508704Y-66490361D01*
X151556323Y-66395123D01*
X151556323Y-66014171D01*
X151508704Y-65918933D01*
X151413466Y-65871314D01*
X151222990Y-65871314D01*
X151127752Y-65918933D01*
X151080133Y-66014171D01*
X151080133Y-66109409D01*
X151556323Y-66204647D01*
X150508704Y-66537980D02*
X150603942Y-66490361D01*
X150651561Y-66395123D01*
X150651561Y-65537980D01*
X149365847Y-66537980D02*
X149365847Y-65537980D01*
X149127752Y-65537980D01*
X148984895Y-65585600D01*
X148889657Y-65680838D01*
X148842038Y-65776076D01*
X148794419Y-65966552D01*
X148794419Y-66109409D01*
X148842038Y-66299885D01*
X148889657Y-66395123D01*
X148984895Y-66490361D01*
X149127752Y-66537980D01*
X149365847Y-66537980D01*
X148222990Y-66537980D02*
X148318228Y-66490361D01*
X148365847Y-66442742D01*
X148413466Y-66347504D01*
X148413466Y-66061790D01*
X148365847Y-65966552D01*
X148318228Y-65918933D01*
X148222990Y-65871314D01*
X148080133Y-65871314D01*
X147984895Y-65918933D01*
X147937276Y-65966552D01*
X147889657Y-66061790D01*
X147889657Y-66347504D01*
X147937276Y-66442742D01*
X147984895Y-66490361D01*
X148080133Y-66537980D01*
X148222990Y-66537980D01*
X147461085Y-66537980D02*
X147461085Y-65871314D01*
X147461085Y-65966552D02*
X147413466Y-65918933D01*
X147318228Y-65871314D01*
X147175371Y-65871314D01*
X147080133Y-65918933D01*
X147032514Y-66014171D01*
X147032514Y-66537980D01*
X147032514Y-66014171D02*
X146984895Y-65918933D01*
X146889657Y-65871314D01*
X146746800Y-65871314D01*
X146651561Y-65918933D01*
X146603942Y-66014171D01*
X146603942Y-66537980D01*
X146127752Y-66537980D02*
X146127752Y-65537980D01*
X145699180Y-66537980D02*
X145699180Y-66014171D01*
X145746800Y-65918933D01*
X145842038Y-65871314D01*
X145984895Y-65871314D01*
X146080133Y-65918933D01*
X146127752Y-65966552D01*
X144794419Y-66537980D02*
X144794419Y-66014171D01*
X144842038Y-65918933D01*
X144937276Y-65871314D01*
X145127752Y-65871314D01*
X145222990Y-65918933D01*
X144794419Y-66490361D02*
X144889657Y-66537980D01*
X145127752Y-66537980D01*
X145222990Y-66490361D01*
X145270609Y-66395123D01*
X145270609Y-66299885D01*
X145222990Y-66204647D01*
X145127752Y-66157028D01*
X144889657Y-66157028D01*
X144794419Y-66109409D01*
X144318228Y-66537980D02*
X144318228Y-65871314D01*
X144318228Y-66061790D02*
X144270609Y-65966552D01*
X144222990Y-65918933D01*
X144127752Y-65871314D01*
X144032514Y-65871314D01*
X143270609Y-66537980D02*
X143270609Y-65537980D01*
X143270609Y-66490361D02*
X143365847Y-66537980D01*
X143556323Y-66537980D01*
X143651561Y-66490361D01*
X143699180Y-66442742D01*
X143746800Y-66347504D01*
X143746800Y-66061790D01*
X143699180Y-65966552D01*
X143651561Y-65918933D01*
X143556323Y-65871314D01*
X143365847Y-65871314D01*
X143270609Y-65918933D01*
X142937276Y-65871314D02*
X142556323Y-65871314D01*
X142794419Y-65537980D02*
X142794419Y-66395123D01*
X142746800Y-66490361D01*
X142651561Y-66537980D01*
X142556323Y-66537980D01*
X150961085Y-67283219D02*
X150913466Y-67235600D01*
X150818228Y-67187980D01*
X150580133Y-67187980D01*
X150484895Y-67235600D01*
X150437276Y-67283219D01*
X150389657Y-67378457D01*
X150389657Y-67473695D01*
X150437276Y-67616552D01*
X151008704Y-68187980D01*
X150389657Y-68187980D01*
X149770609Y-67187980D02*
X149675371Y-67187980D01*
X149580133Y-67235600D01*
X149532514Y-67283219D01*
X149484895Y-67378457D01*
X149437276Y-67568933D01*
X149437276Y-67807028D01*
X149484895Y-67997504D01*
X149532514Y-68092742D01*
X149580133Y-68140361D01*
X149675371Y-68187980D01*
X149770609Y-68187980D01*
X149865847Y-68140361D01*
X149913466Y-68092742D01*
X149961085Y-67997504D01*
X150008704Y-67807028D01*
X150008704Y-67568933D01*
X149961085Y-67378457D01*
X149913466Y-67283219D01*
X149865847Y-67235600D01*
X149770609Y-67187980D01*
X149056323Y-67283219D02*
X149008704Y-67235600D01*
X148913466Y-67187980D01*
X148675371Y-67187980D01*
X148580133Y-67235600D01*
X148532514Y-67283219D01*
X148484895Y-67378457D01*
X148484895Y-67473695D01*
X148532514Y-67616552D01*
X149103942Y-68187980D01*
X148484895Y-68187980D01*
X147532514Y-68187980D02*
X148103942Y-68187980D01*
X147818228Y-68187980D02*
X147818228Y-67187980D01*
X147913466Y-67330838D01*
X148008704Y-67426076D01*
X148103942Y-67473695D01*
D11*
%TO.C,G\u002A\u002A\u002A*%
G36*
X132195298Y-99441266D02*
G01*
X132081796Y-99458061D01*
X131986933Y-99490880D01*
X131899226Y-99543810D01*
X131807195Y-99620935D01*
X131798978Y-99628575D01*
X131693334Y-99727393D01*
X131693334Y-99467600D01*
X131331454Y-99467600D01*
X131337775Y-100605308D01*
X131339185Y-100853665D01*
X131340536Y-101063376D01*
X131341986Y-101238132D01*
X131343697Y-101381619D01*
X131345828Y-101497527D01*
X131348540Y-101589543D01*
X131351993Y-101661356D01*
X131356348Y-101716653D01*
X131361765Y-101759124D01*
X131368403Y-101792456D01*
X131376423Y-101820337D01*
X131385986Y-101846456D01*
X131392403Y-101862499D01*
X131470575Y-102017409D01*
X131567467Y-102136715D01*
X131687895Y-102224798D01*
X131836675Y-102286038D01*
X131867663Y-102294768D01*
X131942712Y-102309160D01*
X132044807Y-102321552D01*
X132160606Y-102331096D01*
X132276765Y-102336939D01*
X132379940Y-102338233D01*
X132456788Y-102334127D01*
X132465917Y-102332886D01*
X132577481Y-102309264D01*
X132690893Y-102274593D01*
X132789197Y-102234521D01*
X132833676Y-102210361D01*
X132945377Y-102118749D01*
X133040828Y-101999992D01*
X133112715Y-101865899D01*
X133153721Y-101728280D01*
X133159168Y-101684904D01*
X133164417Y-101618024D01*
X133016250Y-101591863D01*
X132923681Y-101575899D01*
X132865021Y-101567809D01*
X132832526Y-101567912D01*
X132818451Y-101576524D01*
X132815052Y-101593967D01*
X132814960Y-101600142D01*
X132801336Y-101661879D01*
X132766312Y-101740093D01*
X132717844Y-101820757D01*
X132663886Y-101889845D01*
X132634791Y-101917795D01*
X132521174Y-101984149D01*
X132378464Y-102019857D01*
X132206588Y-102024938D01*
X132193831Y-102024171D01*
X132037512Y-101998334D01*
X131911731Y-101943274D01*
X131816570Y-101859048D01*
X131752112Y-101745716D01*
X131737239Y-101700683D01*
X131725578Y-101642113D01*
X131714108Y-101555650D01*
X131704589Y-101455705D01*
X131701063Y-101404350D01*
X131688638Y-101192683D01*
X131755240Y-101271103D01*
X131861828Y-101365479D01*
X131995926Y-101435364D01*
X132149761Y-101479661D01*
X132315562Y-101497276D01*
X132485558Y-101487111D01*
X132651976Y-101448073D01*
X132745926Y-101410779D01*
X132886864Y-101322330D01*
X133006424Y-101201126D01*
X133102779Y-101051955D01*
X133174107Y-100879609D01*
X133218581Y-100688876D01*
X133230390Y-100536129D01*
X132850829Y-100536129D01*
X132827163Y-100700460D01*
X132777667Y-100851786D01*
X132702462Y-100981281D01*
X132669963Y-101019948D01*
X132560876Y-101107249D01*
X132430303Y-101161084D01*
X132284341Y-101180102D01*
X132129088Y-101162951D01*
X132081267Y-101150448D01*
X131961495Y-101094976D01*
X131852220Y-101007344D01*
X131764796Y-100897716D01*
X131733325Y-100838939D01*
X131711573Y-100786113D01*
X131697055Y-100734990D01*
X131688358Y-100675053D01*
X131684069Y-100595781D01*
X131682774Y-100486655D01*
X131682750Y-100462433D01*
X131683396Y-100349579D01*
X131686416Y-100268518D01*
X131693432Y-100208718D01*
X131706068Y-100159644D01*
X131725946Y-100110764D01*
X131742147Y-100076894D01*
X131810752Y-99967853D01*
X131899008Y-99872394D01*
X131996311Y-99800511D01*
X132070245Y-99767659D01*
X132215871Y-99742481D01*
X132361451Y-99750810D01*
X132497782Y-99790286D01*
X132615661Y-99858549D01*
X132684805Y-99925244D01*
X132765654Y-100053350D01*
X132820194Y-100203749D01*
X132848546Y-100367617D01*
X132850829Y-100536129D01*
X133230390Y-100536129D01*
X133234379Y-100484548D01*
X133219675Y-100271414D01*
X133207576Y-100198693D01*
X133150987Y-100000262D01*
X133062827Y-99824205D01*
X132945929Y-99674410D01*
X132803125Y-99554766D01*
X132693515Y-99493012D01*
X132634149Y-99467241D01*
X132580482Y-99450639D01*
X132520347Y-99441262D01*
X132441580Y-99437170D01*
X132338917Y-99436408D01*
X132195298Y-99441266D01*
G37*
X132195298Y-99441266D02*
X132081796Y-99458061D01*
X131986933Y-99490880D01*
X131899226Y-99543810D01*
X131807195Y-99620935D01*
X131798978Y-99628575D01*
X131693334Y-99727393D01*
X131693334Y-99467600D01*
X131331454Y-99467600D01*
X131337775Y-100605308D01*
X131339185Y-100853665D01*
X131340536Y-101063376D01*
X131341986Y-101238132D01*
X131343697Y-101381619D01*
X131345828Y-101497527D01*
X131348540Y-101589543D01*
X131351993Y-101661356D01*
X131356348Y-101716653D01*
X131361765Y-101759124D01*
X131368403Y-101792456D01*
X131376423Y-101820337D01*
X131385986Y-101846456D01*
X131392403Y-101862499D01*
X131470575Y-102017409D01*
X131567467Y-102136715D01*
X131687895Y-102224798D01*
X131836675Y-102286038D01*
X131867663Y-102294768D01*
X131942712Y-102309160D01*
X132044807Y-102321552D01*
X132160606Y-102331096D01*
X132276765Y-102336939D01*
X132379940Y-102338233D01*
X132456788Y-102334127D01*
X132465917Y-102332886D01*
X132577481Y-102309264D01*
X132690893Y-102274593D01*
X132789197Y-102234521D01*
X132833676Y-102210361D01*
X132945377Y-102118749D01*
X133040828Y-101999992D01*
X133112715Y-101865899D01*
X133153721Y-101728280D01*
X133159168Y-101684904D01*
X133164417Y-101618024D01*
X133016250Y-101591863D01*
X132923681Y-101575899D01*
X132865021Y-101567809D01*
X132832526Y-101567912D01*
X132818451Y-101576524D01*
X132815052Y-101593967D01*
X132814960Y-101600142D01*
X132801336Y-101661879D01*
X132766312Y-101740093D01*
X132717844Y-101820757D01*
X132663886Y-101889845D01*
X132634791Y-101917795D01*
X132521174Y-101984149D01*
X132378464Y-102019857D01*
X132206588Y-102024938D01*
X132193831Y-102024171D01*
X132037512Y-101998334D01*
X131911731Y-101943274D01*
X131816570Y-101859048D01*
X131752112Y-101745716D01*
X131737239Y-101700683D01*
X131725578Y-101642113D01*
X131714108Y-101555650D01*
X131704589Y-101455705D01*
X131701063Y-101404350D01*
X131688638Y-101192683D01*
X131755240Y-101271103D01*
X131861828Y-101365479D01*
X131995926Y-101435364D01*
X132149761Y-101479661D01*
X132315562Y-101497276D01*
X132485558Y-101487111D01*
X132651976Y-101448073D01*
X132745926Y-101410779D01*
X132886864Y-101322330D01*
X133006424Y-101201126D01*
X133102779Y-101051955D01*
X133174107Y-100879609D01*
X133218581Y-100688876D01*
X133230390Y-100536129D01*
X132850829Y-100536129D01*
X132827163Y-100700460D01*
X132777667Y-100851786D01*
X132702462Y-100981281D01*
X132669963Y-101019948D01*
X132560876Y-101107249D01*
X132430303Y-101161084D01*
X132284341Y-101180102D01*
X132129088Y-101162951D01*
X132081267Y-101150448D01*
X131961495Y-101094976D01*
X131852220Y-101007344D01*
X131764796Y-100897716D01*
X131733325Y-100838939D01*
X131711573Y-100786113D01*
X131697055Y-100734990D01*
X131688358Y-100675053D01*
X131684069Y-100595781D01*
X131682774Y-100486655D01*
X131682750Y-100462433D01*
X131683396Y-100349579D01*
X131686416Y-100268518D01*
X131693432Y-100208718D01*
X131706068Y-100159644D01*
X131725946Y-100110764D01*
X131742147Y-100076894D01*
X131810752Y-99967853D01*
X131899008Y-99872394D01*
X131996311Y-99800511D01*
X132070245Y-99767659D01*
X132215871Y-99742481D01*
X132361451Y-99750810D01*
X132497782Y-99790286D01*
X132615661Y-99858549D01*
X132684805Y-99925244D01*
X132765654Y-100053350D01*
X132820194Y-100203749D01*
X132848546Y-100367617D01*
X132850829Y-100536129D01*
X133230390Y-100536129D01*
X133234379Y-100484548D01*
X133219675Y-100271414D01*
X133207576Y-100198693D01*
X133150987Y-100000262D01*
X133062827Y-99824205D01*
X132945929Y-99674410D01*
X132803125Y-99554766D01*
X132693515Y-99493012D01*
X132634149Y-99467241D01*
X132580482Y-99450639D01*
X132520347Y-99441262D01*
X132441580Y-99437170D01*
X132338917Y-99436408D01*
X132195298Y-99441266D01*
G36*
X130510881Y-99684558D02*
G01*
X130439273Y-99913304D01*
X130371042Y-100127436D01*
X130307237Y-100323904D01*
X130248906Y-100499659D01*
X130197095Y-100651649D01*
X130152853Y-100776826D01*
X130117228Y-100872139D01*
X130091268Y-100934538D01*
X130076019Y-100960973D01*
X130072768Y-100959850D01*
X130063122Y-100930553D01*
X130041324Y-100866059D01*
X130009024Y-100771193D01*
X129967869Y-100650779D01*
X129919510Y-100509641D01*
X129865593Y-100352604D01*
X129812368Y-100197850D01*
X129564643Y-99478183D01*
X129380155Y-99472067D01*
X129297774Y-99471284D01*
X129234362Y-99474388D01*
X129199498Y-99480742D01*
X129195667Y-99484341D01*
X129202762Y-99508161D01*
X129223037Y-99567536D01*
X129254976Y-99658322D01*
X129297064Y-99776373D01*
X129347786Y-99917543D01*
X129405625Y-100077687D01*
X129469067Y-100252660D01*
X129536596Y-100438317D01*
X129606697Y-100630511D01*
X129677853Y-100825098D01*
X129748550Y-101017933D01*
X129817272Y-101204870D01*
X129882504Y-101381763D01*
X129942730Y-101544468D01*
X129996435Y-101688839D01*
X130042103Y-101810730D01*
X130078219Y-101905997D01*
X130103267Y-101970493D01*
X130114258Y-101997017D01*
X130188046Y-102128467D01*
X130275884Y-102223976D01*
X130383952Y-102287609D01*
X130518433Y-102323430D01*
X130626697Y-102333908D01*
X130718936Y-102336557D01*
X130805587Y-102336098D01*
X130869119Y-102332655D01*
X130873125Y-102332200D01*
X130952500Y-102322544D01*
X130952510Y-102170364D01*
X130952519Y-102018183D01*
X130753185Y-102018183D01*
X130658117Y-102017271D01*
X130594851Y-102013087D01*
X130552869Y-102003455D01*
X130521654Y-101986203D01*
X130497165Y-101965267D01*
X130450667Y-101914564D01*
X130410735Y-101852145D01*
X130372236Y-101768342D01*
X130330040Y-101653488D01*
X130327116Y-101644922D01*
X130278511Y-101502016D01*
X130612901Y-100532433D01*
X130680011Y-100337740D01*
X130743221Y-100154153D01*
X130801125Y-99985777D01*
X130852314Y-99836716D01*
X130895380Y-99711074D01*
X130928915Y-99612953D01*
X130951511Y-99546459D01*
X130961760Y-99515695D01*
X130961906Y-99515225D01*
X130967113Y-99493083D01*
X130961321Y-99479153D01*
X130937159Y-99471532D01*
X130887254Y-99468318D01*
X130804236Y-99467609D01*
X130777369Y-99467600D01*
X130578218Y-99467600D01*
X130510881Y-99684558D01*
G37*
X130510881Y-99684558D02*
X130439273Y-99913304D01*
X130371042Y-100127436D01*
X130307237Y-100323904D01*
X130248906Y-100499659D01*
X130197095Y-100651649D01*
X130152853Y-100776826D01*
X130117228Y-100872139D01*
X130091268Y-100934538D01*
X130076019Y-100960973D01*
X130072768Y-100959850D01*
X130063122Y-100930553D01*
X130041324Y-100866059D01*
X130009024Y-100771193D01*
X129967869Y-100650779D01*
X129919510Y-100509641D01*
X129865593Y-100352604D01*
X129812368Y-100197850D01*
X129564643Y-99478183D01*
X129380155Y-99472067D01*
X129297774Y-99471284D01*
X129234362Y-99474388D01*
X129199498Y-99480742D01*
X129195667Y-99484341D01*
X129202762Y-99508161D01*
X129223037Y-99567536D01*
X129254976Y-99658322D01*
X129297064Y-99776373D01*
X129347786Y-99917543D01*
X129405625Y-100077687D01*
X129469067Y-100252660D01*
X129536596Y-100438317D01*
X129606697Y-100630511D01*
X129677853Y-100825098D01*
X129748550Y-101017933D01*
X129817272Y-101204870D01*
X129882504Y-101381763D01*
X129942730Y-101544468D01*
X129996435Y-101688839D01*
X130042103Y-101810730D01*
X130078219Y-101905997D01*
X130103267Y-101970493D01*
X130114258Y-101997017D01*
X130188046Y-102128467D01*
X130275884Y-102223976D01*
X130383952Y-102287609D01*
X130518433Y-102323430D01*
X130626697Y-102333908D01*
X130718936Y-102336557D01*
X130805587Y-102336098D01*
X130869119Y-102332655D01*
X130873125Y-102332200D01*
X130952500Y-102322544D01*
X130952510Y-102170364D01*
X130952519Y-102018183D01*
X130753185Y-102018183D01*
X130658117Y-102017271D01*
X130594851Y-102013087D01*
X130552869Y-102003455D01*
X130521654Y-101986203D01*
X130497165Y-101965267D01*
X130450667Y-101914564D01*
X130410735Y-101852145D01*
X130372236Y-101768342D01*
X130330040Y-101653488D01*
X130327116Y-101644922D01*
X130278511Y-101502016D01*
X130612901Y-100532433D01*
X130680011Y-100337740D01*
X130743221Y-100154153D01*
X130801125Y-99985777D01*
X130852314Y-99836716D01*
X130895380Y-99711074D01*
X130928915Y-99612953D01*
X130951511Y-99546459D01*
X130961760Y-99515695D01*
X130961906Y-99515225D01*
X130967113Y-99493083D01*
X130961321Y-99479153D01*
X130937159Y-99471532D01*
X130887254Y-99468318D01*
X130804236Y-99467609D01*
X130777369Y-99467600D01*
X130578218Y-99467600D01*
X130510881Y-99684558D01*
G36*
X165221334Y-100156727D02*
G01*
X165220509Y-100380980D01*
X165218069Y-100570920D01*
X165214070Y-100724786D01*
X165208565Y-100840816D01*
X165201607Y-100917249D01*
X165197257Y-100941472D01*
X165149225Y-101053604D01*
X165070530Y-101138907D01*
X164965009Y-101195080D01*
X164836504Y-101219821D01*
X164736847Y-101217406D01*
X164599468Y-101183656D01*
X164482995Y-101113293D01*
X164388995Y-101007361D01*
X164366329Y-100970433D01*
X164300584Y-100854017D01*
X164294220Y-100160808D01*
X164287856Y-99467600D01*
X163909000Y-99467600D01*
X163909000Y-101499600D01*
X164290000Y-101499600D01*
X164290000Y-101268346D01*
X164385865Y-101361515D01*
X164512275Y-101455338D01*
X164663920Y-101517546D01*
X164836724Y-101547070D01*
X165026607Y-101542837D01*
X165060205Y-101538695D01*
X165214219Y-101497421D01*
X165349229Y-101421055D01*
X165459823Y-101314078D01*
X165540586Y-101180973D01*
X165563024Y-101122353D01*
X165571114Y-101076548D01*
X165578203Y-100991564D01*
X165584313Y-100866768D01*
X165589471Y-100701526D01*
X165593701Y-100495207D01*
X165596932Y-100256058D01*
X165605509Y-99467600D01*
X165221334Y-99467600D01*
X165221334Y-100156727D01*
G37*
X165221334Y-100156727D02*
X165220509Y-100380980D01*
X165218069Y-100570920D01*
X165214070Y-100724786D01*
X165208565Y-100840816D01*
X165201607Y-100917249D01*
X165197257Y-100941472D01*
X165149225Y-101053604D01*
X165070530Y-101138907D01*
X164965009Y-101195080D01*
X164836504Y-101219821D01*
X164736847Y-101217406D01*
X164599468Y-101183656D01*
X164482995Y-101113293D01*
X164388995Y-101007361D01*
X164366329Y-100970433D01*
X164300584Y-100854017D01*
X164294220Y-100160808D01*
X164287856Y-99467600D01*
X163909000Y-99467600D01*
X163909000Y-101499600D01*
X164290000Y-101499600D01*
X164290000Y-101268346D01*
X164385865Y-101361515D01*
X164512275Y-101455338D01*
X164663920Y-101517546D01*
X164836724Y-101547070D01*
X165026607Y-101542837D01*
X165060205Y-101538695D01*
X165214219Y-101497421D01*
X165349229Y-101421055D01*
X165459823Y-101314078D01*
X165540586Y-101180973D01*
X165563024Y-101122353D01*
X165571114Y-101076548D01*
X165578203Y-100991564D01*
X165584313Y-100866768D01*
X165589471Y-100701526D01*
X165593701Y-100495207D01*
X165596932Y-100256058D01*
X165605509Y-99467600D01*
X165221334Y-99467600D01*
X165221334Y-100156727D01*
G36*
X161872602Y-98673826D02*
G01*
X161865411Y-98706483D01*
X161860435Y-98766396D01*
X161857393Y-98857853D01*
X161856000Y-98985144D01*
X161855834Y-99065433D01*
X161855834Y-99467600D01*
X161411334Y-99467600D01*
X161411334Y-99763933D01*
X161855834Y-99763933D01*
X161855834Y-100449505D01*
X161855991Y-100653048D01*
X161855574Y-100818219D01*
X161853252Y-100948972D01*
X161847692Y-101049262D01*
X161837563Y-101123043D01*
X161821533Y-101174270D01*
X161798270Y-101206897D01*
X161766443Y-101224878D01*
X161724719Y-101232168D01*
X161671767Y-101232722D01*
X161606255Y-101230493D01*
X161592942Y-101230099D01*
X161411334Y-101225182D01*
X161411334Y-101517720D01*
X161533042Y-101530459D01*
X161645527Y-101541899D01*
X161726421Y-101548825D01*
X161786193Y-101551522D01*
X161835312Y-101550275D01*
X161884247Y-101545369D01*
X161916956Y-101540920D01*
X162031737Y-101510892D01*
X162122016Y-101453241D01*
X162182609Y-101385650D01*
X162193942Y-101368931D01*
X162203176Y-101349267D01*
X162210568Y-101322327D01*
X162216375Y-101283778D01*
X162220855Y-101229289D01*
X162224264Y-101154528D01*
X162226862Y-101055164D01*
X162228904Y-100926864D01*
X162230648Y-100765297D01*
X162232351Y-100566131D01*
X162232516Y-100545583D01*
X162238782Y-99763933D01*
X162617834Y-99763933D01*
X162617834Y-99467600D01*
X162237833Y-99467600D01*
X162232042Y-99103233D01*
X162226250Y-98738867D01*
X162067500Y-98701934D01*
X161988012Y-98684095D01*
X161923146Y-98670732D01*
X161885152Y-98664345D01*
X161882292Y-98664134D01*
X161872602Y-98673826D01*
G37*
X161872602Y-98673826D02*
X161865411Y-98706483D01*
X161860435Y-98766396D01*
X161857393Y-98857853D01*
X161856000Y-98985144D01*
X161855834Y-99065433D01*
X161855834Y-99467600D01*
X161411334Y-99467600D01*
X161411334Y-99763933D01*
X161855834Y-99763933D01*
X161855834Y-100449505D01*
X161855991Y-100653048D01*
X161855574Y-100818219D01*
X161853252Y-100948972D01*
X161847692Y-101049262D01*
X161837563Y-101123043D01*
X161821533Y-101174270D01*
X161798270Y-101206897D01*
X161766443Y-101224878D01*
X161724719Y-101232168D01*
X161671767Y-101232722D01*
X161606255Y-101230493D01*
X161592942Y-101230099D01*
X161411334Y-101225182D01*
X161411334Y-101517720D01*
X161533042Y-101530459D01*
X161645527Y-101541899D01*
X161726421Y-101548825D01*
X161786193Y-101551522D01*
X161835312Y-101550275D01*
X161884247Y-101545369D01*
X161916956Y-101540920D01*
X162031737Y-101510892D01*
X162122016Y-101453241D01*
X162182609Y-101385650D01*
X162193942Y-101368931D01*
X162203176Y-101349267D01*
X162210568Y-101322327D01*
X162216375Y-101283778D01*
X162220855Y-101229289D01*
X162224264Y-101154528D01*
X162226862Y-101055164D01*
X162228904Y-100926864D01*
X162230648Y-100765297D01*
X162232351Y-100566131D01*
X162232516Y-100545583D01*
X162238782Y-99763933D01*
X162617834Y-99763933D01*
X162617834Y-99467600D01*
X162237833Y-99467600D01*
X162232042Y-99103233D01*
X162226250Y-98738867D01*
X162067500Y-98701934D01*
X161988012Y-98684095D01*
X161923146Y-98670732D01*
X161885152Y-98664345D01*
X161882292Y-98664134D01*
X161872602Y-98673826D01*
G36*
X155685374Y-99443717D02*
G01*
X155508144Y-99498006D01*
X155353654Y-99586947D01*
X155223476Y-99709104D01*
X155119182Y-99863042D01*
X155042345Y-100047324D01*
X154998581Y-100234117D01*
X154986562Y-100325053D01*
X154978652Y-100417202D01*
X154976827Y-100467725D01*
X154976667Y-100568267D01*
X156484954Y-100568267D01*
X156471078Y-100672869D01*
X156430636Y-100835075D01*
X156356630Y-100974818D01*
X156251516Y-101088323D01*
X156160368Y-101150350D01*
X156099880Y-101181493D01*
X156047150Y-101200410D01*
X155987894Y-101210064D01*
X155907827Y-101213417D01*
X155855084Y-101213655D01*
X155756604Y-101211859D01*
X155686084Y-101204888D01*
X155629222Y-101190012D01*
X155571715Y-101164499D01*
X155556473Y-101156617D01*
X155482761Y-101108777D01*
X155403417Y-101043545D01*
X155350615Y-100991056D01*
X155252867Y-100882338D01*
X155125351Y-100971786D01*
X155063399Y-101017931D01*
X155018059Y-101056830D01*
X154998106Y-101080866D01*
X154997834Y-101082445D01*
X155013521Y-101119958D01*
X155055366Y-101174594D01*
X155115547Y-101238228D01*
X155186241Y-101302736D01*
X155259627Y-101359994D01*
X155275712Y-101371048D01*
X155449347Y-101462772D01*
X155643720Y-101522683D01*
X155849403Y-101548665D01*
X156035161Y-101541440D01*
X156219949Y-101504213D01*
X156378597Y-101438063D01*
X156519164Y-101339017D01*
X156595151Y-101265396D01*
X156701103Y-101122767D01*
X156781322Y-100952761D01*
X156834340Y-100762690D01*
X156858686Y-100559868D01*
X156852893Y-100351608D01*
X156829736Y-100220866D01*
X156458334Y-100220866D01*
X156458334Y-100271933D01*
X155361486Y-100271933D01*
X155387648Y-100160808D01*
X155427387Y-100032392D01*
X155481270Y-99933985D01*
X155540986Y-99866891D01*
X155659452Y-99783133D01*
X155789109Y-99736557D01*
X155923485Y-99725877D01*
X156056104Y-99749803D01*
X156180494Y-99807047D01*
X156290180Y-99896322D01*
X156378689Y-100016339D01*
X156389093Y-100035658D01*
X156423985Y-100110260D01*
X156448863Y-100176819D01*
X156458334Y-100220866D01*
X156829736Y-100220866D01*
X156818146Y-100155435D01*
X156747955Y-99956206D01*
X156647853Y-99786194D01*
X156519885Y-99646996D01*
X156366093Y-99540209D01*
X156188522Y-99467429D01*
X155989217Y-99430254D01*
X155883772Y-99425518D01*
X155685374Y-99443717D01*
G37*
X155685374Y-99443717D02*
X155508144Y-99498006D01*
X155353654Y-99586947D01*
X155223476Y-99709104D01*
X155119182Y-99863042D01*
X155042345Y-100047324D01*
X154998581Y-100234117D01*
X154986562Y-100325053D01*
X154978652Y-100417202D01*
X154976827Y-100467725D01*
X154976667Y-100568267D01*
X156484954Y-100568267D01*
X156471078Y-100672869D01*
X156430636Y-100835075D01*
X156356630Y-100974818D01*
X156251516Y-101088323D01*
X156160368Y-101150350D01*
X156099880Y-101181493D01*
X156047150Y-101200410D01*
X155987894Y-101210064D01*
X155907827Y-101213417D01*
X155855084Y-101213655D01*
X155756604Y-101211859D01*
X155686084Y-101204888D01*
X155629222Y-101190012D01*
X155571715Y-101164499D01*
X155556473Y-101156617D01*
X155482761Y-101108777D01*
X155403417Y-101043545D01*
X155350615Y-100991056D01*
X155252867Y-100882338D01*
X155125351Y-100971786D01*
X155063399Y-101017931D01*
X155018059Y-101056830D01*
X154998106Y-101080866D01*
X154997834Y-101082445D01*
X155013521Y-101119958D01*
X155055366Y-101174594D01*
X155115547Y-101238228D01*
X155186241Y-101302736D01*
X155259627Y-101359994D01*
X155275712Y-101371048D01*
X155449347Y-101462772D01*
X155643720Y-101522683D01*
X155849403Y-101548665D01*
X156035161Y-101541440D01*
X156219949Y-101504213D01*
X156378597Y-101438063D01*
X156519164Y-101339017D01*
X156595151Y-101265396D01*
X156701103Y-101122767D01*
X156781322Y-100952761D01*
X156834340Y-100762690D01*
X156858686Y-100559868D01*
X156852893Y-100351608D01*
X156829736Y-100220866D01*
X156458334Y-100220866D01*
X156458334Y-100271933D01*
X155361486Y-100271933D01*
X155387648Y-100160808D01*
X155427387Y-100032392D01*
X155481270Y-99933985D01*
X155540986Y-99866891D01*
X155659452Y-99783133D01*
X155789109Y-99736557D01*
X155923485Y-99725877D01*
X156056104Y-99749803D01*
X156180494Y-99807047D01*
X156290180Y-99896322D01*
X156378689Y-100016339D01*
X156389093Y-100035658D01*
X156423985Y-100110260D01*
X156448863Y-100176819D01*
X156458334Y-100220866D01*
X156829736Y-100220866D01*
X156818146Y-100155435D01*
X156747955Y-99956206D01*
X156647853Y-99786194D01*
X156519885Y-99646996D01*
X156366093Y-99540209D01*
X156188522Y-99467429D01*
X155989217Y-99430254D01*
X155883772Y-99425518D01*
X155685374Y-99443717D01*
G36*
X152733000Y-101499600D02*
G01*
X153114000Y-101499600D01*
X153114000Y-101262844D01*
X153220858Y-101358917D01*
X153362185Y-101458040D01*
X153524847Y-101521487D01*
X153706414Y-101548618D01*
X153903181Y-101538969D01*
X154061694Y-101501799D01*
X154200020Y-101433908D01*
X154321589Y-101337783D01*
X154433583Y-101216311D01*
X154517757Y-101084428D01*
X154576961Y-100934962D01*
X154614049Y-100760739D01*
X154631744Y-100557683D01*
X154631861Y-100532220D01*
X154251229Y-100532220D01*
X154242004Y-100667162D01*
X154227280Y-100771255D01*
X154203992Y-100855915D01*
X154169075Y-100932556D01*
X154124139Y-101005659D01*
X154028646Y-101112422D01*
X153910280Y-101186047D01*
X153774234Y-101225088D01*
X153625700Y-101228101D01*
X153469867Y-101193643D01*
X153460339Y-101190332D01*
X153346670Y-101128597D01*
X153251190Y-101034551D01*
X153175030Y-100914629D01*
X153119321Y-100775264D01*
X153085194Y-100622891D01*
X153073781Y-100463944D01*
X153086213Y-100304857D01*
X153123621Y-100152064D01*
X153187137Y-100011999D01*
X153239623Y-99935006D01*
X153341200Y-99839179D01*
X153465467Y-99773039D01*
X153603251Y-99738406D01*
X153745379Y-99737095D01*
X153882677Y-99770924D01*
X153937868Y-99796685D01*
X154060379Y-99886418D01*
X154152890Y-100005898D01*
X154215424Y-100155180D01*
X154248004Y-100334316D01*
X154251229Y-100532220D01*
X154631861Y-100532220D01*
X154632631Y-100365267D01*
X154616476Y-100201810D01*
X154581459Y-100056765D01*
X154525760Y-99919590D01*
X154519344Y-99906619D01*
X154414807Y-99738165D01*
X154288613Y-99606081D01*
X154140904Y-99510448D01*
X153971823Y-99451348D01*
X153781513Y-99428864D01*
X153686668Y-99430852D01*
X153530181Y-99449931D01*
X153401399Y-99489076D01*
X153288627Y-99552863D01*
X153209892Y-99617435D01*
X153114000Y-99705825D01*
X153114000Y-98599767D01*
X152733000Y-98599767D01*
X152733000Y-101499600D01*
G37*
X152733000Y-101499600D02*
X153114000Y-101499600D01*
X153114000Y-101262844D01*
X153220858Y-101358917D01*
X153362185Y-101458040D01*
X153524847Y-101521487D01*
X153706414Y-101548618D01*
X153903181Y-101538969D01*
X154061694Y-101501799D01*
X154200020Y-101433908D01*
X154321589Y-101337783D01*
X154433583Y-101216311D01*
X154517757Y-101084428D01*
X154576961Y-100934962D01*
X154614049Y-100760739D01*
X154631744Y-100557683D01*
X154631861Y-100532220D01*
X154251229Y-100532220D01*
X154242004Y-100667162D01*
X154227280Y-100771255D01*
X154203992Y-100855915D01*
X154169075Y-100932556D01*
X154124139Y-101005659D01*
X154028646Y-101112422D01*
X153910280Y-101186047D01*
X153774234Y-101225088D01*
X153625700Y-101228101D01*
X153469867Y-101193643D01*
X153460339Y-101190332D01*
X153346670Y-101128597D01*
X153251190Y-101034551D01*
X153175030Y-100914629D01*
X153119321Y-100775264D01*
X153085194Y-100622891D01*
X153073781Y-100463944D01*
X153086213Y-100304857D01*
X153123621Y-100152064D01*
X153187137Y-100011999D01*
X153239623Y-99935006D01*
X153341200Y-99839179D01*
X153465467Y-99773039D01*
X153603251Y-99738406D01*
X153745379Y-99737095D01*
X153882677Y-99770924D01*
X153937868Y-99796685D01*
X154060379Y-99886418D01*
X154152890Y-100005898D01*
X154215424Y-100155180D01*
X154248004Y-100334316D01*
X154251229Y-100532220D01*
X154631861Y-100532220D01*
X154632631Y-100365267D01*
X154616476Y-100201810D01*
X154581459Y-100056765D01*
X154525760Y-99919590D01*
X154519344Y-99906619D01*
X154414807Y-99738165D01*
X154288613Y-99606081D01*
X154140904Y-99510448D01*
X153971823Y-99451348D01*
X153781513Y-99428864D01*
X153686668Y-99430852D01*
X153530181Y-99449931D01*
X153401399Y-99489076D01*
X153288627Y-99552863D01*
X153209892Y-99617435D01*
X153114000Y-99705825D01*
X153114000Y-98599767D01*
X152733000Y-98599767D01*
X152733000Y-101499600D01*
G36*
X150156548Y-99438366D02*
G01*
X149992387Y-99474902D01*
X149856522Y-99533765D01*
X149752545Y-99613515D01*
X149698248Y-99685121D01*
X149671244Y-99737185D01*
X149649585Y-99792912D01*
X149632712Y-99857496D01*
X149620061Y-99936129D01*
X149611072Y-100034002D01*
X149605183Y-100156309D01*
X149601831Y-100308241D01*
X149600457Y-100494992D01*
X149600334Y-100590475D01*
X149600198Y-100764571D01*
X149599571Y-100901295D01*
X149598121Y-101005610D01*
X149595517Y-101082478D01*
X149591427Y-101136860D01*
X149585520Y-101173718D01*
X149577464Y-101198014D01*
X149566929Y-101214710D01*
X149558000Y-101224433D01*
X149504606Y-101256298D01*
X149452167Y-101266767D01*
X149388667Y-101266767D01*
X149388667Y-101541933D01*
X149560093Y-101541933D01*
X149691197Y-101535244D01*
X149788233Y-101513368D01*
X149857587Y-101473593D01*
X149905646Y-101413204D01*
X149917031Y-101390295D01*
X149953191Y-101309529D01*
X150004304Y-101364326D01*
X150088076Y-101431303D01*
X150200795Y-101488910D01*
X150329185Y-101530808D01*
X150372364Y-101540040D01*
X150501556Y-101557899D01*
X150616079Y-101557831D01*
X150739779Y-101539485D01*
X150764500Y-101534293D01*
X150919945Y-101483050D01*
X151049942Y-101403750D01*
X151138373Y-101313857D01*
X151197535Y-101220476D01*
X151233141Y-101121038D01*
X151249134Y-101002034D01*
X151251009Y-100928100D01*
X151248019Y-100900951D01*
X150864094Y-100900951D01*
X150855423Y-101012504D01*
X150811906Y-101106905D01*
X150738531Y-101181334D01*
X150640282Y-101232975D01*
X150522147Y-101259010D01*
X150389112Y-101256622D01*
X150276800Y-101232798D01*
X150164478Y-101181932D01*
X150070497Y-101105496D01*
X150004299Y-101012301D01*
X149983776Y-100959373D01*
X149973187Y-100899702D01*
X149965070Y-100813026D01*
X149960699Y-100714658D01*
X149960285Y-100677127D01*
X149960958Y-100584722D01*
X149964036Y-100527479D01*
X149970912Y-100498239D01*
X149982976Y-100489845D01*
X149996085Y-100492854D01*
X150030000Y-100502467D01*
X150095899Y-100518492D01*
X150184321Y-100538707D01*
X150285807Y-100560891D01*
X150287127Y-100561174D01*
X150459666Y-100600539D01*
X150594616Y-100637956D01*
X150696472Y-100676074D01*
X150769729Y-100717538D01*
X150818881Y-100764996D01*
X150848422Y-100821094D01*
X150862847Y-100888479D01*
X150864094Y-100900951D01*
X151248019Y-100900951D01*
X151236414Y-100795604D01*
X151196027Y-100671770D01*
X151134689Y-100569329D01*
X151100677Y-100532808D01*
X151017973Y-100472290D01*
X150907549Y-100417729D01*
X150766128Y-100368053D01*
X150590431Y-100322190D01*
X150377183Y-100279068D01*
X150267084Y-100260105D01*
X150171506Y-100242091D01*
X150087100Y-100222051D01*
X150025730Y-100203004D01*
X150005066Y-100193415D01*
X149976520Y-100171127D01*
X149963401Y-100142733D01*
X149962338Y-100094968D01*
X149966912Y-100043362D01*
X149994326Y-99923620D01*
X150049674Y-99834323D01*
X150134547Y-99774146D01*
X150250531Y-99741765D01*
X150336589Y-99735110D01*
X150493767Y-99741790D01*
X150617575Y-99771148D01*
X150712204Y-99826330D01*
X150781843Y-99910487D01*
X150830682Y-100026768D01*
X150853770Y-100123767D01*
X150862683Y-100138992D01*
X150887576Y-100146218D01*
X150936662Y-100146070D01*
X151018151Y-100139173D01*
X151034375Y-100137523D01*
X151119790Y-100128128D01*
X151171514Y-100119163D01*
X151197993Y-100106975D01*
X151207672Y-100087910D01*
X151209000Y-100061990D01*
X151190828Y-99938270D01*
X151140538Y-99811852D01*
X151064477Y-99697725D01*
X151046038Y-99676953D01*
X150917433Y-99568297D01*
X150763127Y-99490592D01*
X150581517Y-99443261D01*
X150371002Y-99425730D01*
X150345417Y-99425597D01*
X150156548Y-99438366D01*
G37*
X150156548Y-99438366D02*
X149992387Y-99474902D01*
X149856522Y-99533765D01*
X149752545Y-99613515D01*
X149698248Y-99685121D01*
X149671244Y-99737185D01*
X149649585Y-99792912D01*
X149632712Y-99857496D01*
X149620061Y-99936129D01*
X149611072Y-100034002D01*
X149605183Y-100156309D01*
X149601831Y-100308241D01*
X149600457Y-100494992D01*
X149600334Y-100590475D01*
X149600198Y-100764571D01*
X149599571Y-100901295D01*
X149598121Y-101005610D01*
X149595517Y-101082478D01*
X149591427Y-101136860D01*
X149585520Y-101173718D01*
X149577464Y-101198014D01*
X149566929Y-101214710D01*
X149558000Y-101224433D01*
X149504606Y-101256298D01*
X149452167Y-101266767D01*
X149388667Y-101266767D01*
X149388667Y-101541933D01*
X149560093Y-101541933D01*
X149691197Y-101535244D01*
X149788233Y-101513368D01*
X149857587Y-101473593D01*
X149905646Y-101413204D01*
X149917031Y-101390295D01*
X149953191Y-101309529D01*
X150004304Y-101364326D01*
X150088076Y-101431303D01*
X150200795Y-101488910D01*
X150329185Y-101530808D01*
X150372364Y-101540040D01*
X150501556Y-101557899D01*
X150616079Y-101557831D01*
X150739779Y-101539485D01*
X150764500Y-101534293D01*
X150919945Y-101483050D01*
X151049942Y-101403750D01*
X151138373Y-101313857D01*
X151197535Y-101220476D01*
X151233141Y-101121038D01*
X151249134Y-101002034D01*
X151251009Y-100928100D01*
X151248019Y-100900951D01*
X150864094Y-100900951D01*
X150855423Y-101012504D01*
X150811906Y-101106905D01*
X150738531Y-101181334D01*
X150640282Y-101232975D01*
X150522147Y-101259010D01*
X150389112Y-101256622D01*
X150276800Y-101232798D01*
X150164478Y-101181932D01*
X150070497Y-101105496D01*
X150004299Y-101012301D01*
X149983776Y-100959373D01*
X149973187Y-100899702D01*
X149965070Y-100813026D01*
X149960699Y-100714658D01*
X149960285Y-100677127D01*
X149960958Y-100584722D01*
X149964036Y-100527479D01*
X149970912Y-100498239D01*
X149982976Y-100489845D01*
X149996085Y-100492854D01*
X150030000Y-100502467D01*
X150095899Y-100518492D01*
X150184321Y-100538707D01*
X150285807Y-100560891D01*
X150287127Y-100561174D01*
X150459666Y-100600539D01*
X150594616Y-100637956D01*
X150696472Y-100676074D01*
X150769729Y-100717538D01*
X150818881Y-100764996D01*
X150848422Y-100821094D01*
X150862847Y-100888479D01*
X150864094Y-100900951D01*
X151248019Y-100900951D01*
X151236414Y-100795604D01*
X151196027Y-100671770D01*
X151134689Y-100569329D01*
X151100677Y-100532808D01*
X151017973Y-100472290D01*
X150907549Y-100417729D01*
X150766128Y-100368053D01*
X150590431Y-100322190D01*
X150377183Y-100279068D01*
X150267084Y-100260105D01*
X150171506Y-100242091D01*
X150087100Y-100222051D01*
X150025730Y-100203004D01*
X150005066Y-100193415D01*
X149976520Y-100171127D01*
X149963401Y-100142733D01*
X149962338Y-100094968D01*
X149966912Y-100043362D01*
X149994326Y-99923620D01*
X150049674Y-99834323D01*
X150134547Y-99774146D01*
X150250531Y-99741765D01*
X150336589Y-99735110D01*
X150493767Y-99741790D01*
X150617575Y-99771148D01*
X150712204Y-99826330D01*
X150781843Y-99910487D01*
X150830682Y-100026768D01*
X150853770Y-100123767D01*
X150862683Y-100138992D01*
X150887576Y-100146218D01*
X150936662Y-100146070D01*
X151018151Y-100139173D01*
X151034375Y-100137523D01*
X151119790Y-100128128D01*
X151171514Y-100119163D01*
X151197993Y-100106975D01*
X151207672Y-100087910D01*
X151209000Y-100061990D01*
X151190828Y-99938270D01*
X151140538Y-99811852D01*
X151064477Y-99697725D01*
X151046038Y-99676953D01*
X150917433Y-99568297D01*
X150763127Y-99490592D01*
X150581517Y-99443261D01*
X150371002Y-99425730D01*
X150345417Y-99425597D01*
X150156548Y-99438366D01*
G36*
X146479225Y-99443586D02*
G01*
X146300559Y-99497478D01*
X146145204Y-99585346D01*
X146014688Y-99705592D01*
X145910539Y-99856617D01*
X145834281Y-100036824D01*
X145787443Y-100244614D01*
X145774631Y-100372475D01*
X145762947Y-100568267D01*
X147277755Y-100568267D01*
X147264209Y-100667092D01*
X147222880Y-100825335D01*
X147147097Y-100967397D01*
X147041770Y-101086036D01*
X146925596Y-101166891D01*
X146834670Y-101198532D01*
X146719152Y-101214909D01*
X146593935Y-101216024D01*
X146473912Y-101201877D01*
X146373978Y-101172470D01*
X146361834Y-101166838D01*
X146217473Y-101072197D01*
X146091672Y-100940891D01*
X146043973Y-100879599D01*
X145922445Y-100965182D01*
X145860686Y-101012622D01*
X145814659Y-101055396D01*
X145794139Y-101084397D01*
X145794051Y-101084801D01*
X145805386Y-101118445D01*
X145843392Y-101169659D01*
X145900500Y-101231117D01*
X145969140Y-101295495D01*
X146041743Y-101355466D01*
X146110741Y-101403705D01*
X146141624Y-101421187D01*
X146346543Y-101501585D01*
X146564895Y-101543036D01*
X146791675Y-101544700D01*
X146845363Y-101539262D01*
X146997345Y-101504282D01*
X147150917Y-101440123D01*
X147288677Y-101354802D01*
X147342256Y-101310368D01*
X147421887Y-101219237D01*
X147498237Y-101100331D01*
X147563371Y-100967953D01*
X147609357Y-100836406D01*
X147612988Y-100822267D01*
X147628920Y-100727252D01*
X147638323Y-100607247D01*
X147641208Y-100475863D01*
X147637581Y-100346708D01*
X147630897Y-100271933D01*
X147255545Y-100271933D01*
X146146804Y-100271933D01*
X146161215Y-100203142D01*
X146209598Y-100052459D01*
X146284635Y-99924926D01*
X146382024Y-99825848D01*
X146497461Y-99760531D01*
X146528670Y-99750089D01*
X146674097Y-99728363D01*
X146815880Y-99744967D01*
X146947719Y-99795979D01*
X147063319Y-99877478D01*
X147156381Y-99985541D01*
X147220609Y-100116250D01*
X147240839Y-100193543D01*
X147255545Y-100271933D01*
X147630897Y-100271933D01*
X147627451Y-100233393D01*
X147612589Y-100155517D01*
X147536972Y-99954931D01*
X147432651Y-99783842D01*
X147301834Y-99643979D01*
X147146731Y-99537071D01*
X146969552Y-99464848D01*
X146772506Y-99429040D01*
X146679678Y-99425267D01*
X146479225Y-99443586D01*
G37*
X146479225Y-99443586D02*
X146300559Y-99497478D01*
X146145204Y-99585346D01*
X146014688Y-99705592D01*
X145910539Y-99856617D01*
X145834281Y-100036824D01*
X145787443Y-100244614D01*
X145774631Y-100372475D01*
X145762947Y-100568267D01*
X147277755Y-100568267D01*
X147264209Y-100667092D01*
X147222880Y-100825335D01*
X147147097Y-100967397D01*
X147041770Y-101086036D01*
X146925596Y-101166891D01*
X146834670Y-101198532D01*
X146719152Y-101214909D01*
X146593935Y-101216024D01*
X146473912Y-101201877D01*
X146373978Y-101172470D01*
X146361834Y-101166838D01*
X146217473Y-101072197D01*
X146091672Y-100940891D01*
X146043973Y-100879599D01*
X145922445Y-100965182D01*
X145860686Y-101012622D01*
X145814659Y-101055396D01*
X145794139Y-101084397D01*
X145794051Y-101084801D01*
X145805386Y-101118445D01*
X145843392Y-101169659D01*
X145900500Y-101231117D01*
X145969140Y-101295495D01*
X146041743Y-101355466D01*
X146110741Y-101403705D01*
X146141624Y-101421187D01*
X146346543Y-101501585D01*
X146564895Y-101543036D01*
X146791675Y-101544700D01*
X146845363Y-101539262D01*
X146997345Y-101504282D01*
X147150917Y-101440123D01*
X147288677Y-101354802D01*
X147342256Y-101310368D01*
X147421887Y-101219237D01*
X147498237Y-101100331D01*
X147563371Y-100967953D01*
X147609357Y-100836406D01*
X147612988Y-100822267D01*
X147628920Y-100727252D01*
X147638323Y-100607247D01*
X147641208Y-100475863D01*
X147637581Y-100346708D01*
X147630897Y-100271933D01*
X147255545Y-100271933D01*
X146146804Y-100271933D01*
X146161215Y-100203142D01*
X146209598Y-100052459D01*
X146284635Y-99924926D01*
X146382024Y-99825848D01*
X146497461Y-99760531D01*
X146528670Y-99750089D01*
X146674097Y-99728363D01*
X146815880Y-99744967D01*
X146947719Y-99795979D01*
X147063319Y-99877478D01*
X147156381Y-99985541D01*
X147220609Y-100116250D01*
X147240839Y-100193543D01*
X147255545Y-100271933D01*
X147630897Y-100271933D01*
X147627451Y-100233393D01*
X147612589Y-100155517D01*
X147536972Y-99954931D01*
X147432651Y-99783842D01*
X147301834Y-99643979D01*
X147146731Y-99537071D01*
X146969552Y-99464848D01*
X146772506Y-99429040D01*
X146679678Y-99425267D01*
X146479225Y-99443586D01*
G36*
X144380810Y-99430118D02*
G01*
X144182716Y-99458118D01*
X144009639Y-99519951D01*
X143862004Y-99615385D01*
X143740233Y-99744194D01*
X143705184Y-99794946D01*
X143653953Y-99877429D01*
X143627655Y-99933780D01*
X143628478Y-99973567D01*
X143658607Y-100006361D01*
X143720229Y-100041730D01*
X143766886Y-100065030D01*
X143923524Y-100142537D01*
X143949687Y-100079373D01*
X144024699Y-99949455D01*
X144127101Y-99848740D01*
X144251561Y-99779576D01*
X144392744Y-99744311D01*
X144545315Y-99745295D01*
X144655461Y-99768639D01*
X144747930Y-99814380D01*
X144839501Y-99891711D01*
X144920704Y-99990767D01*
X144982071Y-100101681D01*
X144987304Y-100114434D01*
X145010148Y-100178963D01*
X145024874Y-100241799D01*
X145033131Y-100315198D01*
X145036570Y-100411412D01*
X145037006Y-100483600D01*
X145030725Y-100649613D01*
X145009866Y-100783902D01*
X144971406Y-100895471D01*
X144912323Y-100993319D01*
X144837056Y-101079060D01*
X144718818Y-101168989D01*
X144584002Y-101222752D01*
X144439074Y-101239697D01*
X144290501Y-101219170D01*
X144144749Y-101160517D01*
X144127587Y-101150787D01*
X144059321Y-101100242D01*
X143990574Y-101032528D01*
X143933489Y-100961044D01*
X143900570Y-100900269D01*
X143877718Y-100894463D01*
X143820766Y-100912171D01*
X143741842Y-100947422D01*
X143591657Y-101019660D01*
X143634590Y-101103816D01*
X143673303Y-101164562D01*
X143729751Y-101235968D01*
X143778662Y-101289111D01*
X143926907Y-101408269D01*
X144097122Y-101491274D01*
X144289208Y-101538097D01*
X144503063Y-101548709D01*
X144636750Y-101538293D01*
X144812185Y-101498056D01*
X144975220Y-101423656D01*
X145118557Y-101320003D01*
X145234898Y-101192008D01*
X145293398Y-101096485D01*
X145348484Y-100975885D01*
X145385879Y-100861156D01*
X145409509Y-100736661D01*
X145423301Y-100586763D01*
X145423885Y-100576904D01*
X145421332Y-100341087D01*
X145384655Y-100129557D01*
X145313430Y-99940977D01*
X145207230Y-99774009D01*
X145145330Y-99702847D01*
X145010102Y-99583947D01*
X144862074Y-99499804D01*
X144695972Y-99448536D01*
X144506519Y-99428261D01*
X144380810Y-99430118D01*
G37*
X144380810Y-99430118D02*
X144182716Y-99458118D01*
X144009639Y-99519951D01*
X143862004Y-99615385D01*
X143740233Y-99744194D01*
X143705184Y-99794946D01*
X143653953Y-99877429D01*
X143627655Y-99933780D01*
X143628478Y-99973567D01*
X143658607Y-100006361D01*
X143720229Y-100041730D01*
X143766886Y-100065030D01*
X143923524Y-100142537D01*
X143949687Y-100079373D01*
X144024699Y-99949455D01*
X144127101Y-99848740D01*
X144251561Y-99779576D01*
X144392744Y-99744311D01*
X144545315Y-99745295D01*
X144655461Y-99768639D01*
X144747930Y-99814380D01*
X144839501Y-99891711D01*
X144920704Y-99990767D01*
X144982071Y-100101681D01*
X144987304Y-100114434D01*
X145010148Y-100178963D01*
X145024874Y-100241799D01*
X145033131Y-100315198D01*
X145036570Y-100411412D01*
X145037006Y-100483600D01*
X145030725Y-100649613D01*
X145009866Y-100783902D01*
X144971406Y-100895471D01*
X144912323Y-100993319D01*
X144837056Y-101079060D01*
X144718818Y-101168989D01*
X144584002Y-101222752D01*
X144439074Y-101239697D01*
X144290501Y-101219170D01*
X144144749Y-101160517D01*
X144127587Y-101150787D01*
X144059321Y-101100242D01*
X143990574Y-101032528D01*
X143933489Y-100961044D01*
X143900570Y-100900269D01*
X143877718Y-100894463D01*
X143820766Y-100912171D01*
X143741842Y-100947422D01*
X143591657Y-101019660D01*
X143634590Y-101103816D01*
X143673303Y-101164562D01*
X143729751Y-101235968D01*
X143778662Y-101289111D01*
X143926907Y-101408269D01*
X144097122Y-101491274D01*
X144289208Y-101538097D01*
X144503063Y-101548709D01*
X144636750Y-101538293D01*
X144812185Y-101498056D01*
X144975220Y-101423656D01*
X145118557Y-101320003D01*
X145234898Y-101192008D01*
X145293398Y-101096485D01*
X145348484Y-100975885D01*
X145385879Y-100861156D01*
X145409509Y-100736661D01*
X145423301Y-100586763D01*
X145423885Y-100576904D01*
X145421332Y-100341087D01*
X145384655Y-100129557D01*
X145313430Y-99940977D01*
X145207230Y-99774009D01*
X145145330Y-99702847D01*
X145010102Y-99583947D01*
X144862074Y-99499804D01*
X144695972Y-99448536D01*
X144506519Y-99428261D01*
X144380810Y-99430118D01*
G36*
X137583742Y-99444187D02*
G01*
X137398990Y-99499769D01*
X137235387Y-99590247D01*
X137095808Y-99713851D01*
X136983123Y-99868815D01*
X136944027Y-99943850D01*
X136891497Y-100070911D01*
X136857569Y-100193404D01*
X136839223Y-100326345D01*
X136833442Y-100484750D01*
X136833429Y-100494183D01*
X136846745Y-100715426D01*
X136887650Y-100908146D01*
X136957582Y-101077110D01*
X137052201Y-101219949D01*
X137179239Y-101345447D01*
X137333738Y-101443011D01*
X137509509Y-101510391D01*
X137700362Y-101545340D01*
X137900107Y-101545609D01*
X137937661Y-101541663D01*
X138123834Y-101503726D01*
X138283522Y-101436773D01*
X138424108Y-101337188D01*
X138494390Y-101268883D01*
X138609682Y-101118284D01*
X138692028Y-100946961D01*
X138742466Y-100751909D01*
X138762037Y-100530121D01*
X138762375Y-100494183D01*
X138760966Y-100473017D01*
X138371284Y-100473017D01*
X138367175Y-100630558D01*
X138352800Y-100755678D01*
X138325370Y-100857625D01*
X138282091Y-100945646D01*
X138220173Y-101028987D01*
X138194897Y-101057339D01*
X138077209Y-101156474D01*
X137945601Y-101217131D01*
X137805327Y-101238478D01*
X137661644Y-101219683D01*
X137525626Y-101163243D01*
X137407050Y-101072513D01*
X137316483Y-100950544D01*
X137254308Y-100798172D01*
X137220909Y-100616234D01*
X137214810Y-100483600D01*
X137228935Y-100282509D01*
X137271490Y-100112468D01*
X137342743Y-99972920D01*
X137442962Y-99863306D01*
X137545643Y-99796036D01*
X137689338Y-99743465D01*
X137831666Y-99731284D01*
X137967873Y-99757686D01*
X138093204Y-99820862D01*
X138202908Y-99919005D01*
X138292229Y-100050307D01*
X138310209Y-100086778D01*
X138336482Y-100146987D01*
X138353915Y-100199392D01*
X138364306Y-100255373D01*
X138369455Y-100326311D01*
X138371162Y-100423588D01*
X138371284Y-100473017D01*
X138760966Y-100473017D01*
X138747517Y-100271048D01*
X138702146Y-100073093D01*
X138631234Y-99906361D01*
X138521603Y-99740951D01*
X138387573Y-99610101D01*
X138229400Y-99513955D01*
X138047338Y-99452658D01*
X137841643Y-99426357D01*
X137786773Y-99425267D01*
X137583742Y-99444187D01*
G37*
X137583742Y-99444187D02*
X137398990Y-99499769D01*
X137235387Y-99590247D01*
X137095808Y-99713851D01*
X136983123Y-99868815D01*
X136944027Y-99943850D01*
X136891497Y-100070911D01*
X136857569Y-100193404D01*
X136839223Y-100326345D01*
X136833442Y-100484750D01*
X136833429Y-100494183D01*
X136846745Y-100715426D01*
X136887650Y-100908146D01*
X136957582Y-101077110D01*
X137052201Y-101219949D01*
X137179239Y-101345447D01*
X137333738Y-101443011D01*
X137509509Y-101510391D01*
X137700362Y-101545340D01*
X137900107Y-101545609D01*
X137937661Y-101541663D01*
X138123834Y-101503726D01*
X138283522Y-101436773D01*
X138424108Y-101337188D01*
X138494390Y-101268883D01*
X138609682Y-101118284D01*
X138692028Y-100946961D01*
X138742466Y-100751909D01*
X138762037Y-100530121D01*
X138762375Y-100494183D01*
X138760966Y-100473017D01*
X138371284Y-100473017D01*
X138367175Y-100630558D01*
X138352800Y-100755678D01*
X138325370Y-100857625D01*
X138282091Y-100945646D01*
X138220173Y-101028987D01*
X138194897Y-101057339D01*
X138077209Y-101156474D01*
X137945601Y-101217131D01*
X137805327Y-101238478D01*
X137661644Y-101219683D01*
X137525626Y-101163243D01*
X137407050Y-101072513D01*
X137316483Y-100950544D01*
X137254308Y-100798172D01*
X137220909Y-100616234D01*
X137214810Y-100483600D01*
X137228935Y-100282509D01*
X137271490Y-100112468D01*
X137342743Y-99972920D01*
X137442962Y-99863306D01*
X137545643Y-99796036D01*
X137689338Y-99743465D01*
X137831666Y-99731284D01*
X137967873Y-99757686D01*
X138093204Y-99820862D01*
X138202908Y-99919005D01*
X138292229Y-100050307D01*
X138310209Y-100086778D01*
X138336482Y-100146987D01*
X138353915Y-100199392D01*
X138364306Y-100255373D01*
X138369455Y-100326311D01*
X138371162Y-100423588D01*
X138371284Y-100473017D01*
X138760966Y-100473017D01*
X138747517Y-100271048D01*
X138702146Y-100073093D01*
X138631234Y-99906361D01*
X138521603Y-99740951D01*
X138387573Y-99610101D01*
X138229400Y-99513955D01*
X138047338Y-99452658D01*
X137841643Y-99426357D01*
X137786773Y-99425267D01*
X137583742Y-99444187D01*
G36*
X134350454Y-99440536D02*
G01*
X134276189Y-99455207D01*
X134093656Y-99522232D01*
X133936436Y-99622120D01*
X133805911Y-99752812D01*
X133703467Y-99912249D01*
X133630487Y-100098372D01*
X133588356Y-100309122D01*
X133577793Y-100494183D01*
X133594106Y-100718909D01*
X133641973Y-100921785D01*
X133719788Y-101100330D01*
X133825943Y-101252064D01*
X133958831Y-101374505D01*
X134116844Y-101465175D01*
X134233602Y-101506266D01*
X134451983Y-101545660D01*
X134667152Y-101542932D01*
X134678304Y-101541630D01*
X134877532Y-101498448D01*
X135052090Y-101421098D01*
X135200862Y-101310591D01*
X135322731Y-101167935D01*
X135416581Y-100994141D01*
X135473419Y-100822959D01*
X135493525Y-100701790D01*
X135501590Y-100555538D01*
X135499346Y-100450791D01*
X135122105Y-100450791D01*
X135121454Y-100591846D01*
X135108181Y-100718790D01*
X135093939Y-100782109D01*
X135030572Y-100935690D01*
X134939704Y-101062051D01*
X134825367Y-101157778D01*
X134691590Y-101219455D01*
X134549384Y-101243433D01*
X134498447Y-101238719D01*
X134426894Y-101224289D01*
X134380051Y-101211857D01*
X134257784Y-101155004D01*
X134149141Y-101063835D01*
X134061213Y-100945861D01*
X134001953Y-100811403D01*
X133967786Y-100648114D01*
X133957555Y-100468900D01*
X133971296Y-100291730D01*
X134000719Y-100159792D01*
X134064185Y-100014671D01*
X134152134Y-99899079D01*
X134258913Y-99813437D01*
X134378870Y-99758165D01*
X134506352Y-99733685D01*
X134635708Y-99740416D01*
X134761284Y-99778779D01*
X134877429Y-99849194D01*
X134978490Y-99952083D01*
X135055846Y-100081304D01*
X135088549Y-100181686D01*
X135110886Y-100309459D01*
X135122105Y-100450791D01*
X135499346Y-100450791D01*
X135498228Y-100398624D01*
X135484051Y-100245470D01*
X135459675Y-100110498D01*
X135440259Y-100043817D01*
X135356356Y-99866954D01*
X135239980Y-99713006D01*
X135095895Y-99586940D01*
X134928870Y-99493724D01*
X134902075Y-99482861D01*
X134784085Y-99450712D01*
X134642039Y-99432466D01*
X134492105Y-99428835D01*
X134350454Y-99440536D01*
G37*
X134350454Y-99440536D02*
X134276189Y-99455207D01*
X134093656Y-99522232D01*
X133936436Y-99622120D01*
X133805911Y-99752812D01*
X133703467Y-99912249D01*
X133630487Y-100098372D01*
X133588356Y-100309122D01*
X133577793Y-100494183D01*
X133594106Y-100718909D01*
X133641973Y-100921785D01*
X133719788Y-101100330D01*
X133825943Y-101252064D01*
X133958831Y-101374505D01*
X134116844Y-101465175D01*
X134233602Y-101506266D01*
X134451983Y-101545660D01*
X134667152Y-101542932D01*
X134678304Y-101541630D01*
X134877532Y-101498448D01*
X135052090Y-101421098D01*
X135200862Y-101310591D01*
X135322731Y-101167935D01*
X135416581Y-100994141D01*
X135473419Y-100822959D01*
X135493525Y-100701790D01*
X135501590Y-100555538D01*
X135499346Y-100450791D01*
X135122105Y-100450791D01*
X135121454Y-100591846D01*
X135108181Y-100718790D01*
X135093939Y-100782109D01*
X135030572Y-100935690D01*
X134939704Y-101062051D01*
X134825367Y-101157778D01*
X134691590Y-101219455D01*
X134549384Y-101243433D01*
X134498447Y-101238719D01*
X134426894Y-101224289D01*
X134380051Y-101211857D01*
X134257784Y-101155004D01*
X134149141Y-101063835D01*
X134061213Y-100945861D01*
X134001953Y-100811403D01*
X133967786Y-100648114D01*
X133957555Y-100468900D01*
X133971296Y-100291730D01*
X134000719Y-100159792D01*
X134064185Y-100014671D01*
X134152134Y-99899079D01*
X134258913Y-99813437D01*
X134378870Y-99758165D01*
X134506352Y-99733685D01*
X134635708Y-99740416D01*
X134761284Y-99778779D01*
X134877429Y-99849194D01*
X134978490Y-99952083D01*
X135055846Y-100081304D01*
X135088549Y-100181686D01*
X135110886Y-100309459D01*
X135122105Y-100450791D01*
X135499346Y-100450791D01*
X135498228Y-100398624D01*
X135484051Y-100245470D01*
X135459675Y-100110498D01*
X135440259Y-100043817D01*
X135356356Y-99866954D01*
X135239980Y-99713006D01*
X135095895Y-99586940D01*
X134928870Y-99493724D01*
X134902075Y-99482861D01*
X134784085Y-99450712D01*
X134642039Y-99432466D01*
X134492105Y-99428835D01*
X134350454Y-99440536D01*
G36*
X166258500Y-101499600D02*
G01*
X166639500Y-101499600D01*
X166640975Y-100319558D01*
X166641361Y-100066592D01*
X166641897Y-99853061D01*
X166642672Y-99676065D01*
X166643775Y-99532704D01*
X166645295Y-99420080D01*
X166647322Y-99335294D01*
X166649946Y-99275447D01*
X166653256Y-99237639D01*
X166657341Y-99218972D01*
X166662290Y-99216546D01*
X166668194Y-99227461D01*
X166674115Y-99245350D01*
X166689229Y-99294820D01*
X166715436Y-99379448D01*
X166751100Y-99494015D01*
X166794584Y-99633305D01*
X166844254Y-99792099D01*
X166898471Y-99965182D01*
X166955600Y-100147336D01*
X167014005Y-100333343D01*
X167072049Y-100517986D01*
X167128096Y-100696048D01*
X167180510Y-100862312D01*
X167227655Y-101011561D01*
X167266592Y-101134475D01*
X167382484Y-101499600D01*
X167751107Y-101499600D01*
X168067238Y-100552392D01*
X168134046Y-100351886D01*
X168199074Y-100156087D01*
X168260601Y-99970229D01*
X168316902Y-99799544D01*
X168366254Y-99649265D01*
X168406933Y-99524626D01*
X168437217Y-99430858D01*
X168452384Y-99382933D01*
X168521399Y-99160683D01*
X168522366Y-100330142D01*
X168523334Y-101499600D01*
X168904334Y-101499600D01*
X168904334Y-98598538D01*
X168346884Y-98610350D01*
X167563168Y-100959850D01*
X167523228Y-100822267D01*
X167508940Y-100775225D01*
X167483070Y-100692348D01*
X167447034Y-100578087D01*
X167402246Y-100436896D01*
X167350123Y-100273227D01*
X167292081Y-100091532D01*
X167229536Y-99896264D01*
X167163904Y-99691876D01*
X167149638Y-99647517D01*
X166815989Y-98610350D01*
X166537245Y-98604444D01*
X166258500Y-98598538D01*
X166258500Y-101499600D01*
G37*
X166258500Y-101499600D02*
X166639500Y-101499600D01*
X166640975Y-100319558D01*
X166641361Y-100066592D01*
X166641897Y-99853061D01*
X166642672Y-99676065D01*
X166643775Y-99532704D01*
X166645295Y-99420080D01*
X166647322Y-99335294D01*
X166649946Y-99275447D01*
X166653256Y-99237639D01*
X166657341Y-99218972D01*
X166662290Y-99216546D01*
X166668194Y-99227461D01*
X166674115Y-99245350D01*
X166689229Y-99294820D01*
X166715436Y-99379448D01*
X166751100Y-99494015D01*
X166794584Y-99633305D01*
X166844254Y-99792099D01*
X166898471Y-99965182D01*
X166955600Y-100147336D01*
X167014005Y-100333343D01*
X167072049Y-100517986D01*
X167128096Y-100696048D01*
X167180510Y-100862312D01*
X167227655Y-101011561D01*
X167266592Y-101134475D01*
X167382484Y-101499600D01*
X167751107Y-101499600D01*
X168067238Y-100552392D01*
X168134046Y-100351886D01*
X168199074Y-100156087D01*
X168260601Y-99970229D01*
X168316902Y-99799544D01*
X168366254Y-99649265D01*
X168406933Y-99524626D01*
X168437217Y-99430858D01*
X168452384Y-99382933D01*
X168521399Y-99160683D01*
X168522366Y-100330142D01*
X168523334Y-101499600D01*
X168904334Y-101499600D01*
X168904334Y-98598538D01*
X168346884Y-98610350D01*
X167563168Y-100959850D01*
X167523228Y-100822267D01*
X167508940Y-100775225D01*
X167483070Y-100692348D01*
X167447034Y-100578087D01*
X167402246Y-100436896D01*
X167350123Y-100273227D01*
X167292081Y-100091532D01*
X167229536Y-99896264D01*
X167163904Y-99691876D01*
X167149638Y-99647517D01*
X166815989Y-98610350D01*
X166537245Y-98604444D01*
X166258500Y-98598538D01*
X166258500Y-101499600D01*
G36*
X162935334Y-101499600D02*
G01*
X163316334Y-101499600D01*
X163316334Y-98599767D01*
X162935334Y-98599767D01*
X162935334Y-101499600D01*
G37*
X162935334Y-101499600D02*
X163316334Y-101499600D01*
X163316334Y-98599767D01*
X162935334Y-98599767D01*
X162935334Y-101499600D01*
G36*
X160691667Y-101499600D02*
G01*
X161051500Y-101499600D01*
X161051500Y-99467600D01*
X160691667Y-99467600D01*
X160691667Y-101499600D01*
G37*
X160691667Y-101499600D02*
X161051500Y-101499600D01*
X161051500Y-99467600D01*
X160691667Y-99467600D01*
X160691667Y-101499600D01*
G36*
X159101627Y-99763840D02*
G01*
X159030546Y-99975950D01*
X158963268Y-100175602D01*
X158901009Y-100359262D01*
X158844985Y-100523396D01*
X158796411Y-100664472D01*
X158756502Y-100778956D01*
X158726475Y-100863315D01*
X158707545Y-100914015D01*
X158701099Y-100928006D01*
X158689650Y-100909541D01*
X158673188Y-100862339D01*
X158663409Y-100827558D01*
X158651946Y-100788258D01*
X158628794Y-100712869D01*
X158595280Y-100605582D01*
X158552732Y-100470592D01*
X158502475Y-100312091D01*
X158445839Y-100134271D01*
X158384148Y-99941326D01*
X158318732Y-99737449D01*
X158294914Y-99663392D01*
X157952625Y-98599767D01*
X157389667Y-98599767D01*
X157389667Y-101499600D01*
X157770667Y-101499600D01*
X157771680Y-100298392D01*
X157772694Y-99097183D01*
X157841388Y-99330017D01*
X157861968Y-99398364D01*
X157893680Y-99501824D01*
X157934889Y-99635145D01*
X157983962Y-99793077D01*
X158039264Y-99970369D01*
X158099160Y-100161770D01*
X158162017Y-100362030D01*
X158215501Y-100531957D01*
X158520919Y-101501064D01*
X158709701Y-101495040D01*
X158898484Y-101489017D01*
X159213247Y-100536517D01*
X159279622Y-100335343D01*
X159344249Y-100138867D01*
X159405422Y-99952314D01*
X159461437Y-99780913D01*
X159510587Y-99629889D01*
X159551166Y-99504469D01*
X159581470Y-99409881D01*
X159597006Y-99360448D01*
X159666002Y-99136879D01*
X159657764Y-100318239D01*
X159649527Y-101499600D01*
X160035500Y-101499600D01*
X160035500Y-98599767D01*
X159490670Y-98599767D01*
X159101627Y-99763840D01*
G37*
X159101627Y-99763840D02*
X159030546Y-99975950D01*
X158963268Y-100175602D01*
X158901009Y-100359262D01*
X158844985Y-100523396D01*
X158796411Y-100664472D01*
X158756502Y-100778956D01*
X158726475Y-100863315D01*
X158707545Y-100914015D01*
X158701099Y-100928006D01*
X158689650Y-100909541D01*
X158673188Y-100862339D01*
X158663409Y-100827558D01*
X158651946Y-100788258D01*
X158628794Y-100712869D01*
X158595280Y-100605582D01*
X158552732Y-100470592D01*
X158502475Y-100312091D01*
X158445839Y-100134271D01*
X158384148Y-99941326D01*
X158318732Y-99737449D01*
X158294914Y-99663392D01*
X157952625Y-98599767D01*
X157389667Y-98599767D01*
X157389667Y-101499600D01*
X157770667Y-101499600D01*
X157771680Y-100298392D01*
X157772694Y-99097183D01*
X157841388Y-99330017D01*
X157861968Y-99398364D01*
X157893680Y-99501824D01*
X157934889Y-99635145D01*
X157983962Y-99793077D01*
X158039264Y-99970369D01*
X158099160Y-100161770D01*
X158162017Y-100362030D01*
X158215501Y-100531957D01*
X158520919Y-101501064D01*
X158709701Y-101495040D01*
X158898484Y-101489017D01*
X159213247Y-100536517D01*
X159279622Y-100335343D01*
X159344249Y-100138867D01*
X159405422Y-99952314D01*
X159461437Y-99780913D01*
X159510587Y-99629889D01*
X159551166Y-99504469D01*
X159581470Y-99409881D01*
X159597006Y-99360448D01*
X159666002Y-99136879D01*
X159657764Y-100318239D01*
X159649527Y-101499600D01*
X160035500Y-101499600D01*
X160035500Y-98599767D01*
X159490670Y-98599767D01*
X159101627Y-99763840D01*
G36*
X151717000Y-101499600D02*
G01*
X152076834Y-101499600D01*
X152076834Y-99467600D01*
X151717000Y-99467600D01*
X151717000Y-101499600D01*
G37*
X151717000Y-101499600D02*
X152076834Y-101499600D01*
X152076834Y-99467600D01*
X151717000Y-99467600D01*
X151717000Y-101499600D01*
G36*
X147462500Y-98959600D02*
G01*
X148351500Y-98959600D01*
X148351500Y-101499600D01*
X148732500Y-101499600D01*
X148732500Y-98959600D01*
X149621500Y-98959600D01*
X149621500Y-98599767D01*
X147462500Y-98599767D01*
X147462500Y-98959600D01*
G37*
X147462500Y-98959600D02*
X148351500Y-98959600D01*
X148351500Y-101499600D01*
X148732500Y-101499600D01*
X148732500Y-98959600D01*
X149621500Y-98959600D01*
X149621500Y-98599767D01*
X147462500Y-98599767D01*
X147462500Y-98959600D01*
G36*
X142827000Y-99705825D02*
G01*
X142730177Y-99616576D01*
X142640145Y-99541310D01*
X142554041Y-99489483D01*
X142460544Y-99457218D01*
X142348335Y-99440635D01*
X142206092Y-99435858D01*
X142202584Y-99435857D01*
X142092165Y-99437156D01*
X142012083Y-99442209D01*
X141950390Y-99452759D01*
X141895138Y-99470549D01*
X141858802Y-99486012D01*
X141730445Y-99566374D01*
X141628374Y-99679697D01*
X141554978Y-99819372D01*
X141542103Y-99853030D01*
X141531622Y-99885818D01*
X141523239Y-99922438D01*
X141516656Y-99967596D01*
X141511576Y-100025993D01*
X141507700Y-100102334D01*
X141504732Y-100201322D01*
X141502374Y-100327661D01*
X141500329Y-100486055D01*
X141498298Y-100681206D01*
X141497900Y-100721725D01*
X141490292Y-101499600D01*
X141872434Y-101499600D01*
X141878759Y-100774642D01*
X141885084Y-100049683D01*
X141938000Y-99956308D01*
X141998607Y-99868655D01*
X142069340Y-99810849D01*
X142163077Y-99773863D01*
X142215570Y-99761730D01*
X142360820Y-99752930D01*
X142496696Y-99784944D01*
X142619416Y-99856622D01*
X142666563Y-99898715D01*
X142708200Y-99942193D01*
X142741948Y-99984167D01*
X142768632Y-100029518D01*
X142789079Y-100083127D01*
X142804114Y-100149875D01*
X142814562Y-100234642D01*
X142821249Y-100342311D01*
X142825000Y-100477761D01*
X142826642Y-100645873D01*
X142827000Y-100847204D01*
X142827000Y-101499600D01*
X143208000Y-101499600D01*
X143208000Y-98599767D01*
X142827000Y-98599767D01*
X142827000Y-99705825D01*
G37*
X142827000Y-99705825D02*
X142730177Y-99616576D01*
X142640145Y-99541310D01*
X142554041Y-99489483D01*
X142460544Y-99457218D01*
X142348335Y-99440635D01*
X142206092Y-99435858D01*
X142202584Y-99435857D01*
X142092165Y-99437156D01*
X142012083Y-99442209D01*
X141950390Y-99452759D01*
X141895138Y-99470549D01*
X141858802Y-99486012D01*
X141730445Y-99566374D01*
X141628374Y-99679697D01*
X141554978Y-99819372D01*
X141542103Y-99853030D01*
X141531622Y-99885818D01*
X141523239Y-99922438D01*
X141516656Y-99967596D01*
X141511576Y-100025993D01*
X141507700Y-100102334D01*
X141504732Y-100201322D01*
X141502374Y-100327661D01*
X141500329Y-100486055D01*
X141498298Y-100681206D01*
X141497900Y-100721725D01*
X141490292Y-101499600D01*
X141872434Y-101499600D01*
X141878759Y-100774642D01*
X141885084Y-100049683D01*
X141938000Y-99956308D01*
X141998607Y-99868655D01*
X142069340Y-99810849D01*
X142163077Y-99773863D01*
X142215570Y-99761730D01*
X142360820Y-99752930D01*
X142496696Y-99784944D01*
X142619416Y-99856622D01*
X142666563Y-99898715D01*
X142708200Y-99942193D01*
X142741948Y-99984167D01*
X142768632Y-100029518D01*
X142789079Y-100083127D01*
X142804114Y-100149875D01*
X142814562Y-100234642D01*
X142821249Y-100342311D01*
X142825000Y-100477761D01*
X142826642Y-100645873D01*
X142827000Y-100847204D01*
X142827000Y-101499600D01*
X143208000Y-101499600D01*
X143208000Y-98599767D01*
X142827000Y-98599767D01*
X142827000Y-99705825D01*
G36*
X139783779Y-99433444D02*
G01*
X139627431Y-99466169D01*
X139498761Y-99528513D01*
X139395470Y-99621593D01*
X139315257Y-99746523D01*
X139315135Y-99746771D01*
X139288330Y-99808334D01*
X139266220Y-99876753D01*
X139248391Y-99956509D01*
X139234426Y-100052082D01*
X139223910Y-100167950D01*
X139216428Y-100308594D01*
X139211564Y-100478492D01*
X139208904Y-100682126D01*
X139208047Y-100901642D01*
X139207500Y-101499600D01*
X139588500Y-101499600D01*
X139588500Y-100847880D01*
X139589170Y-100634053D01*
X139591523Y-100457860D01*
X139596079Y-100314620D01*
X139603354Y-100199649D01*
X139613867Y-100108266D01*
X139628135Y-100035788D01*
X139646676Y-99977532D01*
X139670008Y-99928816D01*
X139694324Y-99890947D01*
X139771500Y-99818646D01*
X139879708Y-99773473D01*
X140016784Y-99756290D01*
X140033000Y-99756144D01*
X140174447Y-99771996D01*
X140293432Y-99821273D01*
X140397055Y-99907095D01*
X140410758Y-99922224D01*
X140447469Y-99964935D01*
X140477114Y-100004115D01*
X140500503Y-100044764D01*
X140518449Y-100091882D01*
X140531762Y-100150467D01*
X140541253Y-100225520D01*
X140547733Y-100322039D01*
X140552013Y-100445026D01*
X140554905Y-100599478D01*
X140557219Y-100790396D01*
X140557620Y-100827558D01*
X140564855Y-101499600D01*
X140922000Y-101499600D01*
X140922000Y-99467600D01*
X140562167Y-99467600D01*
X140562167Y-99731245D01*
X140497914Y-99653295D01*
X140441592Y-99600335D01*
X140362229Y-99544677D01*
X140294223Y-99506699D01*
X140212526Y-99469985D01*
X140139371Y-99447537D01*
X140056682Y-99435036D01*
X139970105Y-99429225D01*
X139783779Y-99433444D01*
G37*
X139783779Y-99433444D02*
X139627431Y-99466169D01*
X139498761Y-99528513D01*
X139395470Y-99621593D01*
X139315257Y-99746523D01*
X139315135Y-99746771D01*
X139288330Y-99808334D01*
X139266220Y-99876753D01*
X139248391Y-99956509D01*
X139234426Y-100052082D01*
X139223910Y-100167950D01*
X139216428Y-100308594D01*
X139211564Y-100478492D01*
X139208904Y-100682126D01*
X139208047Y-100901642D01*
X139207500Y-101499600D01*
X139588500Y-101499600D01*
X139588500Y-100847880D01*
X139589170Y-100634053D01*
X139591523Y-100457860D01*
X139596079Y-100314620D01*
X139603354Y-100199649D01*
X139613867Y-100108266D01*
X139628135Y-100035788D01*
X139646676Y-99977532D01*
X139670008Y-99928816D01*
X139694324Y-99890947D01*
X139771500Y-99818646D01*
X139879708Y-99773473D01*
X140016784Y-99756290D01*
X140033000Y-99756144D01*
X140174447Y-99771996D01*
X140293432Y-99821273D01*
X140397055Y-99907095D01*
X140410758Y-99922224D01*
X140447469Y-99964935D01*
X140477114Y-100004115D01*
X140500503Y-100044764D01*
X140518449Y-100091882D01*
X140531762Y-100150467D01*
X140541253Y-100225520D01*
X140547733Y-100322039D01*
X140552013Y-100445026D01*
X140554905Y-100599478D01*
X140557219Y-100790396D01*
X140557620Y-100827558D01*
X140564855Y-101499600D01*
X140922000Y-101499600D01*
X140922000Y-99467600D01*
X140562167Y-99467600D01*
X140562167Y-99731245D01*
X140497914Y-99653295D01*
X140441592Y-99600335D01*
X140362229Y-99544677D01*
X140294223Y-99506699D01*
X140212526Y-99469985D01*
X140139371Y-99447537D01*
X140056682Y-99435036D01*
X139970105Y-99429225D01*
X139783779Y-99433444D01*
G36*
X135990167Y-101499600D02*
G01*
X136350000Y-101499600D01*
X136350000Y-98599767D01*
X135990167Y-98599767D01*
X135990167Y-101499600D01*
G37*
X135990167Y-101499600D02*
X136350000Y-101499600D01*
X136350000Y-98599767D01*
X135990167Y-98599767D01*
X135990167Y-101499600D01*
G36*
X160691667Y-99065433D02*
G01*
X161051500Y-99065433D01*
X161051500Y-98599767D01*
X160691667Y-98599767D01*
X160691667Y-99065433D01*
G37*
X160691667Y-99065433D02*
X161051500Y-99065433D01*
X161051500Y-98599767D01*
X160691667Y-98599767D01*
X160691667Y-99065433D01*
G36*
X151717000Y-99065433D02*
G01*
X152076834Y-99065433D01*
X152076834Y-98599767D01*
X151717000Y-98599767D01*
X151717000Y-99065433D01*
G37*
X151717000Y-99065433D02*
X152076834Y-99065433D01*
X152076834Y-98599767D01*
X151717000Y-98599767D01*
X151717000Y-99065433D01*
G36*
X139103899Y-94440205D02*
G01*
X138934377Y-94495131D01*
X138777499Y-94585374D01*
X138768292Y-94592178D01*
X138699500Y-94643754D01*
X138699500Y-94472267D01*
X138189454Y-94472267D01*
X138195775Y-95609975D01*
X138197188Y-95858385D01*
X138198546Y-96068147D01*
X138200006Y-96242949D01*
X138201728Y-96386474D01*
X138203870Y-96502409D01*
X138206592Y-96594440D01*
X138210052Y-96666252D01*
X138214408Y-96721531D01*
X138219821Y-96763962D01*
X138226448Y-96797232D01*
X138234448Y-96825025D01*
X138243980Y-96851028D01*
X138249884Y-96865779D01*
X138331413Y-97013674D01*
X138444866Y-97134368D01*
X138589464Y-97227542D01*
X138764427Y-97292876D01*
X138968975Y-97330050D01*
X139202327Y-97338743D01*
X139376834Y-97328246D01*
X139556003Y-97299199D01*
X139714539Y-97249457D01*
X139815430Y-97199270D01*
X139918541Y-97116166D01*
X140006847Y-97006521D01*
X140073449Y-96882077D01*
X140111449Y-96754571D01*
X140117667Y-96684890D01*
X140117667Y-96616374D01*
X139943042Y-96602781D01*
X139817049Y-96593596D01*
X139727204Y-96589151D01*
X139667528Y-96589999D01*
X139632044Y-96596695D01*
X139614773Y-96609793D01*
X139609737Y-96629847D01*
X139609667Y-96633676D01*
X139592569Y-96704303D01*
X139547654Y-96781058D01*
X139484491Y-96850207D01*
X139432547Y-96887883D01*
X139380103Y-96913718D01*
X139325805Y-96928832D01*
X139255873Y-96935759D01*
X139164908Y-96937074D01*
X139015050Y-96925963D01*
X138898497Y-96891926D01*
X138812091Y-96831816D01*
X138752673Y-96742484D01*
X138717086Y-96620784D01*
X138702630Y-96476297D01*
X138695176Y-96289578D01*
X138793956Y-96364979D01*
X138904513Y-96434035D01*
X139026483Y-96478044D01*
X139168924Y-96499287D01*
X139332110Y-96500430D01*
X139444354Y-96493166D01*
X139529292Y-96480373D01*
X139601871Y-96459098D01*
X139655708Y-96436481D01*
X139784094Y-96360882D01*
X139903663Y-96260624D01*
X140000295Y-96148225D01*
X140026368Y-96107851D01*
X140103087Y-95940440D01*
X140151982Y-95753542D01*
X140173711Y-95555092D01*
X140169839Y-95391344D01*
X139667883Y-95391344D01*
X139666860Y-95546264D01*
X139638255Y-95712914D01*
X139581429Y-95851332D01*
X139499103Y-95959397D01*
X139394002Y-96034989D01*
X139268848Y-96075988D01*
X139126364Y-96080273D01*
X139009565Y-96058062D01*
X138942177Y-96026712D01*
X138867706Y-95972617D01*
X138836002Y-95943382D01*
X138760882Y-95850010D01*
X138711496Y-95742362D01*
X138685639Y-95612978D01*
X138681108Y-95454398D01*
X138682344Y-95423095D01*
X138705523Y-95249745D01*
X138756470Y-95106429D01*
X138834262Y-94994276D01*
X138937979Y-94914418D01*
X139066698Y-94867984D01*
X139143768Y-94857382D01*
X139285312Y-94865494D01*
X139408020Y-94909699D01*
X139509761Y-94987191D01*
X139588405Y-95095166D01*
X139641822Y-95230819D01*
X139667883Y-95391344D01*
X140169839Y-95391344D01*
X140168932Y-95353023D01*
X140138301Y-95155267D01*
X140082476Y-94969758D01*
X140002115Y-94804430D01*
X139907854Y-94677812D01*
X139775101Y-94563663D01*
X139621664Y-94482326D01*
X139454207Y-94434304D01*
X139279397Y-94420097D01*
X139103899Y-94440205D01*
G37*
X139103899Y-94440205D02*
X138934377Y-94495131D01*
X138777499Y-94585374D01*
X138768292Y-94592178D01*
X138699500Y-94643754D01*
X138699500Y-94472267D01*
X138189454Y-94472267D01*
X138195775Y-95609975D01*
X138197188Y-95858385D01*
X138198546Y-96068147D01*
X138200006Y-96242949D01*
X138201728Y-96386474D01*
X138203870Y-96502409D01*
X138206592Y-96594440D01*
X138210052Y-96666252D01*
X138214408Y-96721531D01*
X138219821Y-96763962D01*
X138226448Y-96797232D01*
X138234448Y-96825025D01*
X138243980Y-96851028D01*
X138249884Y-96865779D01*
X138331413Y-97013674D01*
X138444866Y-97134368D01*
X138589464Y-97227542D01*
X138764427Y-97292876D01*
X138968975Y-97330050D01*
X139202327Y-97338743D01*
X139376834Y-97328246D01*
X139556003Y-97299199D01*
X139714539Y-97249457D01*
X139815430Y-97199270D01*
X139918541Y-97116166D01*
X140006847Y-97006521D01*
X140073449Y-96882077D01*
X140111449Y-96754571D01*
X140117667Y-96684890D01*
X140117667Y-96616374D01*
X139943042Y-96602781D01*
X139817049Y-96593596D01*
X139727204Y-96589151D01*
X139667528Y-96589999D01*
X139632044Y-96596695D01*
X139614773Y-96609793D01*
X139609737Y-96629847D01*
X139609667Y-96633676D01*
X139592569Y-96704303D01*
X139547654Y-96781058D01*
X139484491Y-96850207D01*
X139432547Y-96887883D01*
X139380103Y-96913718D01*
X139325805Y-96928832D01*
X139255873Y-96935759D01*
X139164908Y-96937074D01*
X139015050Y-96925963D01*
X138898497Y-96891926D01*
X138812091Y-96831816D01*
X138752673Y-96742484D01*
X138717086Y-96620784D01*
X138702630Y-96476297D01*
X138695176Y-96289578D01*
X138793956Y-96364979D01*
X138904513Y-96434035D01*
X139026483Y-96478044D01*
X139168924Y-96499287D01*
X139332110Y-96500430D01*
X139444354Y-96493166D01*
X139529292Y-96480373D01*
X139601871Y-96459098D01*
X139655708Y-96436481D01*
X139784094Y-96360882D01*
X139903663Y-96260624D01*
X140000295Y-96148225D01*
X140026368Y-96107851D01*
X140103087Y-95940440D01*
X140151982Y-95753542D01*
X140173711Y-95555092D01*
X140169839Y-95391344D01*
X139667883Y-95391344D01*
X139666860Y-95546264D01*
X139638255Y-95712914D01*
X139581429Y-95851332D01*
X139499103Y-95959397D01*
X139394002Y-96034989D01*
X139268848Y-96075988D01*
X139126364Y-96080273D01*
X139009565Y-96058062D01*
X138942177Y-96026712D01*
X138867706Y-95972617D01*
X138836002Y-95943382D01*
X138760882Y-95850010D01*
X138711496Y-95742362D01*
X138685639Y-95612978D01*
X138681108Y-95454398D01*
X138682344Y-95423095D01*
X138705523Y-95249745D01*
X138756470Y-95106429D01*
X138834262Y-94994276D01*
X138937979Y-94914418D01*
X139066698Y-94867984D01*
X139143768Y-94857382D01*
X139285312Y-94865494D01*
X139408020Y-94909699D01*
X139509761Y-94987191D01*
X139588405Y-95095166D01*
X139641822Y-95230819D01*
X139667883Y-95391344D01*
X140169839Y-95391344D01*
X140168932Y-95353023D01*
X140138301Y-95155267D01*
X140082476Y-94969758D01*
X140002115Y-94804430D01*
X139907854Y-94677812D01*
X139775101Y-94563663D01*
X139621664Y-94482326D01*
X139454207Y-94434304D01*
X139279397Y-94420097D01*
X139103899Y-94440205D01*
G36*
X150577737Y-94458662D02*
G01*
X150418265Y-94504553D01*
X150287795Y-94571772D01*
X150204955Y-94642869D01*
X150167539Y-94687587D01*
X150137445Y-94733601D01*
X150113888Y-94785972D01*
X150096087Y-94849759D01*
X150083258Y-94930022D01*
X150074619Y-95031820D01*
X150069386Y-95160212D01*
X150066776Y-95320258D01*
X150066006Y-95517018D01*
X150066000Y-95540792D01*
X150065801Y-95722960D01*
X150064751Y-95867215D01*
X150062167Y-95977976D01*
X150057370Y-96059663D01*
X150049680Y-96116696D01*
X150038415Y-96153495D01*
X150022895Y-96174479D01*
X150002439Y-96184068D01*
X149976366Y-96186681D01*
X149966517Y-96186767D01*
X149942223Y-96189157D01*
X149927737Y-96202110D01*
X149920531Y-96234300D01*
X149918077Y-96294399D01*
X149917834Y-96353835D01*
X149918837Y-96440263D01*
X149926915Y-96496023D01*
X149949669Y-96527801D01*
X149994701Y-96542280D01*
X150069613Y-96546144D01*
X150136523Y-96546135D01*
X150273587Y-96534619D01*
X150382736Y-96502068D01*
X150459731Y-96450097D01*
X150487736Y-96412159D01*
X150510667Y-96374173D01*
X150530282Y-96370180D01*
X150561820Y-96395738D01*
X150663269Y-96463593D01*
X150795272Y-96514051D01*
X150948995Y-96545232D01*
X151115604Y-96555251D01*
X151263952Y-96545318D01*
X151429381Y-96506117D01*
X151572094Y-96435241D01*
X151660422Y-96363290D01*
X151730403Y-96282483D01*
X151776883Y-96198540D01*
X151804516Y-96099335D01*
X151817953Y-95972743D01*
X151819069Y-95949761D01*
X151819509Y-95932259D01*
X151314922Y-95932259D01*
X151294202Y-96016385D01*
X151242735Y-96089459D01*
X151183641Y-96131296D01*
X151099171Y-96156874D01*
X150992836Y-96164965D01*
X150880830Y-96156577D01*
X150779346Y-96132721D01*
X150715009Y-96102100D01*
X150636691Y-96030947D01*
X150585334Y-95938958D01*
X150558445Y-95820138D01*
X150552834Y-95712152D01*
X150553791Y-95629526D01*
X150557879Y-95581560D01*
X150566920Y-95560602D01*
X150582740Y-95558998D01*
X150588845Y-95561056D01*
X150622839Y-95570645D01*
X150688802Y-95586548D01*
X150777234Y-95606555D01*
X150878637Y-95628458D01*
X150878932Y-95628520D01*
X150983185Y-95651957D01*
X151077126Y-95675668D01*
X151150197Y-95696825D01*
X151190886Y-95712095D01*
X151263433Y-95770260D01*
X151304722Y-95846933D01*
X151314922Y-95932259D01*
X151819509Y-95932259D01*
X151821501Y-95853168D01*
X151817418Y-95783559D01*
X151804564Y-95725801D01*
X151780681Y-95664758D01*
X151774539Y-95651164D01*
X151726997Y-95566737D01*
X151665129Y-95494835D01*
X151584572Y-95433392D01*
X151480963Y-95380345D01*
X151349938Y-95333628D01*
X151187135Y-95291179D01*
X150988190Y-95250932D01*
X150893373Y-95234285D01*
X150766895Y-95212174D01*
X150676305Y-95193536D01*
X150615639Y-95175473D01*
X150578933Y-95155089D01*
X150560223Y-95129489D01*
X150553546Y-95095775D01*
X150552834Y-95068898D01*
X150569601Y-94975385D01*
X150620288Y-94905568D01*
X150705473Y-94859059D01*
X150825731Y-94835474D01*
X150906696Y-94832133D01*
X151038250Y-94843301D01*
X151139543Y-94878542D01*
X151216859Y-94940562D01*
X151245620Y-94978105D01*
X151277218Y-95041170D01*
X151293192Y-95103907D01*
X151293667Y-95113534D01*
X151293667Y-95177041D01*
X151468292Y-95163447D01*
X151558400Y-95156987D01*
X151639329Y-95152154D01*
X151696153Y-95149818D01*
X151703670Y-95149727D01*
X151764422Y-95149600D01*
X151755412Y-95025046D01*
X151725187Y-94873243D01*
X151658840Y-94742100D01*
X151557763Y-94632650D01*
X151423343Y-94545927D01*
X151256971Y-94482965D01*
X151060036Y-94444800D01*
X150964300Y-94436143D01*
X150761364Y-94435419D01*
X150577737Y-94458662D01*
G37*
X150577737Y-94458662D02*
X150418265Y-94504553D01*
X150287795Y-94571772D01*
X150204955Y-94642869D01*
X150167539Y-94687587D01*
X150137445Y-94733601D01*
X150113888Y-94785972D01*
X150096087Y-94849759D01*
X150083258Y-94930022D01*
X150074619Y-95031820D01*
X150069386Y-95160212D01*
X150066776Y-95320258D01*
X150066006Y-95517018D01*
X150066000Y-95540792D01*
X150065801Y-95722960D01*
X150064751Y-95867215D01*
X150062167Y-95977976D01*
X150057370Y-96059663D01*
X150049680Y-96116696D01*
X150038415Y-96153495D01*
X150022895Y-96174479D01*
X150002439Y-96184068D01*
X149976366Y-96186681D01*
X149966517Y-96186767D01*
X149942223Y-96189157D01*
X149927737Y-96202110D01*
X149920531Y-96234300D01*
X149918077Y-96294399D01*
X149917834Y-96353835D01*
X149918837Y-96440263D01*
X149926915Y-96496023D01*
X149949669Y-96527801D01*
X149994701Y-96542280D01*
X150069613Y-96546144D01*
X150136523Y-96546135D01*
X150273587Y-96534619D01*
X150382736Y-96502068D01*
X150459731Y-96450097D01*
X150487736Y-96412159D01*
X150510667Y-96374173D01*
X150530282Y-96370180D01*
X150561820Y-96395738D01*
X150663269Y-96463593D01*
X150795272Y-96514051D01*
X150948995Y-96545232D01*
X151115604Y-96555251D01*
X151263952Y-96545318D01*
X151429381Y-96506117D01*
X151572094Y-96435241D01*
X151660422Y-96363290D01*
X151730403Y-96282483D01*
X151776883Y-96198540D01*
X151804516Y-96099335D01*
X151817953Y-95972743D01*
X151819069Y-95949761D01*
X151819509Y-95932259D01*
X151314922Y-95932259D01*
X151294202Y-96016385D01*
X151242735Y-96089459D01*
X151183641Y-96131296D01*
X151099171Y-96156874D01*
X150992836Y-96164965D01*
X150880830Y-96156577D01*
X150779346Y-96132721D01*
X150715009Y-96102100D01*
X150636691Y-96030947D01*
X150585334Y-95938958D01*
X150558445Y-95820138D01*
X150552834Y-95712152D01*
X150553791Y-95629526D01*
X150557879Y-95581560D01*
X150566920Y-95560602D01*
X150582740Y-95558998D01*
X150588845Y-95561056D01*
X150622839Y-95570645D01*
X150688802Y-95586548D01*
X150777234Y-95606555D01*
X150878637Y-95628458D01*
X150878932Y-95628520D01*
X150983185Y-95651957D01*
X151077126Y-95675668D01*
X151150197Y-95696825D01*
X151190886Y-95712095D01*
X151263433Y-95770260D01*
X151304722Y-95846933D01*
X151314922Y-95932259D01*
X151819509Y-95932259D01*
X151821501Y-95853168D01*
X151817418Y-95783559D01*
X151804564Y-95725801D01*
X151780681Y-95664758D01*
X151774539Y-95651164D01*
X151726997Y-95566737D01*
X151665129Y-95494835D01*
X151584572Y-95433392D01*
X151480963Y-95380345D01*
X151349938Y-95333628D01*
X151187135Y-95291179D01*
X150988190Y-95250932D01*
X150893373Y-95234285D01*
X150766895Y-95212174D01*
X150676305Y-95193536D01*
X150615639Y-95175473D01*
X150578933Y-95155089D01*
X150560223Y-95129489D01*
X150553546Y-95095775D01*
X150552834Y-95068898D01*
X150569601Y-94975385D01*
X150620288Y-94905568D01*
X150705473Y-94859059D01*
X150825731Y-94835474D01*
X150906696Y-94832133D01*
X151038250Y-94843301D01*
X151139543Y-94878542D01*
X151216859Y-94940562D01*
X151245620Y-94978105D01*
X151277218Y-95041170D01*
X151293192Y-95103907D01*
X151293667Y-95113534D01*
X151293667Y-95177041D01*
X151468292Y-95163447D01*
X151558400Y-95156987D01*
X151639329Y-95152154D01*
X151696153Y-95149818D01*
X151703670Y-95149727D01*
X151764422Y-95149600D01*
X151755412Y-95025046D01*
X151725187Y-94873243D01*
X151658840Y-94742100D01*
X151557763Y-94632650D01*
X151423343Y-94545927D01*
X151256971Y-94482965D01*
X151060036Y-94444800D01*
X150964300Y-94436143D01*
X150761364Y-94435419D01*
X150577737Y-94458662D01*
G36*
X153304500Y-93567257D02*
G01*
X153084731Y-93585678D01*
X152892080Y-93626557D01*
X152715998Y-93693025D01*
X152545939Y-93788213D01*
X152534008Y-93796019D01*
X152459085Y-93848947D01*
X152386210Y-93906335D01*
X152322227Y-93961990D01*
X152273975Y-94009719D01*
X152248296Y-94043328D01*
X152247614Y-94055298D01*
X152267020Y-94070619D01*
X152312111Y-94106387D01*
X152375443Y-94156695D01*
X152426084Y-94196952D01*
X152499602Y-94255307D01*
X152561946Y-94304593D01*
X152604868Y-94338301D01*
X152618542Y-94348846D01*
X152646916Y-94345130D01*
X152695720Y-94312890D01*
X152734959Y-94278801D01*
X152801381Y-94225993D01*
X152888918Y-94168681D01*
X152979573Y-94118562D01*
X152987000Y-94114934D01*
X153059307Y-94081089D01*
X153116576Y-94059039D01*
X153171695Y-94046262D01*
X153237554Y-94040238D01*
X153327040Y-94038447D01*
X153378584Y-94038350D01*
X153483230Y-94039108D01*
X153556601Y-94042699D01*
X153609748Y-94051101D01*
X153653718Y-94066290D01*
X153699563Y-94090243D01*
X153713285Y-94098228D01*
X153812428Y-94173435D01*
X153872636Y-94261263D01*
X153896406Y-94365644D01*
X153897009Y-94387600D01*
X153878958Y-94498379D01*
X153824706Y-94587245D01*
X153734107Y-94654428D01*
X153723540Y-94659722D01*
X153670069Y-94680187D01*
X153585041Y-94706424D01*
X153478357Y-94735645D01*
X153359917Y-94765061D01*
X153303430Y-94778065D01*
X153094311Y-94826651D01*
X152921556Y-94871157D01*
X152779657Y-94913733D01*
X152663105Y-94956530D01*
X152566391Y-95001699D01*
X152484009Y-95051392D01*
X152410449Y-95107759D01*
X152372633Y-95141564D01*
X152272383Y-95263482D01*
X152204068Y-95408555D01*
X152169551Y-95570141D01*
X152170697Y-95741597D01*
X152182843Y-95817796D01*
X152238880Y-95997687D01*
X152327780Y-96152262D01*
X152450197Y-96282134D01*
X152606788Y-96387918D01*
X152798209Y-96470227D01*
X152917216Y-96505366D01*
X153060511Y-96531186D01*
X153228901Y-96544388D01*
X153407079Y-96544992D01*
X153579737Y-96533015D01*
X153731567Y-96508477D01*
X153749000Y-96504360D01*
X153916777Y-96455710D01*
X154062584Y-96395393D01*
X154206694Y-96314513D01*
X154259456Y-96280384D01*
X154326434Y-96231290D01*
X154398987Y-96170853D01*
X154469602Y-96106312D01*
X154530768Y-96044906D01*
X154574973Y-95993874D01*
X154594706Y-95960456D01*
X154595082Y-95956936D01*
X154578627Y-95940128D01*
X154534167Y-95904168D01*
X154468348Y-95854224D01*
X154387817Y-95795460D01*
X154381921Y-95791236D01*
X154169344Y-95639122D01*
X154038547Y-95771708D01*
X153906011Y-95887106D01*
X153761551Y-95972965D01*
X153592921Y-96036116D01*
X153537334Y-96051263D01*
X153391811Y-96075045D01*
X153243481Y-96075954D01*
X153100988Y-96055860D01*
X152972977Y-96016632D01*
X152868093Y-95960138D01*
X152797058Y-95891216D01*
X152751067Y-95794715D01*
X152739061Y-95690091D01*
X152762147Y-95590854D01*
X152771022Y-95572933D01*
X152805451Y-95525143D01*
X152856014Y-95482207D01*
X152927200Y-95442242D01*
X153023501Y-95403365D01*
X153149405Y-95363694D01*
X153309403Y-95321346D01*
X153452649Y-95287118D01*
X153675999Y-95231448D01*
X153861577Y-95175557D01*
X154013884Y-95116948D01*
X154137418Y-95053121D01*
X154236680Y-94981577D01*
X154316171Y-94899818D01*
X154380390Y-94805345D01*
X154405506Y-94758017D01*
X154429894Y-94703206D01*
X154445381Y-94650137D01*
X154453908Y-94586665D01*
X154457414Y-94500646D01*
X154457917Y-94429933D01*
X154456887Y-94325250D01*
X154452184Y-94250321D01*
X154441667Y-94192595D01*
X154423197Y-94139520D01*
X154399774Y-94088949D01*
X154309983Y-93950985D01*
X154185712Y-93826401D01*
X154033995Y-93720284D01*
X153861865Y-93637722D01*
X153711959Y-93591523D01*
X153619613Y-93574826D01*
X153514184Y-93566265D01*
X153384221Y-93565159D01*
X153304500Y-93567257D01*
G37*
X153304500Y-93567257D02*
X153084731Y-93585678D01*
X152892080Y-93626557D01*
X152715998Y-93693025D01*
X152545939Y-93788213D01*
X152534008Y-93796019D01*
X152459085Y-93848947D01*
X152386210Y-93906335D01*
X152322227Y-93961990D01*
X152273975Y-94009719D01*
X152248296Y-94043328D01*
X152247614Y-94055298D01*
X152267020Y-94070619D01*
X152312111Y-94106387D01*
X152375443Y-94156695D01*
X152426084Y-94196952D01*
X152499602Y-94255307D01*
X152561946Y-94304593D01*
X152604868Y-94338301D01*
X152618542Y-94348846D01*
X152646916Y-94345130D01*
X152695720Y-94312890D01*
X152734959Y-94278801D01*
X152801381Y-94225993D01*
X152888918Y-94168681D01*
X152979573Y-94118562D01*
X152987000Y-94114934D01*
X153059307Y-94081089D01*
X153116576Y-94059039D01*
X153171695Y-94046262D01*
X153237554Y-94040238D01*
X153327040Y-94038447D01*
X153378584Y-94038350D01*
X153483230Y-94039108D01*
X153556601Y-94042699D01*
X153609748Y-94051101D01*
X153653718Y-94066290D01*
X153699563Y-94090243D01*
X153713285Y-94098228D01*
X153812428Y-94173435D01*
X153872636Y-94261263D01*
X153896406Y-94365644D01*
X153897009Y-94387600D01*
X153878958Y-94498379D01*
X153824706Y-94587245D01*
X153734107Y-94654428D01*
X153723540Y-94659722D01*
X153670069Y-94680187D01*
X153585041Y-94706424D01*
X153478357Y-94735645D01*
X153359917Y-94765061D01*
X153303430Y-94778065D01*
X153094311Y-94826651D01*
X152921556Y-94871157D01*
X152779657Y-94913733D01*
X152663105Y-94956530D01*
X152566391Y-95001699D01*
X152484009Y-95051392D01*
X152410449Y-95107759D01*
X152372633Y-95141564D01*
X152272383Y-95263482D01*
X152204068Y-95408555D01*
X152169551Y-95570141D01*
X152170697Y-95741597D01*
X152182843Y-95817796D01*
X152238880Y-95997687D01*
X152327780Y-96152262D01*
X152450197Y-96282134D01*
X152606788Y-96387918D01*
X152798209Y-96470227D01*
X152917216Y-96505366D01*
X153060511Y-96531186D01*
X153228901Y-96544388D01*
X153407079Y-96544992D01*
X153579737Y-96533015D01*
X153731567Y-96508477D01*
X153749000Y-96504360D01*
X153916777Y-96455710D01*
X154062584Y-96395393D01*
X154206694Y-96314513D01*
X154259456Y-96280384D01*
X154326434Y-96231290D01*
X154398987Y-96170853D01*
X154469602Y-96106312D01*
X154530768Y-96044906D01*
X154574973Y-95993874D01*
X154594706Y-95960456D01*
X154595082Y-95956936D01*
X154578627Y-95940128D01*
X154534167Y-95904168D01*
X154468348Y-95854224D01*
X154387817Y-95795460D01*
X154381921Y-95791236D01*
X154169344Y-95639122D01*
X154038547Y-95771708D01*
X153906011Y-95887106D01*
X153761551Y-95972965D01*
X153592921Y-96036116D01*
X153537334Y-96051263D01*
X153391811Y-96075045D01*
X153243481Y-96075954D01*
X153100988Y-96055860D01*
X152972977Y-96016632D01*
X152868093Y-95960138D01*
X152797058Y-95891216D01*
X152751067Y-95794715D01*
X152739061Y-95690091D01*
X152762147Y-95590854D01*
X152771022Y-95572933D01*
X152805451Y-95525143D01*
X152856014Y-95482207D01*
X152927200Y-95442242D01*
X153023501Y-95403365D01*
X153149405Y-95363694D01*
X153309403Y-95321346D01*
X153452649Y-95287118D01*
X153675999Y-95231448D01*
X153861577Y-95175557D01*
X154013884Y-95116948D01*
X154137418Y-95053121D01*
X154236680Y-94981577D01*
X154316171Y-94899818D01*
X154380390Y-94805345D01*
X154405506Y-94758017D01*
X154429894Y-94703206D01*
X154445381Y-94650137D01*
X154453908Y-94586665D01*
X154457414Y-94500646D01*
X154457917Y-94429933D01*
X154456887Y-94325250D01*
X154452184Y-94250321D01*
X154441667Y-94192595D01*
X154423197Y-94139520D01*
X154399774Y-94088949D01*
X154309983Y-93950985D01*
X154185712Y-93826401D01*
X154033995Y-93720284D01*
X153861865Y-93637722D01*
X153711959Y-93591523D01*
X153619613Y-93574826D01*
X153514184Y-93566265D01*
X153384221Y-93565159D01*
X153304500Y-93567257D01*
G36*
X145726834Y-94643754D02*
G01*
X145658042Y-94592178D01*
X145494604Y-94495205D01*
X145317334Y-94437551D01*
X145130521Y-94420279D01*
X145006808Y-94431082D01*
X144824496Y-94479645D01*
X144664088Y-94563661D01*
X144527207Y-94681426D01*
X144415476Y-94831233D01*
X144330517Y-95011377D01*
X144278635Y-95196332D01*
X144249969Y-95417761D01*
X144254493Y-95631987D01*
X144290443Y-95834453D01*
X144356053Y-96020603D01*
X144449558Y-96185878D01*
X144569192Y-96325723D01*
X144713190Y-96435581D01*
X144770886Y-96467025D01*
X144840570Y-96499313D01*
X144900151Y-96519916D01*
X144963760Y-96531778D01*
X145045529Y-96537842D01*
X145122358Y-96540243D01*
X145218975Y-96540703D01*
X145304659Y-96537857D01*
X145367270Y-96532266D01*
X145388304Y-96527961D01*
X145492058Y-96484502D01*
X145601290Y-96423206D01*
X145658042Y-96384274D01*
X145726834Y-96332779D01*
X145726834Y-96504267D01*
X146234834Y-96504267D01*
X146234834Y-95488267D01*
X145737340Y-95488267D01*
X145736296Y-95592667D01*
X145731616Y-95667403D01*
X145721103Y-95725117D01*
X145702561Y-95778452D01*
X145677566Y-95832401D01*
X145599251Y-95953514D01*
X145499261Y-96039339D01*
X145374194Y-96092773D01*
X145370799Y-96093697D01*
X145253268Y-96111018D01*
X145139132Y-96095372D01*
X145028334Y-96051808D01*
X144930620Y-95981501D01*
X144853707Y-95881420D01*
X144798167Y-95758983D01*
X144764575Y-95621605D01*
X144753504Y-95476703D01*
X144765530Y-95331692D01*
X144801225Y-95193988D01*
X144861164Y-95071009D01*
X144944699Y-94971269D01*
X145055532Y-94896851D01*
X145176373Y-94859664D01*
X145300500Y-94858054D01*
X145421189Y-94890364D01*
X145531717Y-94954939D01*
X145625361Y-95050124D01*
X145686712Y-95153971D01*
X145710697Y-95213632D01*
X145725811Y-95272221D01*
X145733968Y-95342362D01*
X145737078Y-95436677D01*
X145737340Y-95488267D01*
X146234834Y-95488267D01*
X146234834Y-93604433D01*
X145726834Y-93604433D01*
X145726834Y-94643754D01*
G37*
X145726834Y-94643754D02*
X145658042Y-94592178D01*
X145494604Y-94495205D01*
X145317334Y-94437551D01*
X145130521Y-94420279D01*
X145006808Y-94431082D01*
X144824496Y-94479645D01*
X144664088Y-94563661D01*
X144527207Y-94681426D01*
X144415476Y-94831233D01*
X144330517Y-95011377D01*
X144278635Y-95196332D01*
X144249969Y-95417761D01*
X144254493Y-95631987D01*
X144290443Y-95834453D01*
X144356053Y-96020603D01*
X144449558Y-96185878D01*
X144569192Y-96325723D01*
X144713190Y-96435581D01*
X144770886Y-96467025D01*
X144840570Y-96499313D01*
X144900151Y-96519916D01*
X144963760Y-96531778D01*
X145045529Y-96537842D01*
X145122358Y-96540243D01*
X145218975Y-96540703D01*
X145304659Y-96537857D01*
X145367270Y-96532266D01*
X145388304Y-96527961D01*
X145492058Y-96484502D01*
X145601290Y-96423206D01*
X145658042Y-96384274D01*
X145726834Y-96332779D01*
X145726834Y-96504267D01*
X146234834Y-96504267D01*
X146234834Y-95488267D01*
X145737340Y-95488267D01*
X145736296Y-95592667D01*
X145731616Y-95667403D01*
X145721103Y-95725117D01*
X145702561Y-95778452D01*
X145677566Y-95832401D01*
X145599251Y-95953514D01*
X145499261Y-96039339D01*
X145374194Y-96092773D01*
X145370799Y-96093697D01*
X145253268Y-96111018D01*
X145139132Y-96095372D01*
X145028334Y-96051808D01*
X144930620Y-95981501D01*
X144853707Y-95881420D01*
X144798167Y-95758983D01*
X144764575Y-95621605D01*
X144753504Y-95476703D01*
X144765530Y-95331692D01*
X144801225Y-95193988D01*
X144861164Y-95071009D01*
X144944699Y-94971269D01*
X145055532Y-94896851D01*
X145176373Y-94859664D01*
X145300500Y-94858054D01*
X145421189Y-94890364D01*
X145531717Y-94954939D01*
X145625361Y-95050124D01*
X145686712Y-95153971D01*
X145710697Y-95213632D01*
X145725811Y-95272221D01*
X145733968Y-95342362D01*
X145737078Y-95436677D01*
X145737340Y-95488267D01*
X146234834Y-95488267D01*
X146234834Y-93604433D01*
X145726834Y-93604433D01*
X145726834Y-94643754D01*
G36*
X143373618Y-95144308D02*
G01*
X143371567Y-95331817D01*
X143369436Y-95482009D01*
X143366883Y-95599898D01*
X143363566Y-95690501D01*
X143359142Y-95758833D01*
X143353272Y-95809909D01*
X143345612Y-95848745D01*
X143335822Y-95880355D01*
X143323559Y-95909755D01*
X143321105Y-95915106D01*
X143264069Y-96007106D01*
X143189956Y-96064570D01*
X143089875Y-96093727D01*
X143061098Y-96097195D01*
X142934713Y-96093323D01*
X142828017Y-96053614D01*
X142734887Y-95975785D01*
X142734555Y-95975417D01*
X142701087Y-95936330D01*
X142674082Y-95897556D01*
X142652767Y-95854109D01*
X142636374Y-95801002D01*
X142624132Y-95733250D01*
X142615270Y-95645866D01*
X142609017Y-95533864D01*
X142604604Y-95392258D01*
X142601259Y-95216062D01*
X142599587Y-95101975D01*
X142590856Y-94472267D01*
X142107334Y-94472267D01*
X142107334Y-96504267D01*
X142594167Y-96504267D01*
X142594167Y-96269960D01*
X142659115Y-96343932D01*
X142715318Y-96394824D01*
X142790860Y-96447105D01*
X142843618Y-96476396D01*
X142910716Y-96505910D01*
X142974746Y-96524490D01*
X143050313Y-96535071D01*
X143152020Y-96540591D01*
X143164962Y-96541001D01*
X143300042Y-96540450D01*
X143400548Y-96529875D01*
X143443326Y-96518563D01*
X143587850Y-96446570D01*
X143700630Y-96348633D01*
X143785014Y-96221162D01*
X143832471Y-96101505D01*
X143842445Y-96063908D01*
X143850719Y-96017772D01*
X143857544Y-95958493D01*
X143863169Y-95881466D01*
X143867843Y-95782086D01*
X143871817Y-95655748D01*
X143875340Y-95497847D01*
X143878662Y-95303779D01*
X143879787Y-95228975D01*
X143890868Y-94472267D01*
X143380485Y-94472267D01*
X143373618Y-95144308D01*
G37*
X143373618Y-95144308D02*
X143371567Y-95331817D01*
X143369436Y-95482009D01*
X143366883Y-95599898D01*
X143363566Y-95690501D01*
X143359142Y-95758833D01*
X143353272Y-95809909D01*
X143345612Y-95848745D01*
X143335822Y-95880355D01*
X143323559Y-95909755D01*
X143321105Y-95915106D01*
X143264069Y-96007106D01*
X143189956Y-96064570D01*
X143089875Y-96093727D01*
X143061098Y-96097195D01*
X142934713Y-96093323D01*
X142828017Y-96053614D01*
X142734887Y-95975785D01*
X142734555Y-95975417D01*
X142701087Y-95936330D01*
X142674082Y-95897556D01*
X142652767Y-95854109D01*
X142636374Y-95801002D01*
X142624132Y-95733250D01*
X142615270Y-95645866D01*
X142609017Y-95533864D01*
X142604604Y-95392258D01*
X142601259Y-95216062D01*
X142599587Y-95101975D01*
X142590856Y-94472267D01*
X142107334Y-94472267D01*
X142107334Y-96504267D01*
X142594167Y-96504267D01*
X142594167Y-96269960D01*
X142659115Y-96343932D01*
X142715318Y-96394824D01*
X142790860Y-96447105D01*
X142843618Y-96476396D01*
X142910716Y-96505910D01*
X142974746Y-96524490D01*
X143050313Y-96535071D01*
X143152020Y-96540591D01*
X143164962Y-96541001D01*
X143300042Y-96540450D01*
X143400548Y-96529875D01*
X143443326Y-96518563D01*
X143587850Y-96446570D01*
X143700630Y-96348633D01*
X143785014Y-96221162D01*
X143832471Y-96101505D01*
X143842445Y-96063908D01*
X143850719Y-96017772D01*
X143857544Y-95958493D01*
X143863169Y-95881466D01*
X143867843Y-95782086D01*
X143871817Y-95655748D01*
X143875340Y-95497847D01*
X143878662Y-95303779D01*
X143879787Y-95228975D01*
X143890868Y-94472267D01*
X143380485Y-94472267D01*
X143373618Y-95144308D01*
G36*
X158384500Y-94070100D02*
G01*
X159696834Y-94070100D01*
X159696834Y-94768600D01*
X158469167Y-94768600D01*
X158469167Y-95234267D01*
X159696834Y-95234267D01*
X159696834Y-96504267D01*
X160226000Y-96504267D01*
X160226000Y-93604433D01*
X158384500Y-93604433D01*
X158384500Y-94070100D01*
G37*
X158384500Y-94070100D02*
X159696834Y-94070100D01*
X159696834Y-94768600D01*
X158469167Y-94768600D01*
X158469167Y-95234267D01*
X159696834Y-95234267D01*
X159696834Y-96504267D01*
X160226000Y-96504267D01*
X160226000Y-93604433D01*
X158384500Y-93604433D01*
X158384500Y-94070100D01*
G36*
X157368500Y-94768600D02*
G01*
X156098500Y-94768600D01*
X156098500Y-93604433D01*
X155569334Y-93604433D01*
X155569334Y-96504267D01*
X156098500Y-96504267D01*
X156098500Y-95234267D01*
X157368500Y-95234267D01*
X157368500Y-96504267D01*
X157897667Y-96504267D01*
X157897667Y-93604433D01*
X157368500Y-93604433D01*
X157368500Y-94768600D01*
G37*
X157368500Y-94768600D02*
X156098500Y-94768600D01*
X156098500Y-93604433D01*
X155569334Y-93604433D01*
X155569334Y-96504267D01*
X156098500Y-96504267D01*
X156098500Y-95234267D01*
X157368500Y-95234267D01*
X157368500Y-96504267D01*
X157897667Y-96504267D01*
X157897667Y-93604433D01*
X157368500Y-93604433D01*
X157368500Y-94768600D01*
G36*
X148944167Y-96504267D02*
G01*
X149452167Y-96504267D01*
X149452167Y-93604433D01*
X148944167Y-93604433D01*
X148944167Y-96504267D01*
G37*
X148944167Y-96504267D02*
X149452167Y-96504267D01*
X149452167Y-93604433D01*
X148944167Y-93604433D01*
X148944167Y-96504267D01*
G36*
X146742834Y-94872827D02*
G01*
X147261417Y-95455019D01*
X147379248Y-95587599D01*
X147487691Y-95710184D01*
X147583627Y-95819207D01*
X147663940Y-95911102D01*
X147725514Y-95982301D01*
X147765231Y-96029238D01*
X147779974Y-96048345D01*
X147780000Y-96048489D01*
X147759788Y-96051601D01*
X147702968Y-96054385D01*
X147615266Y-96056715D01*
X147502405Y-96058466D01*
X147370112Y-96059516D01*
X147261417Y-96059767D01*
X146742834Y-96059767D01*
X146742834Y-96504267D01*
X148478500Y-96504267D01*
X148477295Y-96308475D01*
X148476089Y-96112683D01*
X147939977Y-95520017D01*
X147403864Y-94927350D01*
X147920016Y-94921688D01*
X148436167Y-94916027D01*
X148436167Y-94472267D01*
X146742834Y-94472267D01*
X146742834Y-94872827D01*
G37*
X146742834Y-94872827D02*
X147261417Y-95455019D01*
X147379248Y-95587599D01*
X147487691Y-95710184D01*
X147583627Y-95819207D01*
X147663940Y-95911102D01*
X147725514Y-95982301D01*
X147765231Y-96029238D01*
X147779974Y-96048345D01*
X147780000Y-96048489D01*
X147759788Y-96051601D01*
X147702968Y-96054385D01*
X147615266Y-96056715D01*
X147502405Y-96058466D01*
X147370112Y-96059516D01*
X147261417Y-96059767D01*
X146742834Y-96059767D01*
X146742834Y-96504267D01*
X148478500Y-96504267D01*
X148477295Y-96308475D01*
X148476089Y-96112683D01*
X147939977Y-95520017D01*
X147403864Y-94927350D01*
X147920016Y-94921688D01*
X148436167Y-94916027D01*
X148436167Y-94472267D01*
X146742834Y-94472267D01*
X146742834Y-94872827D01*
G36*
X140397513Y-94673828D02*
G01*
X140391608Y-94928307D01*
X140549876Y-94929697D01*
X140691533Y-94941692D01*
X140802962Y-94977345D01*
X140891263Y-95040353D01*
X140963541Y-95134412D01*
X140972406Y-95149600D01*
X141038417Y-95266017D01*
X141045143Y-95885142D01*
X141051868Y-96504267D01*
X141557000Y-96504267D01*
X141557000Y-94472267D01*
X141049000Y-94472267D01*
X141049000Y-94690427D01*
X140971035Y-94610148D01*
X140851088Y-94516305D01*
X140706950Y-94454051D01*
X140545665Y-94426399D01*
X140541000Y-94426154D01*
X140403417Y-94419350D01*
X140397513Y-94673828D01*
G37*
X140397513Y-94673828D02*
X140391608Y-94928307D01*
X140549876Y-94929697D01*
X140691533Y-94941692D01*
X140802962Y-94977345D01*
X140891263Y-95040353D01*
X140963541Y-95134412D01*
X140972406Y-95149600D01*
X141038417Y-95266017D01*
X141045143Y-95885142D01*
X141051868Y-96504267D01*
X141557000Y-96504267D01*
X141557000Y-94472267D01*
X141049000Y-94472267D01*
X141049000Y-94690427D01*
X140971035Y-94610148D01*
X140851088Y-94516305D01*
X140706950Y-94454051D01*
X140545665Y-94426399D01*
X140541000Y-94426154D01*
X140403417Y-94419350D01*
X140397513Y-94673828D01*
G36*
X149122440Y-77861129D02*
G01*
X148936289Y-77866142D01*
X148757621Y-77874206D01*
X148596022Y-77885093D01*
X148461079Y-77898576D01*
X148394129Y-77908290D01*
X148124956Y-77962650D01*
X147859225Y-78031405D01*
X147607494Y-78111308D01*
X147380319Y-78199113D01*
X147245810Y-78261398D01*
X147124370Y-78322438D01*
X146843644Y-78270885D01*
X146659654Y-78238367D01*
X146496818Y-78212932D01*
X146345340Y-78193768D01*
X146195427Y-78180062D01*
X146037285Y-78171002D01*
X145861120Y-78165777D01*
X145657138Y-78163573D01*
X145546917Y-78163350D01*
X145269055Y-78166228D01*
X145024718Y-78175591D01*
X144805441Y-78192532D01*
X144602760Y-78218143D01*
X144408211Y-78253518D01*
X144213330Y-78299750D01*
X144009653Y-78357931D01*
X143987721Y-78364682D01*
X143855222Y-78412115D01*
X143761432Y-78463820D01*
X143702776Y-78526085D01*
X143675679Y-78605199D01*
X143676565Y-78707448D01*
X143701859Y-78839123D01*
X143706769Y-78858795D01*
X143744328Y-78974794D01*
X143801592Y-79112715D01*
X143872649Y-79260777D01*
X143951587Y-79407200D01*
X144032491Y-79540202D01*
X144090746Y-79623850D01*
X144217333Y-79777249D01*
X144365731Y-79932658D01*
X144523009Y-80077510D01*
X144676236Y-80199234D01*
X144700250Y-80216237D01*
X144769951Y-80264931D01*
X144826618Y-80305083D01*
X144860945Y-80330080D01*
X144865905Y-80333979D01*
X144863044Y-80357059D01*
X144843691Y-80410986D01*
X144810666Y-80488934D01*
X144766787Y-80584078D01*
X144738430Y-80642521D01*
X144556591Y-81058103D01*
X144414847Y-81487108D01*
X144373970Y-81643349D01*
X144349508Y-81741718D01*
X144331064Y-81806301D01*
X144314836Y-81844491D01*
X144297024Y-81863682D01*
X144273827Y-81871266D01*
X144255750Y-81873321D01*
X144148269Y-81889086D01*
X144020308Y-81916667D01*
X143890410Y-81951467D01*
X143777117Y-81988886D01*
X143755027Y-81997514D01*
X143529836Y-82110995D01*
X143330492Y-82257421D01*
X143157509Y-82435816D01*
X143011405Y-82645204D01*
X142892695Y-82884612D01*
X142801896Y-83153065D01*
X142739523Y-83449586D01*
X142706093Y-83773201D01*
X142700125Y-83990309D01*
X142703799Y-84211881D01*
X142716071Y-84416304D01*
X142738527Y-84618814D01*
X142772754Y-84834646D01*
X142806365Y-85010767D01*
X142925841Y-85501633D01*
X143085155Y-85991268D01*
X143281875Y-86476104D01*
X143513570Y-86952572D01*
X143777809Y-87417104D01*
X144072160Y-87866132D01*
X144394193Y-88296086D01*
X144741476Y-88703399D01*
X145111577Y-89084502D01*
X145502066Y-89435827D01*
X145910511Y-89753805D01*
X146150167Y-89918593D01*
X146487349Y-90123095D01*
X146843195Y-90308329D01*
X147208856Y-90470555D01*
X147575481Y-90606030D01*
X147934219Y-90711013D01*
X148129250Y-90755268D01*
X148418473Y-90804360D01*
X148723115Y-90839527D01*
X149029795Y-90859891D01*
X149325133Y-90864575D01*
X149595747Y-90852702D01*
X149604430Y-90851991D01*
X150081508Y-90791332D01*
X150549077Y-90689635D01*
X151007302Y-90546830D01*
X151456349Y-90362845D01*
X151896381Y-90137613D01*
X152327565Y-89871062D01*
X152750065Y-89563123D01*
X152861010Y-89474233D01*
X153245641Y-89136135D01*
X153611440Y-88766777D01*
X153955995Y-88370140D01*
X154276893Y-87950207D01*
X154571722Y-87510962D01*
X154838069Y-87056387D01*
X155073521Y-86590465D01*
X155275666Y-86117178D01*
X155442092Y-85640509D01*
X155570385Y-85164440D01*
X155621448Y-84917244D01*
X155679730Y-84529813D01*
X155708322Y-84163270D01*
X155707733Y-83875757D01*
X155185846Y-83875757D01*
X155184754Y-84053783D01*
X155177684Y-84240564D01*
X155165044Y-84425112D01*
X155147238Y-84596441D01*
X155126157Y-84735600D01*
X155020610Y-85200330D01*
X154875623Y-85667375D01*
X154693613Y-86132709D01*
X154476996Y-86592306D01*
X154228188Y-87042140D01*
X153949607Y-87478184D01*
X153643668Y-87896414D01*
X153312787Y-88292802D01*
X152959381Y-88663323D01*
X152585866Y-89003952D01*
X152542500Y-89040385D01*
X152484834Y-89087909D01*
X152441544Y-89122625D01*
X152421220Y-89137656D01*
X152420785Y-89137811D01*
X152429839Y-89121762D01*
X152458430Y-89077843D01*
X152501977Y-89012973D01*
X152550117Y-88942475D01*
X152803124Y-88542491D01*
X153037210Y-88106824D01*
X153251479Y-87638097D01*
X153445037Y-87138929D01*
X153616986Y-86611942D01*
X153766433Y-86059758D01*
X153892481Y-85484998D01*
X153994236Y-84890283D01*
X154034247Y-84598017D01*
X154061789Y-84372964D01*
X154084015Y-84174179D01*
X154085767Y-84156015D01*
X153564298Y-84156015D01*
X153549213Y-84302932D01*
X153501701Y-84686657D01*
X153436573Y-85092926D01*
X153356608Y-85508142D01*
X153264586Y-85918705D01*
X153163287Y-86311016D01*
X153082470Y-86586460D01*
X152906237Y-87106913D01*
X152712281Y-87592676D01*
X152501017Y-88043109D01*
X152272858Y-88457573D01*
X152028219Y-88835428D01*
X151767514Y-89176034D01*
X151491156Y-89478752D01*
X151199560Y-89742943D01*
X150894076Y-89967354D01*
X150823719Y-90012941D01*
X150768137Y-90048060D01*
X150735754Y-90067428D01*
X150731029Y-90069600D01*
X150738279Y-90053550D01*
X150763831Y-90011343D01*
X150802276Y-89951887D01*
X150804924Y-89947892D01*
X150965691Y-89679578D01*
X151118505Y-89372184D01*
X151262658Y-89028340D01*
X151397445Y-88650675D01*
X151522160Y-88241816D01*
X151636098Y-87804393D01*
X151738553Y-87341034D01*
X151828819Y-86854368D01*
X151906191Y-86347024D01*
X151969963Y-85821631D01*
X152002447Y-85487017D01*
X152013698Y-85363203D01*
X152024384Y-85253209D01*
X152033744Y-85164308D01*
X152038746Y-85122652D01*
X151526500Y-85122652D01*
X151526500Y-85196278D01*
X151523925Y-85266648D01*
X151516708Y-85371397D01*
X151505614Y-85502918D01*
X151491407Y-85653602D01*
X151474854Y-85815843D01*
X151456717Y-85982031D01*
X151437762Y-86144560D01*
X151418754Y-86295822D01*
X151407920Y-86376017D01*
X151328292Y-86882761D01*
X151234624Y-87363369D01*
X151127635Y-87815277D01*
X151008047Y-88235917D01*
X150876579Y-88622723D01*
X150733953Y-88973129D01*
X150602554Y-89244100D01*
X150492420Y-89440445D01*
X150382978Y-89608135D01*
X150265338Y-89759750D01*
X150141362Y-89896751D01*
X149961495Y-90062291D01*
X149777299Y-90188323D01*
X149584018Y-90277669D01*
X149420417Y-90324464D01*
X149314700Y-90336936D01*
X149185126Y-90336880D01*
X149047887Y-90325480D01*
X148919179Y-90303920D01*
X148838334Y-90281913D01*
X148633501Y-90190367D01*
X148445129Y-90063480D01*
X147671063Y-90063480D01*
X147661643Y-90063235D01*
X147633196Y-90047426D01*
X147581252Y-90013759D01*
X147501341Y-89959943D01*
X147440449Y-89918616D01*
X147199105Y-89736082D01*
X146958131Y-89517990D01*
X146723637Y-89270727D01*
X146597399Y-89117100D01*
X145966639Y-89117100D01*
X145947184Y-89104089D01*
X145902429Y-89068643D01*
X145838989Y-89016141D01*
X145763479Y-88951962D01*
X145761754Y-88950478D01*
X145531961Y-88741046D01*
X145294272Y-88502813D01*
X145057750Y-88245767D01*
X144831463Y-87979893D01*
X144624474Y-87715178D01*
X144558408Y-87624850D01*
X144325233Y-87281152D01*
X144112579Y-86930017D01*
X143921010Y-86574102D01*
X143751087Y-86216063D01*
X143603372Y-85858557D01*
X143478428Y-85504238D01*
X143376817Y-85155764D01*
X143299102Y-84815790D01*
X143245844Y-84486974D01*
X143217605Y-84171970D01*
X143214949Y-83873436D01*
X143238437Y-83594027D01*
X143288632Y-83336399D01*
X143366096Y-83103209D01*
X143471390Y-82897113D01*
X143537384Y-82801461D01*
X143656941Y-82674916D01*
X143805318Y-82564813D01*
X143970113Y-82478569D01*
X144138925Y-82423604D01*
X144183227Y-82415145D01*
X144269016Y-82401427D01*
X144255091Y-82578972D01*
X144251671Y-82662813D01*
X144251239Y-82781816D01*
X144253505Y-82928938D01*
X144258178Y-83097137D01*
X144264966Y-83279367D01*
X144273578Y-83468586D01*
X144283723Y-83657751D01*
X144295109Y-83839818D01*
X144307446Y-84007743D01*
X144320104Y-84151053D01*
X144394279Y-84770014D01*
X144493025Y-85370953D01*
X144615547Y-85951386D01*
X144761051Y-86508824D01*
X144928744Y-87040781D01*
X145117832Y-87544771D01*
X145327521Y-88018307D01*
X145557016Y-88458903D01*
X145805524Y-88864071D01*
X145842140Y-88918343D01*
X145894793Y-88996795D01*
X145935901Y-89060644D01*
X145961155Y-89103010D01*
X145966639Y-89117100D01*
X146597399Y-89117100D01*
X146501731Y-89000676D01*
X146321708Y-88749240D01*
X146047709Y-88303428D01*
X145799358Y-87823938D01*
X145576657Y-87310769D01*
X145379604Y-86763921D01*
X145208200Y-86183395D01*
X145062445Y-85569191D01*
X144942339Y-84921308D01*
X144849882Y-84256789D01*
X144837100Y-84148395D01*
X145043842Y-84354681D01*
X145279331Y-84565098D01*
X145530368Y-84740380D01*
X145802235Y-84883484D01*
X146100214Y-84997364D01*
X146289935Y-85051922D01*
X146376785Y-85074225D01*
X146391626Y-85322459D01*
X146419225Y-85674388D01*
X146460904Y-86054621D01*
X146514915Y-86452196D01*
X146579511Y-86856155D01*
X146652943Y-87255537D01*
X146733464Y-87639383D01*
X146816221Y-87984683D01*
X146927963Y-88390932D01*
X147045424Y-88760177D01*
X147170719Y-89097597D01*
X147305965Y-89408368D01*
X147453276Y-89697666D01*
X147614769Y-89970670D01*
X147650704Y-90026448D01*
X147665927Y-90050454D01*
X147671063Y-90063480D01*
X148445129Y-90063480D01*
X148436845Y-90057900D01*
X148249126Y-89885267D01*
X148071101Y-89673227D01*
X147903532Y-89422536D01*
X147809825Y-89256707D01*
X147658019Y-88945004D01*
X147519266Y-88604587D01*
X147393210Y-88233918D01*
X147279492Y-87831457D01*
X147177755Y-87395665D01*
X147087640Y-86925003D01*
X147008789Y-86417932D01*
X146940846Y-85872912D01*
X146883451Y-85288405D01*
X146881241Y-85262674D01*
X146869310Y-85122998D01*
X147080933Y-85109129D01*
X147418470Y-85069818D01*
X147740537Y-84997916D01*
X148041025Y-84894989D01*
X148204729Y-84820839D01*
X148370558Y-84738091D01*
X148412034Y-84847971D01*
X148458003Y-84969034D01*
X148511560Y-85108886D01*
X148570731Y-85262479D01*
X148633542Y-85424767D01*
X148698020Y-85590703D01*
X148762189Y-85755240D01*
X148824077Y-85913332D01*
X148881710Y-86059933D01*
X148933114Y-86189995D01*
X148976314Y-86298472D01*
X149009338Y-86380317D01*
X149030210Y-86430484D01*
X149035801Y-86442756D01*
X149089985Y-86523357D01*
X149150807Y-86574973D01*
X149211287Y-86592274D01*
X149228514Y-86589927D01*
X149252533Y-86579969D01*
X149277149Y-86560160D01*
X149303845Y-86527359D01*
X149334107Y-86478428D01*
X149369418Y-86410228D01*
X149411263Y-86319619D01*
X149461126Y-86203463D01*
X149520492Y-86058620D01*
X149590845Y-85881952D01*
X149673670Y-85670318D01*
X149720916Y-85548620D01*
X150034103Y-84740323D01*
X150171760Y-84809611D01*
X150433524Y-84922346D01*
X150721073Y-85011851D01*
X151023011Y-85075136D01*
X151309542Y-85108031D01*
X151526500Y-85122652D01*
X152038746Y-85122652D01*
X152041014Y-85103773D01*
X152045141Y-85079558D01*
X152071231Y-85057517D01*
X152095427Y-85053100D01*
X152148488Y-85044783D01*
X152230587Y-85022084D01*
X152332331Y-84988379D01*
X152444330Y-84947046D01*
X152557193Y-84901460D01*
X152661529Y-84855000D01*
X152704198Y-84834201D01*
X152958409Y-84688358D01*
X153189269Y-84517395D01*
X153384942Y-84336993D01*
X153564298Y-84156015D01*
X154085767Y-84156015D01*
X154101647Y-83991454D01*
X154115408Y-83814582D01*
X154126020Y-83633356D01*
X154134205Y-83437569D01*
X154140685Y-83217014D01*
X154144704Y-83036975D01*
X154148214Y-82853191D01*
X154151276Y-82707641D01*
X154155100Y-82596257D01*
X154160889Y-82514973D01*
X154162819Y-82503075D01*
X153612785Y-82503075D01*
X153607923Y-82685567D01*
X153592222Y-82848110D01*
X153571399Y-82957600D01*
X153477018Y-83250580D01*
X153348422Y-83520854D01*
X153187820Y-83766270D01*
X152997419Y-83984678D01*
X152779428Y-84173927D01*
X152536055Y-84331868D01*
X152269510Y-84456350D01*
X151982000Y-84545221D01*
X151928667Y-84557170D01*
X151812019Y-84573617D01*
X151665359Y-84581862D01*
X151500120Y-84582343D01*
X151327730Y-84575501D01*
X151159622Y-84561774D01*
X151007225Y-84541603D01*
X150888679Y-84517200D01*
X150711225Y-84465554D01*
X150553668Y-84408887D01*
X150420324Y-84349395D01*
X150315510Y-84289270D01*
X150273353Y-84254965D01*
X149666138Y-84254965D01*
X149437466Y-84895707D01*
X149381788Y-85050518D01*
X149330362Y-85191216D01*
X149284939Y-85313185D01*
X149247271Y-85411809D01*
X149219112Y-85482474D01*
X149202212Y-85520563D01*
X149198222Y-85525877D01*
X149188807Y-85504047D01*
X149167101Y-85447153D01*
X149134881Y-85360058D01*
X149093924Y-85247626D01*
X149046008Y-85114720D01*
X148992908Y-84966203D01*
X148964016Y-84884922D01*
X148740383Y-84254539D01*
X148956253Y-83900608D01*
X149023862Y-83790343D01*
X149084730Y-83692173D01*
X149135159Y-83611970D01*
X149171455Y-83555609D01*
X149189920Y-83528962D01*
X149190685Y-83528116D01*
X149207068Y-83539464D01*
X149241816Y-83582985D01*
X149291892Y-83654326D01*
X149354260Y-83749134D01*
X149425885Y-83863055D01*
X149437692Y-83882260D01*
X149666138Y-84254965D01*
X150273353Y-84254965D01*
X150243541Y-84230706D01*
X150208732Y-84175896D01*
X150207522Y-84170999D01*
X150193606Y-84139072D01*
X150160204Y-84076492D01*
X150110435Y-83988393D01*
X150047424Y-83879914D01*
X149974291Y-83756191D01*
X149894159Y-83622358D01*
X149810149Y-83483554D01*
X149725384Y-83344914D01*
X149642986Y-83211574D01*
X149566077Y-83088672D01*
X149497778Y-82981342D01*
X149441212Y-82894722D01*
X149399501Y-82833948D01*
X149378195Y-82806595D01*
X149303569Y-82755094D01*
X149213984Y-82735589D01*
X149121597Y-82747564D01*
X149038563Y-82790506D01*
X149005237Y-82822387D01*
X148986295Y-82849651D01*
X148948322Y-82908569D01*
X148894175Y-82994555D01*
X148826711Y-83103026D01*
X148748786Y-83229397D01*
X148663256Y-83369084D01*
X148604602Y-83465399D01*
X148498283Y-83640962D01*
X148412168Y-83784745D01*
X148344006Y-83900856D01*
X148291545Y-83993401D01*
X148252534Y-84066489D01*
X148224721Y-84124225D01*
X148205854Y-84170717D01*
X148193681Y-84210073D01*
X148191502Y-84218929D01*
X148169557Y-84241577D01*
X148116541Y-84275672D01*
X148040746Y-84317080D01*
X147950462Y-84361669D01*
X147853981Y-84405305D01*
X147759594Y-84443855D01*
X147691846Y-84468032D01*
X147465462Y-84527855D01*
X147222378Y-84567062D01*
X146973301Y-84585286D01*
X146728941Y-84582158D01*
X146500004Y-84557312D01*
X146313535Y-84515350D01*
X146031994Y-84410622D01*
X145773019Y-84271509D01*
X145538916Y-84100791D01*
X145331987Y-83901253D01*
X145154536Y-83675676D01*
X145008866Y-83426843D01*
X144897281Y-83157536D01*
X144822085Y-82870537D01*
X144794258Y-82680214D01*
X144784836Y-82426799D01*
X144795733Y-82277651D01*
X144862967Y-81863206D01*
X144968903Y-81463281D01*
X145112566Y-81079981D01*
X145292982Y-80715408D01*
X145509177Y-80371668D01*
X145760176Y-80050863D01*
X145896223Y-79902005D01*
X146056138Y-79735660D01*
X146570448Y-79887100D01*
X146870167Y-79977618D01*
X147132472Y-80062169D01*
X147361526Y-80142752D01*
X147561491Y-80221366D01*
X147736529Y-80300013D01*
X147890804Y-80380693D01*
X148028477Y-80465406D01*
X148153712Y-80556152D01*
X148270671Y-80654932D01*
X148373437Y-80753507D01*
X148568574Y-80978399D01*
X148726882Y-81222199D01*
X148826205Y-81427166D01*
X148869382Y-81529339D01*
X148896760Y-81600364D01*
X148907468Y-81648709D01*
X148900634Y-81682842D01*
X148875386Y-81711229D01*
X148830853Y-81742338D01*
X148791116Y-81768052D01*
X148693409Y-81837267D01*
X148595370Y-81918404D01*
X148490198Y-82017733D01*
X148371087Y-82141522D01*
X148292617Y-82227350D01*
X148225614Y-82300940D01*
X148181694Y-82346158D01*
X148156021Y-82366455D01*
X148143758Y-82365278D01*
X148140068Y-82346077D01*
X148139906Y-82336238D01*
X148129846Y-82247859D01*
X148102559Y-82136497D01*
X148062127Y-82015750D01*
X148012631Y-81899215D01*
X148002637Y-81878867D01*
X147879610Y-81679683D01*
X147727439Y-81508408D01*
X147550551Y-81367162D01*
X147353376Y-81258068D01*
X147140339Y-81183245D01*
X146915870Y-81144815D01*
X146684395Y-81144898D01*
X146520584Y-81169003D01*
X146301751Y-81235431D01*
X146102023Y-81336754D01*
X145924189Y-81468806D01*
X145771038Y-81627419D01*
X145645357Y-81808427D01*
X145549936Y-82007663D01*
X145487562Y-82220960D01*
X145461024Y-82444150D01*
X145473111Y-82673068D01*
X145481000Y-82722499D01*
X145541738Y-82945246D01*
X145639319Y-83152555D01*
X145769760Y-83340146D01*
X145929080Y-83503737D01*
X146113295Y-83639049D01*
X146318423Y-83741801D01*
X146477406Y-83793365D01*
X146610394Y-83815891D01*
X146766955Y-83824770D01*
X146930654Y-83820200D01*
X147085061Y-83802381D01*
X147168073Y-83784986D01*
X147315348Y-83741812D01*
X147444421Y-83690798D01*
X147571524Y-83624544D01*
X147708532Y-83538551D01*
X147825257Y-83455396D01*
X147943794Y-83359178D01*
X148068828Y-83245456D01*
X148205041Y-83109793D01*
X148357118Y-82947751D01*
X148500317Y-82788267D01*
X148652992Y-82617586D01*
X148706609Y-82559676D01*
X147624297Y-82559676D01*
X147594558Y-82718343D01*
X147531203Y-82871322D01*
X147432523Y-83013734D01*
X147355678Y-83092053D01*
X147201295Y-83204557D01*
X147034506Y-83277142D01*
X146858540Y-83309194D01*
X146676626Y-83300100D01*
X146503951Y-83253811D01*
X146376320Y-83187370D01*
X146253030Y-83089259D01*
X146144887Y-82969645D01*
X146062696Y-82838695D01*
X146062655Y-82838612D01*
X146002513Y-82670938D01*
X145981593Y-82498098D01*
X145998277Y-82326077D01*
X146050951Y-82160861D01*
X146137997Y-82008436D01*
X146257798Y-81874788D01*
X146340741Y-81808872D01*
X146476964Y-81730240D01*
X146618097Y-81684652D01*
X146775949Y-81668953D01*
X146857317Y-81670893D01*
X147034923Y-81699468D01*
X147192598Y-81761376D01*
X147328630Y-81851740D01*
X147441311Y-81965682D01*
X147528928Y-82098324D01*
X147589772Y-82244789D01*
X147622132Y-82400199D01*
X147624297Y-82559676D01*
X148706609Y-82559676D01*
X148782359Y-82477862D01*
X148891238Y-82366741D01*
X148982446Y-82281867D01*
X149058802Y-82220887D01*
X149123122Y-82181446D01*
X149178226Y-82161190D01*
X149226931Y-82157765D01*
X149250242Y-82161747D01*
X149308559Y-82187988D01*
X149384024Y-82242435D01*
X149478164Y-82326511D01*
X149592506Y-82441640D01*
X149728576Y-82589243D01*
X149821391Y-82694109D01*
X150000366Y-82895745D01*
X150158653Y-83066846D01*
X150300454Y-83211122D01*
X150429969Y-83332279D01*
X150551399Y-83434029D01*
X150668947Y-83520079D01*
X150786812Y-83594139D01*
X150909197Y-83659918D01*
X150923250Y-83666874D01*
X151023748Y-83712422D01*
X151128975Y-83753936D01*
X151221477Y-83784726D01*
X151251334Y-83792618D01*
X151375591Y-83812836D01*
X151521689Y-83822912D01*
X151673963Y-83822861D01*
X151816745Y-83812697D01*
X151934366Y-83792435D01*
X151936195Y-83791968D01*
X152155830Y-83714266D01*
X152356749Y-83601029D01*
X152534975Y-83456313D01*
X152686533Y-83284173D01*
X152807445Y-83088665D01*
X152893736Y-82873845D01*
X152915407Y-82793216D01*
X152935585Y-82658374D01*
X152941257Y-82500333D01*
X152940250Y-82479900D01*
X152427219Y-82479900D01*
X152408653Y-82654614D01*
X152352982Y-82822047D01*
X152261345Y-82975683D01*
X152186742Y-83061374D01*
X152038317Y-83183366D01*
X151877954Y-83265376D01*
X151707651Y-83306830D01*
X151529401Y-83307156D01*
X151409239Y-83284787D01*
X151248836Y-83225655D01*
X151103897Y-83138091D01*
X150986005Y-83029314D01*
X150971917Y-83012300D01*
X150902074Y-82918870D01*
X150854799Y-82837521D01*
X150821954Y-82751193D01*
X150795398Y-82642827D01*
X150795209Y-82641921D01*
X150779390Y-82466729D01*
X150802845Y-82294663D01*
X150862606Y-82131593D01*
X150955702Y-81983390D01*
X151079164Y-81855923D01*
X151230023Y-81755063D01*
X151248612Y-81745624D01*
X151316840Y-81713664D01*
X151373304Y-81693519D01*
X151431810Y-81682493D01*
X151506164Y-81677892D01*
X151600084Y-81677017D01*
X151703596Y-81678356D01*
X151778737Y-81684015D01*
X151839430Y-81696454D01*
X151899595Y-81718133D01*
X151943729Y-81737751D01*
X152062219Y-81809140D01*
X152178092Y-81908147D01*
X152278386Y-82022060D01*
X152348487Y-82134695D01*
X152407542Y-82304421D01*
X152427219Y-82479900D01*
X152940250Y-82479900D01*
X152933122Y-82335399D01*
X152911877Y-82179882D01*
X152884354Y-82068276D01*
X152797278Y-81863647D01*
X152674587Y-81674723D01*
X152521709Y-81506843D01*
X152344074Y-81365347D01*
X152147111Y-81255578D01*
X152002750Y-81201119D01*
X151772579Y-81151262D01*
X151545722Y-81141435D01*
X151325790Y-81169334D01*
X151116391Y-81232656D01*
X150921135Y-81329098D01*
X150743633Y-81456356D01*
X150587493Y-81612128D01*
X150456325Y-81794110D01*
X150353739Y-81999999D01*
X150283344Y-82227492D01*
X150267563Y-82308283D01*
X150253998Y-82389216D01*
X150167336Y-82287116D01*
X150084747Y-82194558D01*
X149990005Y-82096024D01*
X149890188Y-81998130D01*
X149792372Y-81907496D01*
X149703635Y-81830741D01*
X149631054Y-81774482D01*
X149594208Y-81751136D01*
X149538264Y-81715903D01*
X149502263Y-81682539D01*
X149494888Y-81666470D01*
X149504726Y-81621433D01*
X149530753Y-81548678D01*
X149568757Y-81457584D01*
X149614532Y-81357527D01*
X149663868Y-81257886D01*
X149712557Y-81168039D01*
X149736925Y-81127173D01*
X149870151Y-80932511D01*
X150009672Y-80768829D01*
X150165192Y-80624912D01*
X150186253Y-80607743D01*
X150303202Y-80518498D01*
X150424349Y-80436650D01*
X150554145Y-80360270D01*
X150697043Y-80287425D01*
X150857493Y-80216187D01*
X151039949Y-80144624D01*
X151248861Y-80070806D01*
X151488683Y-79992802D01*
X151763866Y-79908682D01*
X151872774Y-79876434D01*
X152335463Y-79740399D01*
X152395978Y-79791319D01*
X152440234Y-79832310D01*
X152500181Y-79892636D01*
X152563510Y-79959876D01*
X152568987Y-79965877D01*
X152829652Y-80279519D01*
X153051971Y-80606396D01*
X153237746Y-80950110D01*
X153388783Y-81314266D01*
X153506886Y-81702466D01*
X153563267Y-81951311D01*
X153590363Y-82124405D01*
X153606900Y-82312173D01*
X153612785Y-82503075D01*
X154162819Y-82503075D01*
X154169852Y-82459722D01*
X154183194Y-82426436D01*
X154202123Y-82411049D01*
X154227844Y-82409492D01*
X154261565Y-82417700D01*
X154304491Y-82431604D01*
X154322605Y-82437274D01*
X154514765Y-82516482D01*
X154689531Y-82629936D01*
X154839662Y-82772078D01*
X154944714Y-82914932D01*
X155006654Y-83035720D01*
X155065475Y-83184764D01*
X155116519Y-83348016D01*
X155155128Y-83511426D01*
X155168477Y-83589921D01*
X155180556Y-83717474D01*
X155185846Y-83875757D01*
X155707733Y-83875757D01*
X155707616Y-83818910D01*
X155678002Y-83498028D01*
X155619872Y-83201920D01*
X155533618Y-82931881D01*
X155419629Y-82689205D01*
X155278297Y-82475188D01*
X155110014Y-82291126D01*
X154915170Y-82138312D01*
X154754417Y-82046258D01*
X154641726Y-81996613D01*
X154516482Y-81951287D01*
X154391064Y-81913940D01*
X154277852Y-81888235D01*
X154189226Y-81877834D01*
X154184823Y-81877776D01*
X154131219Y-81872823D01*
X154097090Y-81861901D01*
X154082853Y-81835278D01*
X154064095Y-81777640D01*
X154044085Y-81699581D01*
X154036763Y-81666433D01*
X153973786Y-81419019D01*
X153887319Y-81155094D01*
X153782594Y-80889242D01*
X153672529Y-80651313D01*
X153621192Y-80548201D01*
X153577625Y-80459574D01*
X153544897Y-80391770D01*
X153526080Y-80351125D01*
X153522795Y-80342235D01*
X153595673Y-80296934D01*
X153689224Y-80230269D01*
X153793470Y-80150075D01*
X153898432Y-80064186D01*
X153994134Y-79980440D01*
X154046747Y-79930767D01*
X154254476Y-79700651D01*
X154431883Y-79450454D01*
X154575166Y-79186406D01*
X154576462Y-79183064D01*
X153981834Y-79183064D01*
X153970849Y-79204473D01*
X153942477Y-79249531D01*
X153914088Y-79291953D01*
X153844162Y-79381305D01*
X153749352Y-79484623D01*
X153639820Y-79592121D01*
X153525724Y-79694014D01*
X153417225Y-79780517D01*
X153377691Y-79808600D01*
X153230417Y-79908684D01*
X153159388Y-79829767D01*
X153101656Y-79764143D01*
X153038205Y-79689902D01*
X153013522Y-79660354D01*
X152974043Y-79609935D01*
X152950348Y-79574365D01*
X152946969Y-79563443D01*
X152969060Y-79554336D01*
X153022929Y-79534373D01*
X153100352Y-79506550D01*
X153188084Y-79475617D01*
X153301687Y-79434899D01*
X153437268Y-79384782D01*
X153577555Y-79331725D01*
X153701375Y-79283722D01*
X153801249Y-79245025D01*
X153885435Y-79213641D01*
X153946974Y-79192067D01*
X153978907Y-79182800D01*
X153981834Y-79183064D01*
X154576462Y-79183064D01*
X154680522Y-78914734D01*
X154693481Y-78871409D01*
X154725794Y-78736897D01*
X153674917Y-78736897D01*
X153325667Y-78865955D01*
X153160135Y-78926418D01*
X153006352Y-78980871D01*
X152856120Y-79031953D01*
X152701244Y-79082303D01*
X152533527Y-79134563D01*
X152344771Y-79191371D01*
X152126781Y-79255368D01*
X152023917Y-79285204D01*
X151787896Y-79353780D01*
X151587401Y-79412787D01*
X151417146Y-79463895D01*
X151271844Y-79508776D01*
X151146207Y-79549102D01*
X151034949Y-79586543D01*
X150932783Y-79622771D01*
X150834422Y-79659457D01*
X150808185Y-79669521D01*
X150476288Y-79811976D01*
X150181880Y-79969588D01*
X149922189Y-80144422D01*
X149694447Y-80338544D01*
X149495881Y-80554021D01*
X149344194Y-80761248D01*
X149293118Y-80840691D01*
X149252143Y-80907582D01*
X149226123Y-80953793D01*
X149219334Y-80970250D01*
X149214567Y-80987550D01*
X149198378Y-80974688D01*
X149167935Y-80928574D01*
X149144457Y-80888558D01*
X148969127Y-80625563D01*
X148758408Y-80384995D01*
X148513345Y-80167720D01*
X148234980Y-79974607D01*
X147924359Y-79806523D01*
X147748250Y-79728395D01*
X147644774Y-79686733D01*
X147538196Y-79646239D01*
X147423309Y-79605215D01*
X147297391Y-79562797D01*
X145470637Y-79562797D01*
X145462150Y-79580828D01*
X145431565Y-79620109D01*
X145396066Y-79660459D01*
X145336435Y-79728011D01*
X145277792Y-79798467D01*
X145253200Y-79829799D01*
X145221987Y-79868611D01*
X145194860Y-79889236D01*
X145163612Y-79890265D01*
X145120033Y-79870283D01*
X145055915Y-79827879D01*
X144996584Y-79785652D01*
X144882638Y-79695670D01*
X144760605Y-79585479D01*
X144644290Y-79468380D01*
X144547497Y-79357678D01*
X144532173Y-79338100D01*
X144473335Y-79260402D01*
X144440051Y-79211996D01*
X144432052Y-79188628D01*
X144449067Y-79186046D01*
X144490824Y-79199999D01*
X144524226Y-79213174D01*
X144730902Y-79294548D01*
X144923299Y-79368185D01*
X145094181Y-79431377D01*
X145236311Y-79481417D01*
X145282334Y-79496766D01*
X145363117Y-79523625D01*
X145427148Y-79545806D01*
X145464824Y-79559944D01*
X145470637Y-79562797D01*
X147297391Y-79562797D01*
X147294906Y-79561960D01*
X147147778Y-79514777D01*
X146976718Y-79461965D01*
X146776518Y-79401825D01*
X146541970Y-79332658D01*
X146478250Y-79314019D01*
X146167160Y-79222144D01*
X145892371Y-79138794D01*
X145649070Y-79062408D01*
X145432443Y-78991426D01*
X145237676Y-78924290D01*
X145059955Y-78859441D01*
X144975891Y-78827350D01*
X144878282Y-78789081D01*
X144815672Y-78762716D01*
X144783425Y-78745286D01*
X144776906Y-78733823D01*
X144791477Y-78725358D01*
X144808842Y-78720372D01*
X144873245Y-78709362D01*
X144971907Y-78699626D01*
X145096762Y-78691441D01*
X145239749Y-78685083D01*
X145392801Y-78680829D01*
X145547857Y-78678957D01*
X145696852Y-78679744D01*
X145831722Y-78683466D01*
X145853834Y-78684467D01*
X146086410Y-78700556D01*
X146333828Y-78726176D01*
X146581261Y-78759370D01*
X146813882Y-78798184D01*
X146989441Y-78834258D01*
X147183132Y-78878579D01*
X147455108Y-78750279D01*
X147577252Y-78695392D01*
X147709192Y-78640593D01*
X147835112Y-78592209D01*
X147939197Y-78556567D01*
X147939870Y-78556359D01*
X148312819Y-78460841D01*
X148696346Y-78399698D01*
X149085160Y-78372534D01*
X149473969Y-78378952D01*
X149857485Y-78418556D01*
X150230415Y-78490949D01*
X150587469Y-78595735D01*
X150923356Y-78732516D01*
X151035984Y-78788421D01*
X151205454Y-78876859D01*
X151530019Y-78812671D01*
X151703301Y-78779111D01*
X151852303Y-78752399D01*
X151985602Y-78731777D01*
X152111770Y-78716491D01*
X152239382Y-78705782D01*
X152377012Y-78698896D01*
X152533235Y-78695076D01*
X152716625Y-78693566D01*
X152881167Y-78693500D01*
X153044018Y-78694463D01*
X153196885Y-78696698D01*
X153333565Y-78700012D01*
X153447854Y-78704211D01*
X153533551Y-78709101D01*
X153584451Y-78714487D01*
X153590250Y-78715691D01*
X153674917Y-78736897D01*
X154725794Y-78736897D01*
X154726893Y-78732324D01*
X154735712Y-78623731D01*
X154717267Y-78539905D01*
X154668885Y-78475121D01*
X154587893Y-78423654D01*
X154471618Y-78379779D01*
X154462680Y-78377024D01*
X154254726Y-78316609D01*
X154063037Y-78268176D01*
X153878861Y-78230561D01*
X153693448Y-78202600D01*
X153498047Y-78183130D01*
X153283908Y-78170985D01*
X153042279Y-78165003D01*
X152860000Y-78163863D01*
X152616206Y-78165331D01*
X152404467Y-78170668D01*
X152214614Y-78180745D01*
X152036475Y-78196431D01*
X151859879Y-78218595D01*
X151674655Y-78248107D01*
X151500116Y-78280142D01*
X151293815Y-78319759D01*
X151130878Y-78245506D01*
X150794640Y-78111327D01*
X150431556Y-78001866D01*
X150050785Y-77919573D01*
X149750147Y-77876131D01*
X149629928Y-77866667D01*
X149478846Y-77861164D01*
X149306488Y-77859394D01*
X149122440Y-77861129D01*
G37*
X149122440Y-77861129D02*
X148936289Y-77866142D01*
X148757621Y-77874206D01*
X148596022Y-77885093D01*
X148461079Y-77898576D01*
X148394129Y-77908290D01*
X148124956Y-77962650D01*
X147859225Y-78031405D01*
X147607494Y-78111308D01*
X147380319Y-78199113D01*
X147245810Y-78261398D01*
X147124370Y-78322438D01*
X146843644Y-78270885D01*
X146659654Y-78238367D01*
X146496818Y-78212932D01*
X146345340Y-78193768D01*
X146195427Y-78180062D01*
X146037285Y-78171002D01*
X145861120Y-78165777D01*
X145657138Y-78163573D01*
X145546917Y-78163350D01*
X145269055Y-78166228D01*
X145024718Y-78175591D01*
X144805441Y-78192532D01*
X144602760Y-78218143D01*
X144408211Y-78253518D01*
X144213330Y-78299750D01*
X144009653Y-78357931D01*
X143987721Y-78364682D01*
X143855222Y-78412115D01*
X143761432Y-78463820D01*
X143702776Y-78526085D01*
X143675679Y-78605199D01*
X143676565Y-78707448D01*
X143701859Y-78839123D01*
X143706769Y-78858795D01*
X143744328Y-78974794D01*
X143801592Y-79112715D01*
X143872649Y-79260777D01*
X143951587Y-79407200D01*
X144032491Y-79540202D01*
X144090746Y-79623850D01*
X144217333Y-79777249D01*
X144365731Y-79932658D01*
X144523009Y-80077510D01*
X144676236Y-80199234D01*
X144700250Y-80216237D01*
X144769951Y-80264931D01*
X144826618Y-80305083D01*
X144860945Y-80330080D01*
X144865905Y-80333979D01*
X144863044Y-80357059D01*
X144843691Y-80410986D01*
X144810666Y-80488934D01*
X144766787Y-80584078D01*
X144738430Y-80642521D01*
X144556591Y-81058103D01*
X144414847Y-81487108D01*
X144373970Y-81643349D01*
X144349508Y-81741718D01*
X144331064Y-81806301D01*
X144314836Y-81844491D01*
X144297024Y-81863682D01*
X144273827Y-81871266D01*
X144255750Y-81873321D01*
X144148269Y-81889086D01*
X144020308Y-81916667D01*
X143890410Y-81951467D01*
X143777117Y-81988886D01*
X143755027Y-81997514D01*
X143529836Y-82110995D01*
X143330492Y-82257421D01*
X143157509Y-82435816D01*
X143011405Y-82645204D01*
X142892695Y-82884612D01*
X142801896Y-83153065D01*
X142739523Y-83449586D01*
X142706093Y-83773201D01*
X142700125Y-83990309D01*
X142703799Y-84211881D01*
X142716071Y-84416304D01*
X142738527Y-84618814D01*
X142772754Y-84834646D01*
X142806365Y-85010767D01*
X142925841Y-85501633D01*
X143085155Y-85991268D01*
X143281875Y-86476104D01*
X143513570Y-86952572D01*
X143777809Y-87417104D01*
X144072160Y-87866132D01*
X144394193Y-88296086D01*
X144741476Y-88703399D01*
X145111577Y-89084502D01*
X145502066Y-89435827D01*
X145910511Y-89753805D01*
X146150167Y-89918593D01*
X146487349Y-90123095D01*
X146843195Y-90308329D01*
X147208856Y-90470555D01*
X147575481Y-90606030D01*
X147934219Y-90711013D01*
X148129250Y-90755268D01*
X148418473Y-90804360D01*
X148723115Y-90839527D01*
X149029795Y-90859891D01*
X149325133Y-90864575D01*
X149595747Y-90852702D01*
X149604430Y-90851991D01*
X150081508Y-90791332D01*
X150549077Y-90689635D01*
X151007302Y-90546830D01*
X151456349Y-90362845D01*
X151896381Y-90137613D01*
X152327565Y-89871062D01*
X152750065Y-89563123D01*
X152861010Y-89474233D01*
X153245641Y-89136135D01*
X153611440Y-88766777D01*
X153955995Y-88370140D01*
X154276893Y-87950207D01*
X154571722Y-87510962D01*
X154838069Y-87056387D01*
X155073521Y-86590465D01*
X155275666Y-86117178D01*
X155442092Y-85640509D01*
X155570385Y-85164440D01*
X155621448Y-84917244D01*
X155679730Y-84529813D01*
X155708322Y-84163270D01*
X155707733Y-83875757D01*
X155185846Y-83875757D01*
X155184754Y-84053783D01*
X155177684Y-84240564D01*
X155165044Y-84425112D01*
X155147238Y-84596441D01*
X155126157Y-84735600D01*
X155020610Y-85200330D01*
X154875623Y-85667375D01*
X154693613Y-86132709D01*
X154476996Y-86592306D01*
X154228188Y-87042140D01*
X153949607Y-87478184D01*
X153643668Y-87896414D01*
X153312787Y-88292802D01*
X152959381Y-88663323D01*
X152585866Y-89003952D01*
X152542500Y-89040385D01*
X152484834Y-89087909D01*
X152441544Y-89122625D01*
X152421220Y-89137656D01*
X152420785Y-89137811D01*
X152429839Y-89121762D01*
X152458430Y-89077843D01*
X152501977Y-89012973D01*
X152550117Y-88942475D01*
X152803124Y-88542491D01*
X153037210Y-88106824D01*
X153251479Y-87638097D01*
X153445037Y-87138929D01*
X153616986Y-86611942D01*
X153766433Y-86059758D01*
X153892481Y-85484998D01*
X153994236Y-84890283D01*
X154034247Y-84598017D01*
X154061789Y-84372964D01*
X154084015Y-84174179D01*
X154085767Y-84156015D01*
X153564298Y-84156015D01*
X153549213Y-84302932D01*
X153501701Y-84686657D01*
X153436573Y-85092926D01*
X153356608Y-85508142D01*
X153264586Y-85918705D01*
X153163287Y-86311016D01*
X153082470Y-86586460D01*
X152906237Y-87106913D01*
X152712281Y-87592676D01*
X152501017Y-88043109D01*
X152272858Y-88457573D01*
X152028219Y-88835428D01*
X151767514Y-89176034D01*
X151491156Y-89478752D01*
X151199560Y-89742943D01*
X150894076Y-89967354D01*
X150823719Y-90012941D01*
X150768137Y-90048060D01*
X150735754Y-90067428D01*
X150731029Y-90069600D01*
X150738279Y-90053550D01*
X150763831Y-90011343D01*
X150802276Y-89951887D01*
X150804924Y-89947892D01*
X150965691Y-89679578D01*
X151118505Y-89372184D01*
X151262658Y-89028340D01*
X151397445Y-88650675D01*
X151522160Y-88241816D01*
X151636098Y-87804393D01*
X151738553Y-87341034D01*
X151828819Y-86854368D01*
X151906191Y-86347024D01*
X151969963Y-85821631D01*
X152002447Y-85487017D01*
X152013698Y-85363203D01*
X152024384Y-85253209D01*
X152033744Y-85164308D01*
X152038746Y-85122652D01*
X151526500Y-85122652D01*
X151526500Y-85196278D01*
X151523925Y-85266648D01*
X151516708Y-85371397D01*
X151505614Y-85502918D01*
X151491407Y-85653602D01*
X151474854Y-85815843D01*
X151456717Y-85982031D01*
X151437762Y-86144560D01*
X151418754Y-86295822D01*
X151407920Y-86376017D01*
X151328292Y-86882761D01*
X151234624Y-87363369D01*
X151127635Y-87815277D01*
X151008047Y-88235917D01*
X150876579Y-88622723D01*
X150733953Y-88973129D01*
X150602554Y-89244100D01*
X150492420Y-89440445D01*
X150382978Y-89608135D01*
X150265338Y-89759750D01*
X150141362Y-89896751D01*
X149961495Y-90062291D01*
X149777299Y-90188323D01*
X149584018Y-90277669D01*
X149420417Y-90324464D01*
X149314700Y-90336936D01*
X149185126Y-90336880D01*
X149047887Y-90325480D01*
X148919179Y-90303920D01*
X148838334Y-90281913D01*
X148633501Y-90190367D01*
X148445129Y-90063480D01*
X147671063Y-90063480D01*
X147661643Y-90063235D01*
X147633196Y-90047426D01*
X147581252Y-90013759D01*
X147501341Y-89959943D01*
X147440449Y-89918616D01*
X147199105Y-89736082D01*
X146958131Y-89517990D01*
X146723637Y-89270727D01*
X146597399Y-89117100D01*
X145966639Y-89117100D01*
X145947184Y-89104089D01*
X145902429Y-89068643D01*
X145838989Y-89016141D01*
X145763479Y-88951962D01*
X145761754Y-88950478D01*
X145531961Y-88741046D01*
X145294272Y-88502813D01*
X145057750Y-88245767D01*
X144831463Y-87979893D01*
X144624474Y-87715178D01*
X144558408Y-87624850D01*
X144325233Y-87281152D01*
X144112579Y-86930017D01*
X143921010Y-86574102D01*
X143751087Y-86216063D01*
X143603372Y-85858557D01*
X143478428Y-85504238D01*
X143376817Y-85155764D01*
X143299102Y-84815790D01*
X143245844Y-84486974D01*
X143217605Y-84171970D01*
X143214949Y-83873436D01*
X143238437Y-83594027D01*
X143288632Y-83336399D01*
X143366096Y-83103209D01*
X143471390Y-82897113D01*
X143537384Y-82801461D01*
X143656941Y-82674916D01*
X143805318Y-82564813D01*
X143970113Y-82478569D01*
X144138925Y-82423604D01*
X144183227Y-82415145D01*
X144269016Y-82401427D01*
X144255091Y-82578972D01*
X144251671Y-82662813D01*
X144251239Y-82781816D01*
X144253505Y-82928938D01*
X144258178Y-83097137D01*
X144264966Y-83279367D01*
X144273578Y-83468586D01*
X144283723Y-83657751D01*
X144295109Y-83839818D01*
X144307446Y-84007743D01*
X144320104Y-84151053D01*
X144394279Y-84770014D01*
X144493025Y-85370953D01*
X144615547Y-85951386D01*
X144761051Y-86508824D01*
X144928744Y-87040781D01*
X145117832Y-87544771D01*
X145327521Y-88018307D01*
X145557016Y-88458903D01*
X145805524Y-88864071D01*
X145842140Y-88918343D01*
X145894793Y-88996795D01*
X145935901Y-89060644D01*
X145961155Y-89103010D01*
X145966639Y-89117100D01*
X146597399Y-89117100D01*
X146501731Y-89000676D01*
X146321708Y-88749240D01*
X146047709Y-88303428D01*
X145799358Y-87823938D01*
X145576657Y-87310769D01*
X145379604Y-86763921D01*
X145208200Y-86183395D01*
X145062445Y-85569191D01*
X144942339Y-84921308D01*
X144849882Y-84256789D01*
X144837100Y-84148395D01*
X145043842Y-84354681D01*
X145279331Y-84565098D01*
X145530368Y-84740380D01*
X145802235Y-84883484D01*
X146100214Y-84997364D01*
X146289935Y-85051922D01*
X146376785Y-85074225D01*
X146391626Y-85322459D01*
X146419225Y-85674388D01*
X146460904Y-86054621D01*
X146514915Y-86452196D01*
X146579511Y-86856155D01*
X146652943Y-87255537D01*
X146733464Y-87639383D01*
X146816221Y-87984683D01*
X146927963Y-88390932D01*
X147045424Y-88760177D01*
X147170719Y-89097597D01*
X147305965Y-89408368D01*
X147453276Y-89697666D01*
X147614769Y-89970670D01*
X147650704Y-90026448D01*
X147665927Y-90050454D01*
X147671063Y-90063480D01*
X148445129Y-90063480D01*
X148436845Y-90057900D01*
X148249126Y-89885267D01*
X148071101Y-89673227D01*
X147903532Y-89422536D01*
X147809825Y-89256707D01*
X147658019Y-88945004D01*
X147519266Y-88604587D01*
X147393210Y-88233918D01*
X147279492Y-87831457D01*
X147177755Y-87395665D01*
X147087640Y-86925003D01*
X147008789Y-86417932D01*
X146940846Y-85872912D01*
X146883451Y-85288405D01*
X146881241Y-85262674D01*
X146869310Y-85122998D01*
X147080933Y-85109129D01*
X147418470Y-85069818D01*
X147740537Y-84997916D01*
X148041025Y-84894989D01*
X148204729Y-84820839D01*
X148370558Y-84738091D01*
X148412034Y-84847971D01*
X148458003Y-84969034D01*
X148511560Y-85108886D01*
X148570731Y-85262479D01*
X148633542Y-85424767D01*
X148698020Y-85590703D01*
X148762189Y-85755240D01*
X148824077Y-85913332D01*
X148881710Y-86059933D01*
X148933114Y-86189995D01*
X148976314Y-86298472D01*
X149009338Y-86380317D01*
X149030210Y-86430484D01*
X149035801Y-86442756D01*
X149089985Y-86523357D01*
X149150807Y-86574973D01*
X149211287Y-86592274D01*
X149228514Y-86589927D01*
X149252533Y-86579969D01*
X149277149Y-86560160D01*
X149303845Y-86527359D01*
X149334107Y-86478428D01*
X149369418Y-86410228D01*
X149411263Y-86319619D01*
X149461126Y-86203463D01*
X149520492Y-86058620D01*
X149590845Y-85881952D01*
X149673670Y-85670318D01*
X149720916Y-85548620D01*
X150034103Y-84740323D01*
X150171760Y-84809611D01*
X150433524Y-84922346D01*
X150721073Y-85011851D01*
X151023011Y-85075136D01*
X151309542Y-85108031D01*
X151526500Y-85122652D01*
X152038746Y-85122652D01*
X152041014Y-85103773D01*
X152045141Y-85079558D01*
X152071231Y-85057517D01*
X152095427Y-85053100D01*
X152148488Y-85044783D01*
X152230587Y-85022084D01*
X152332331Y-84988379D01*
X152444330Y-84947046D01*
X152557193Y-84901460D01*
X152661529Y-84855000D01*
X152704198Y-84834201D01*
X152958409Y-84688358D01*
X153189269Y-84517395D01*
X153384942Y-84336993D01*
X153564298Y-84156015D01*
X154085767Y-84156015D01*
X154101647Y-83991454D01*
X154115408Y-83814582D01*
X154126020Y-83633356D01*
X154134205Y-83437569D01*
X154140685Y-83217014D01*
X154144704Y-83036975D01*
X154148214Y-82853191D01*
X154151276Y-82707641D01*
X154155100Y-82596257D01*
X154160889Y-82514973D01*
X154162819Y-82503075D01*
X153612785Y-82503075D01*
X153607923Y-82685567D01*
X153592222Y-82848110D01*
X153571399Y-82957600D01*
X153477018Y-83250580D01*
X153348422Y-83520854D01*
X153187820Y-83766270D01*
X152997419Y-83984678D01*
X152779428Y-84173927D01*
X152536055Y-84331868D01*
X152269510Y-84456350D01*
X151982000Y-84545221D01*
X151928667Y-84557170D01*
X151812019Y-84573617D01*
X151665359Y-84581862D01*
X151500120Y-84582343D01*
X151327730Y-84575501D01*
X151159622Y-84561774D01*
X151007225Y-84541603D01*
X150888679Y-84517200D01*
X150711225Y-84465554D01*
X150553668Y-84408887D01*
X150420324Y-84349395D01*
X150315510Y-84289270D01*
X150273353Y-84254965D01*
X149666138Y-84254965D01*
X149437466Y-84895707D01*
X149381788Y-85050518D01*
X149330362Y-85191216D01*
X149284939Y-85313185D01*
X149247271Y-85411809D01*
X149219112Y-85482474D01*
X149202212Y-85520563D01*
X149198222Y-85525877D01*
X149188807Y-85504047D01*
X149167101Y-85447153D01*
X149134881Y-85360058D01*
X149093924Y-85247626D01*
X149046008Y-85114720D01*
X148992908Y-84966203D01*
X148964016Y-84884922D01*
X148740383Y-84254539D01*
X148956253Y-83900608D01*
X149023862Y-83790343D01*
X149084730Y-83692173D01*
X149135159Y-83611970D01*
X149171455Y-83555609D01*
X149189920Y-83528962D01*
X149190685Y-83528116D01*
X149207068Y-83539464D01*
X149241816Y-83582985D01*
X149291892Y-83654326D01*
X149354260Y-83749134D01*
X149425885Y-83863055D01*
X149437692Y-83882260D01*
X149666138Y-84254965D01*
X150273353Y-84254965D01*
X150243541Y-84230706D01*
X150208732Y-84175896D01*
X150207522Y-84170999D01*
X150193606Y-84139072D01*
X150160204Y-84076492D01*
X150110435Y-83988393D01*
X150047424Y-83879914D01*
X149974291Y-83756191D01*
X149894159Y-83622358D01*
X149810149Y-83483554D01*
X149725384Y-83344914D01*
X149642986Y-83211574D01*
X149566077Y-83088672D01*
X149497778Y-82981342D01*
X149441212Y-82894722D01*
X149399501Y-82833948D01*
X149378195Y-82806595D01*
X149303569Y-82755094D01*
X149213984Y-82735589D01*
X149121597Y-82747564D01*
X149038563Y-82790506D01*
X149005237Y-82822387D01*
X148986295Y-82849651D01*
X148948322Y-82908569D01*
X148894175Y-82994555D01*
X148826711Y-83103026D01*
X148748786Y-83229397D01*
X148663256Y-83369084D01*
X148604602Y-83465399D01*
X148498283Y-83640962D01*
X148412168Y-83784745D01*
X148344006Y-83900856D01*
X148291545Y-83993401D01*
X148252534Y-84066489D01*
X148224721Y-84124225D01*
X148205854Y-84170717D01*
X148193681Y-84210073D01*
X148191502Y-84218929D01*
X148169557Y-84241577D01*
X148116541Y-84275672D01*
X148040746Y-84317080D01*
X147950462Y-84361669D01*
X147853981Y-84405305D01*
X147759594Y-84443855D01*
X147691846Y-84468032D01*
X147465462Y-84527855D01*
X147222378Y-84567062D01*
X146973301Y-84585286D01*
X146728941Y-84582158D01*
X146500004Y-84557312D01*
X146313535Y-84515350D01*
X146031994Y-84410622D01*
X145773019Y-84271509D01*
X145538916Y-84100791D01*
X145331987Y-83901253D01*
X145154536Y-83675676D01*
X145008866Y-83426843D01*
X144897281Y-83157536D01*
X144822085Y-82870537D01*
X144794258Y-82680214D01*
X144784836Y-82426799D01*
X144795733Y-82277651D01*
X144862967Y-81863206D01*
X144968903Y-81463281D01*
X145112566Y-81079981D01*
X145292982Y-80715408D01*
X145509177Y-80371668D01*
X145760176Y-80050863D01*
X145896223Y-79902005D01*
X146056138Y-79735660D01*
X146570448Y-79887100D01*
X146870167Y-79977618D01*
X147132472Y-80062169D01*
X147361526Y-80142752D01*
X147561491Y-80221366D01*
X147736529Y-80300013D01*
X147890804Y-80380693D01*
X148028477Y-80465406D01*
X148153712Y-80556152D01*
X148270671Y-80654932D01*
X148373437Y-80753507D01*
X148568574Y-80978399D01*
X148726882Y-81222199D01*
X148826205Y-81427166D01*
X148869382Y-81529339D01*
X148896760Y-81600364D01*
X148907468Y-81648709D01*
X148900634Y-81682842D01*
X148875386Y-81711229D01*
X148830853Y-81742338D01*
X148791116Y-81768052D01*
X148693409Y-81837267D01*
X148595370Y-81918404D01*
X148490198Y-82017733D01*
X148371087Y-82141522D01*
X148292617Y-82227350D01*
X148225614Y-82300940D01*
X148181694Y-82346158D01*
X148156021Y-82366455D01*
X148143758Y-82365278D01*
X148140068Y-82346077D01*
X148139906Y-82336238D01*
X148129846Y-82247859D01*
X148102559Y-82136497D01*
X148062127Y-82015750D01*
X148012631Y-81899215D01*
X148002637Y-81878867D01*
X147879610Y-81679683D01*
X147727439Y-81508408D01*
X147550551Y-81367162D01*
X147353376Y-81258068D01*
X147140339Y-81183245D01*
X146915870Y-81144815D01*
X146684395Y-81144898D01*
X146520584Y-81169003D01*
X146301751Y-81235431D01*
X146102023Y-81336754D01*
X145924189Y-81468806D01*
X145771038Y-81627419D01*
X145645357Y-81808427D01*
X145549936Y-82007663D01*
X145487562Y-82220960D01*
X145461024Y-82444150D01*
X145473111Y-82673068D01*
X145481000Y-82722499D01*
X145541738Y-82945246D01*
X145639319Y-83152555D01*
X145769760Y-83340146D01*
X145929080Y-83503737D01*
X146113295Y-83639049D01*
X146318423Y-83741801D01*
X146477406Y-83793365D01*
X146610394Y-83815891D01*
X146766955Y-83824770D01*
X146930654Y-83820200D01*
X147085061Y-83802381D01*
X147168073Y-83784986D01*
X147315348Y-83741812D01*
X147444421Y-83690798D01*
X147571524Y-83624544D01*
X147708532Y-83538551D01*
X147825257Y-83455396D01*
X147943794Y-83359178D01*
X148068828Y-83245456D01*
X148205041Y-83109793D01*
X148357118Y-82947751D01*
X148500317Y-82788267D01*
X148652992Y-82617586D01*
X148706609Y-82559676D01*
X147624297Y-82559676D01*
X147594558Y-82718343D01*
X147531203Y-82871322D01*
X147432523Y-83013734D01*
X147355678Y-83092053D01*
X147201295Y-83204557D01*
X147034506Y-83277142D01*
X146858540Y-83309194D01*
X146676626Y-83300100D01*
X146503951Y-83253811D01*
X146376320Y-83187370D01*
X146253030Y-83089259D01*
X146144887Y-82969645D01*
X146062696Y-82838695D01*
X146062655Y-82838612D01*
X146002513Y-82670938D01*
X145981593Y-82498098D01*
X145998277Y-82326077D01*
X146050951Y-82160861D01*
X146137997Y-82008436D01*
X146257798Y-81874788D01*
X146340741Y-81808872D01*
X146476964Y-81730240D01*
X146618097Y-81684652D01*
X146775949Y-81668953D01*
X146857317Y-81670893D01*
X147034923Y-81699468D01*
X147192598Y-81761376D01*
X147328630Y-81851740D01*
X147441311Y-81965682D01*
X147528928Y-82098324D01*
X147589772Y-82244789D01*
X147622132Y-82400199D01*
X147624297Y-82559676D01*
X148706609Y-82559676D01*
X148782359Y-82477862D01*
X148891238Y-82366741D01*
X148982446Y-82281867D01*
X149058802Y-82220887D01*
X149123122Y-82181446D01*
X149178226Y-82161190D01*
X149226931Y-82157765D01*
X149250242Y-82161747D01*
X149308559Y-82187988D01*
X149384024Y-82242435D01*
X149478164Y-82326511D01*
X149592506Y-82441640D01*
X149728576Y-82589243D01*
X149821391Y-82694109D01*
X150000366Y-82895745D01*
X150158653Y-83066846D01*
X150300454Y-83211122D01*
X150429969Y-83332279D01*
X150551399Y-83434029D01*
X150668947Y-83520079D01*
X150786812Y-83594139D01*
X150909197Y-83659918D01*
X150923250Y-83666874D01*
X151023748Y-83712422D01*
X151128975Y-83753936D01*
X151221477Y-83784726D01*
X151251334Y-83792618D01*
X151375591Y-83812836D01*
X151521689Y-83822912D01*
X151673963Y-83822861D01*
X151816745Y-83812697D01*
X151934366Y-83792435D01*
X151936195Y-83791968D01*
X152155830Y-83714266D01*
X152356749Y-83601029D01*
X152534975Y-83456313D01*
X152686533Y-83284173D01*
X152807445Y-83088665D01*
X152893736Y-82873845D01*
X152915407Y-82793216D01*
X152935585Y-82658374D01*
X152941257Y-82500333D01*
X152940250Y-82479900D01*
X152427219Y-82479900D01*
X152408653Y-82654614D01*
X152352982Y-82822047D01*
X152261345Y-82975683D01*
X152186742Y-83061374D01*
X152038317Y-83183366D01*
X151877954Y-83265376D01*
X151707651Y-83306830D01*
X151529401Y-83307156D01*
X151409239Y-83284787D01*
X151248836Y-83225655D01*
X151103897Y-83138091D01*
X150986005Y-83029314D01*
X150971917Y-83012300D01*
X150902074Y-82918870D01*
X150854799Y-82837521D01*
X150821954Y-82751193D01*
X150795398Y-82642827D01*
X150795209Y-82641921D01*
X150779390Y-82466729D01*
X150802845Y-82294663D01*
X150862606Y-82131593D01*
X150955702Y-81983390D01*
X151079164Y-81855923D01*
X151230023Y-81755063D01*
X151248612Y-81745624D01*
X151316840Y-81713664D01*
X151373304Y-81693519D01*
X151431810Y-81682493D01*
X151506164Y-81677892D01*
X151600084Y-81677017D01*
X151703596Y-81678356D01*
X151778737Y-81684015D01*
X151839430Y-81696454D01*
X151899595Y-81718133D01*
X151943729Y-81737751D01*
X152062219Y-81809140D01*
X152178092Y-81908147D01*
X152278386Y-82022060D01*
X152348487Y-82134695D01*
X152407542Y-82304421D01*
X152427219Y-82479900D01*
X152940250Y-82479900D01*
X152933122Y-82335399D01*
X152911877Y-82179882D01*
X152884354Y-82068276D01*
X152797278Y-81863647D01*
X152674587Y-81674723D01*
X152521709Y-81506843D01*
X152344074Y-81365347D01*
X152147111Y-81255578D01*
X152002750Y-81201119D01*
X151772579Y-81151262D01*
X151545722Y-81141435D01*
X151325790Y-81169334D01*
X151116391Y-81232656D01*
X150921135Y-81329098D01*
X150743633Y-81456356D01*
X150587493Y-81612128D01*
X150456325Y-81794110D01*
X150353739Y-81999999D01*
X150283344Y-82227492D01*
X150267563Y-82308283D01*
X150253998Y-82389216D01*
X150167336Y-82287116D01*
X150084747Y-82194558D01*
X149990005Y-82096024D01*
X149890188Y-81998130D01*
X149792372Y-81907496D01*
X149703635Y-81830741D01*
X149631054Y-81774482D01*
X149594208Y-81751136D01*
X149538264Y-81715903D01*
X149502263Y-81682539D01*
X149494888Y-81666470D01*
X149504726Y-81621433D01*
X149530753Y-81548678D01*
X149568757Y-81457584D01*
X149614532Y-81357527D01*
X149663868Y-81257886D01*
X149712557Y-81168039D01*
X149736925Y-81127173D01*
X149870151Y-80932511D01*
X150009672Y-80768829D01*
X150165192Y-80624912D01*
X150186253Y-80607743D01*
X150303202Y-80518498D01*
X150424349Y-80436650D01*
X150554145Y-80360270D01*
X150697043Y-80287425D01*
X150857493Y-80216187D01*
X151039949Y-80144624D01*
X151248861Y-80070806D01*
X151488683Y-79992802D01*
X151763866Y-79908682D01*
X151872774Y-79876434D01*
X152335463Y-79740399D01*
X152395978Y-79791319D01*
X152440234Y-79832310D01*
X152500181Y-79892636D01*
X152563510Y-79959876D01*
X152568987Y-79965877D01*
X152829652Y-80279519D01*
X153051971Y-80606396D01*
X153237746Y-80950110D01*
X153388783Y-81314266D01*
X153506886Y-81702466D01*
X153563267Y-81951311D01*
X153590363Y-82124405D01*
X153606900Y-82312173D01*
X153612785Y-82503075D01*
X154162819Y-82503075D01*
X154169852Y-82459722D01*
X154183194Y-82426436D01*
X154202123Y-82411049D01*
X154227844Y-82409492D01*
X154261565Y-82417700D01*
X154304491Y-82431604D01*
X154322605Y-82437274D01*
X154514765Y-82516482D01*
X154689531Y-82629936D01*
X154839662Y-82772078D01*
X154944714Y-82914932D01*
X155006654Y-83035720D01*
X155065475Y-83184764D01*
X155116519Y-83348016D01*
X155155128Y-83511426D01*
X155168477Y-83589921D01*
X155180556Y-83717474D01*
X155185846Y-83875757D01*
X155707733Y-83875757D01*
X155707616Y-83818910D01*
X155678002Y-83498028D01*
X155619872Y-83201920D01*
X155533618Y-82931881D01*
X155419629Y-82689205D01*
X155278297Y-82475188D01*
X155110014Y-82291126D01*
X154915170Y-82138312D01*
X154754417Y-82046258D01*
X154641726Y-81996613D01*
X154516482Y-81951287D01*
X154391064Y-81913940D01*
X154277852Y-81888235D01*
X154189226Y-81877834D01*
X154184823Y-81877776D01*
X154131219Y-81872823D01*
X154097090Y-81861901D01*
X154082853Y-81835278D01*
X154064095Y-81777640D01*
X154044085Y-81699581D01*
X154036763Y-81666433D01*
X153973786Y-81419019D01*
X153887319Y-81155094D01*
X153782594Y-80889242D01*
X153672529Y-80651313D01*
X153621192Y-80548201D01*
X153577625Y-80459574D01*
X153544897Y-80391770D01*
X153526080Y-80351125D01*
X153522795Y-80342235D01*
X153595673Y-80296934D01*
X153689224Y-80230269D01*
X153793470Y-80150075D01*
X153898432Y-80064186D01*
X153994134Y-79980440D01*
X154046747Y-79930767D01*
X154254476Y-79700651D01*
X154431883Y-79450454D01*
X154575166Y-79186406D01*
X154576462Y-79183064D01*
X153981834Y-79183064D01*
X153970849Y-79204473D01*
X153942477Y-79249531D01*
X153914088Y-79291953D01*
X153844162Y-79381305D01*
X153749352Y-79484623D01*
X153639820Y-79592121D01*
X153525724Y-79694014D01*
X153417225Y-79780517D01*
X153377691Y-79808600D01*
X153230417Y-79908684D01*
X153159388Y-79829767D01*
X153101656Y-79764143D01*
X153038205Y-79689902D01*
X153013522Y-79660354D01*
X152974043Y-79609935D01*
X152950348Y-79574365D01*
X152946969Y-79563443D01*
X152969060Y-79554336D01*
X153022929Y-79534373D01*
X153100352Y-79506550D01*
X153188084Y-79475617D01*
X153301687Y-79434899D01*
X153437268Y-79384782D01*
X153577555Y-79331725D01*
X153701375Y-79283722D01*
X153801249Y-79245025D01*
X153885435Y-79213641D01*
X153946974Y-79192067D01*
X153978907Y-79182800D01*
X153981834Y-79183064D01*
X154576462Y-79183064D01*
X154680522Y-78914734D01*
X154693481Y-78871409D01*
X154725794Y-78736897D01*
X153674917Y-78736897D01*
X153325667Y-78865955D01*
X153160135Y-78926418D01*
X153006352Y-78980871D01*
X152856120Y-79031953D01*
X152701244Y-79082303D01*
X152533527Y-79134563D01*
X152344771Y-79191371D01*
X152126781Y-79255368D01*
X152023917Y-79285204D01*
X151787896Y-79353780D01*
X151587401Y-79412787D01*
X151417146Y-79463895D01*
X151271844Y-79508776D01*
X151146207Y-79549102D01*
X151034949Y-79586543D01*
X150932783Y-79622771D01*
X150834422Y-79659457D01*
X150808185Y-79669521D01*
X150476288Y-79811976D01*
X150181880Y-79969588D01*
X149922189Y-80144422D01*
X149694447Y-80338544D01*
X149495881Y-80554021D01*
X149344194Y-80761248D01*
X149293118Y-80840691D01*
X149252143Y-80907582D01*
X149226123Y-80953793D01*
X149219334Y-80970250D01*
X149214567Y-80987550D01*
X149198378Y-80974688D01*
X149167935Y-80928574D01*
X149144457Y-80888558D01*
X148969127Y-80625563D01*
X148758408Y-80384995D01*
X148513345Y-80167720D01*
X148234980Y-79974607D01*
X147924359Y-79806523D01*
X147748250Y-79728395D01*
X147644774Y-79686733D01*
X147538196Y-79646239D01*
X147423309Y-79605215D01*
X147297391Y-79562797D01*
X145470637Y-79562797D01*
X145462150Y-79580828D01*
X145431565Y-79620109D01*
X145396066Y-79660459D01*
X145336435Y-79728011D01*
X145277792Y-79798467D01*
X145253200Y-79829799D01*
X145221987Y-79868611D01*
X145194860Y-79889236D01*
X145163612Y-79890265D01*
X145120033Y-79870283D01*
X145055915Y-79827879D01*
X144996584Y-79785652D01*
X144882638Y-79695670D01*
X144760605Y-79585479D01*
X144644290Y-79468380D01*
X144547497Y-79357678D01*
X144532173Y-79338100D01*
X144473335Y-79260402D01*
X144440051Y-79211996D01*
X144432052Y-79188628D01*
X144449067Y-79186046D01*
X144490824Y-79199999D01*
X144524226Y-79213174D01*
X144730902Y-79294548D01*
X144923299Y-79368185D01*
X145094181Y-79431377D01*
X145236311Y-79481417D01*
X145282334Y-79496766D01*
X145363117Y-79523625D01*
X145427148Y-79545806D01*
X145464824Y-79559944D01*
X145470637Y-79562797D01*
X147297391Y-79562797D01*
X147294906Y-79561960D01*
X147147778Y-79514777D01*
X146976718Y-79461965D01*
X146776518Y-79401825D01*
X146541970Y-79332658D01*
X146478250Y-79314019D01*
X146167160Y-79222144D01*
X145892371Y-79138794D01*
X145649070Y-79062408D01*
X145432443Y-78991426D01*
X145237676Y-78924290D01*
X145059955Y-78859441D01*
X144975891Y-78827350D01*
X144878282Y-78789081D01*
X144815672Y-78762716D01*
X144783425Y-78745286D01*
X144776906Y-78733823D01*
X144791477Y-78725358D01*
X144808842Y-78720372D01*
X144873245Y-78709362D01*
X144971907Y-78699626D01*
X145096762Y-78691441D01*
X145239749Y-78685083D01*
X145392801Y-78680829D01*
X145547857Y-78678957D01*
X145696852Y-78679744D01*
X145831722Y-78683466D01*
X145853834Y-78684467D01*
X146086410Y-78700556D01*
X146333828Y-78726176D01*
X146581261Y-78759370D01*
X146813882Y-78798184D01*
X146989441Y-78834258D01*
X147183132Y-78878579D01*
X147455108Y-78750279D01*
X147577252Y-78695392D01*
X147709192Y-78640593D01*
X147835112Y-78592209D01*
X147939197Y-78556567D01*
X147939870Y-78556359D01*
X148312819Y-78460841D01*
X148696346Y-78399698D01*
X149085160Y-78372534D01*
X149473969Y-78378952D01*
X149857485Y-78418556D01*
X150230415Y-78490949D01*
X150587469Y-78595735D01*
X150923356Y-78732516D01*
X151035984Y-78788421D01*
X151205454Y-78876859D01*
X151530019Y-78812671D01*
X151703301Y-78779111D01*
X151852303Y-78752399D01*
X151985602Y-78731777D01*
X152111770Y-78716491D01*
X152239382Y-78705782D01*
X152377012Y-78698896D01*
X152533235Y-78695076D01*
X152716625Y-78693566D01*
X152881167Y-78693500D01*
X153044018Y-78694463D01*
X153196885Y-78696698D01*
X153333565Y-78700012D01*
X153447854Y-78704211D01*
X153533551Y-78709101D01*
X153584451Y-78714487D01*
X153590250Y-78715691D01*
X153674917Y-78736897D01*
X154725794Y-78736897D01*
X154726893Y-78732324D01*
X154735712Y-78623731D01*
X154717267Y-78539905D01*
X154668885Y-78475121D01*
X154587893Y-78423654D01*
X154471618Y-78379779D01*
X154462680Y-78377024D01*
X154254726Y-78316609D01*
X154063037Y-78268176D01*
X153878861Y-78230561D01*
X153693448Y-78202600D01*
X153498047Y-78183130D01*
X153283908Y-78170985D01*
X153042279Y-78165003D01*
X152860000Y-78163863D01*
X152616206Y-78165331D01*
X152404467Y-78170668D01*
X152214614Y-78180745D01*
X152036475Y-78196431D01*
X151859879Y-78218595D01*
X151674655Y-78248107D01*
X151500116Y-78280142D01*
X151293815Y-78319759D01*
X151130878Y-78245506D01*
X150794640Y-78111327D01*
X150431556Y-78001866D01*
X150050785Y-77919573D01*
X149750147Y-77876131D01*
X149629928Y-77866667D01*
X149478846Y-77861164D01*
X149306488Y-77859394D01*
X149122440Y-77861129D01*
G36*
X151522827Y-81922850D02*
G01*
X151383786Y-81957382D01*
X151256515Y-82024961D01*
X151156846Y-82115780D01*
X151080200Y-82235713D01*
X151034411Y-82374125D01*
X151020834Y-82520053D01*
X151040826Y-82662536D01*
X151077404Y-82758090D01*
X151162943Y-82881374D01*
X151276253Y-82978123D01*
X151409555Y-83044784D01*
X151555067Y-83077801D01*
X151705006Y-83073618D01*
X151748750Y-83064808D01*
X151884790Y-83011772D01*
X151997691Y-82928525D01*
X152085442Y-82821540D01*
X152146030Y-82697291D01*
X152177442Y-82562250D01*
X152177669Y-82422892D01*
X152174260Y-82408706D01*
X151780500Y-82408706D01*
X151775206Y-82467902D01*
X151753827Y-82515699D01*
X151708122Y-82569185D01*
X151698324Y-82579090D01*
X151644263Y-82628310D01*
X151598545Y-82652816D01*
X151542918Y-82660833D01*
X151515917Y-82661267D01*
X151451915Y-82657297D01*
X151404633Y-82639907D01*
X151355821Y-82600872D01*
X151333510Y-82579090D01*
X151283473Y-82523515D01*
X151258879Y-82476287D01*
X151251477Y-82420124D01*
X151251334Y-82406963D01*
X151269441Y-82300913D01*
X151318920Y-82216420D01*
X151392505Y-82157920D01*
X151482931Y-82129849D01*
X151582933Y-82136642D01*
X151651358Y-82162742D01*
X151723350Y-82222804D01*
X151767392Y-82311131D01*
X151780500Y-82408706D01*
X152174260Y-82408706D01*
X152144696Y-82285690D01*
X152076512Y-82157117D01*
X152043885Y-82115269D01*
X151934167Y-82017574D01*
X151805658Y-81952941D01*
X151665997Y-81921369D01*
X151522827Y-81922850D01*
G37*
X151522827Y-81922850D02*
X151383786Y-81957382D01*
X151256515Y-82024961D01*
X151156846Y-82115780D01*
X151080200Y-82235713D01*
X151034411Y-82374125D01*
X151020834Y-82520053D01*
X151040826Y-82662536D01*
X151077404Y-82758090D01*
X151162943Y-82881374D01*
X151276253Y-82978123D01*
X151409555Y-83044784D01*
X151555067Y-83077801D01*
X151705006Y-83073618D01*
X151748750Y-83064808D01*
X151884790Y-83011772D01*
X151997691Y-82928525D01*
X152085442Y-82821540D01*
X152146030Y-82697291D01*
X152177442Y-82562250D01*
X152177669Y-82422892D01*
X152174260Y-82408706D01*
X151780500Y-82408706D01*
X151775206Y-82467902D01*
X151753827Y-82515699D01*
X151708122Y-82569185D01*
X151698324Y-82579090D01*
X151644263Y-82628310D01*
X151598545Y-82652816D01*
X151542918Y-82660833D01*
X151515917Y-82661267D01*
X151451915Y-82657297D01*
X151404633Y-82639907D01*
X151355821Y-82600872D01*
X151333510Y-82579090D01*
X151283473Y-82523515D01*
X151258879Y-82476287D01*
X151251477Y-82420124D01*
X151251334Y-82406963D01*
X151269441Y-82300913D01*
X151318920Y-82216420D01*
X151392505Y-82157920D01*
X151482931Y-82129849D01*
X151582933Y-82136642D01*
X151651358Y-82162742D01*
X151723350Y-82222804D01*
X151767392Y-82311131D01*
X151780500Y-82408706D01*
X152174260Y-82408706D01*
X152144696Y-82285690D01*
X152076512Y-82157117D01*
X152043885Y-82115269D01*
X151934167Y-82017574D01*
X151805658Y-81952941D01*
X151665997Y-81921369D01*
X151522827Y-81922850D01*
G36*
X146636342Y-81939684D02*
G01*
X146494976Y-81993989D01*
X146377095Y-82082321D01*
X146285266Y-82203187D01*
X146272500Y-82226727D01*
X146239276Y-82321156D01*
X146220357Y-82437467D01*
X146217395Y-82557146D01*
X146232043Y-82661676D01*
X146233261Y-82666150D01*
X146291479Y-82800377D01*
X146380776Y-82912086D01*
X146494502Y-82997957D01*
X146626004Y-83054669D01*
X146768633Y-83078901D01*
X146915736Y-83067332D01*
X146993177Y-83045572D01*
X147126603Y-82977349D01*
X147233354Y-82881334D01*
X147311537Y-82764055D01*
X147359259Y-82632041D01*
X147374628Y-82491819D01*
X147365407Y-82422500D01*
X146970570Y-82422500D01*
X146969581Y-82430700D01*
X146938023Y-82525703D01*
X146877305Y-82598960D01*
X146796351Y-82646045D01*
X146704086Y-82662533D01*
X146609435Y-82644001D01*
X146574344Y-82626648D01*
X146501654Y-82562369D01*
X146458517Y-82479497D01*
X146444879Y-82387944D01*
X146460685Y-82297621D01*
X146505881Y-82218440D01*
X146576901Y-82162091D01*
X146676762Y-82130576D01*
X146772562Y-82135622D01*
X146857073Y-82172282D01*
X146923065Y-82235612D01*
X146963307Y-82320667D01*
X146970570Y-82422500D01*
X147365407Y-82422500D01*
X147355752Y-82349919D01*
X147300737Y-82212870D01*
X147254935Y-82142645D01*
X147148964Y-82032732D01*
X147024827Y-81960595D01*
X146880337Y-81925171D01*
X146798625Y-81920898D01*
X146636342Y-81939684D01*
G37*
X146636342Y-81939684D02*
X146494976Y-81993989D01*
X146377095Y-82082321D01*
X146285266Y-82203187D01*
X146272500Y-82226727D01*
X146239276Y-82321156D01*
X146220357Y-82437467D01*
X146217395Y-82557146D01*
X146232043Y-82661676D01*
X146233261Y-82666150D01*
X146291479Y-82800377D01*
X146380776Y-82912086D01*
X146494502Y-82997957D01*
X146626004Y-83054669D01*
X146768633Y-83078901D01*
X146915736Y-83067332D01*
X146993177Y-83045572D01*
X147126603Y-82977349D01*
X147233354Y-82881334D01*
X147311537Y-82764055D01*
X147359259Y-82632041D01*
X147374628Y-82491819D01*
X147365407Y-82422500D01*
X146970570Y-82422500D01*
X146969581Y-82430700D01*
X146938023Y-82525703D01*
X146877305Y-82598960D01*
X146796351Y-82646045D01*
X146704086Y-82662533D01*
X146609435Y-82644001D01*
X146574344Y-82626648D01*
X146501654Y-82562369D01*
X146458517Y-82479497D01*
X146444879Y-82387944D01*
X146460685Y-82297621D01*
X146505881Y-82218440D01*
X146576901Y-82162091D01*
X146676762Y-82130576D01*
X146772562Y-82135622D01*
X146857073Y-82172282D01*
X146923065Y-82235612D01*
X146963307Y-82320667D01*
X146970570Y-82422500D01*
X147365407Y-82422500D01*
X147355752Y-82349919D01*
X147300737Y-82212870D01*
X147254935Y-82142645D01*
X147148964Y-82032732D01*
X147024827Y-81960595D01*
X146880337Y-81925171D01*
X146798625Y-81920898D01*
X146636342Y-81939684D01*
%TD*%
M02*
